<svg width="38" height="37" viewBox="0 0 38 37" fill="none" xmlns="http://www.w3.org/2000/svg">
<g id="github" clip-path="url(#clip0_1172_3852)">
<path id="Vector" d="M14.3747 29.2913C6.66634 31.6038 6.66634 25.4371 3.58301 24.6663M25.1663 33.9163V27.9501C25.2242 27.2149 25.1249 26.4759 24.875 25.7822C24.6251 25.0884 24.2304 24.4557 23.7172 23.9263C28.558 23.3867 33.6455 21.5521 33.6455 13.1346C33.6451 10.9822 32.8172 8.91232 31.333 7.35339C32.0358 5.47025 31.9861 3.38876 31.1943 1.54131C31.1943 1.54131 29.3751 1.00172 25.1663 3.82297C21.6329 2.86532 17.9082 2.86532 14.3747 3.82297C10.1659 1.00172 8.34676 1.54131 8.34676 1.54131C7.55492 3.38876 7.50523 5.47025 8.20801 7.35339C6.71279 8.92388 5.88398 11.0125 5.89551 13.1809C5.89551 21.5367 10.983 23.3713 15.8238 23.9726C15.3166 24.4967 14.9255 25.1217 14.6758 25.807C14.4261 26.4923 14.3235 27.2225 14.3747 27.9501V33.9163" stroke="#121212" stroke-width="3.06" stroke-linecap="round" stroke-linejoin="round"/>
</g>
<defs>
<clipPath id="clip0_1172_3852">
<rect width="37" height="37" fill="white" transform="translate(0.5)"/>
</clipPath>
</defs>
</svg>
