<svg width="36" height="35" viewBox="0 0 36 35" fill="none" xmlns="http://www.w3.org/2000/svg">
<g id="instagram">
<path id="Vector" d="M25.291 2.91602H10.7077C6.68061 2.91602 3.41602 6.18061 3.41602 10.2077V24.791C3.41602 28.8181 6.68061 32.0827 10.7077 32.0827H25.291C29.3181 32.0827 32.5827 28.8181 32.5827 24.791V10.2077C32.5827 6.18061 29.3181 2.91602 25.291 2.91602Z" stroke="#121212" stroke-width="3.06009" stroke-linecap="round" stroke-linejoin="round"/>
<path id="Vector_2" d="M23.8321 16.5812C24.0121 17.7949 23.8048 19.0344 23.2397 20.1235C22.6746 21.2126 21.7804 22.0958 20.6845 22.6474C19.5885 23.199 18.3465 23.391 17.1351 23.1961C15.9237 23.0012 14.8047 22.4292 13.9371 21.5616C13.0695 20.694 12.4975 19.575 12.3026 18.3636C12.1077 17.1522 12.2997 15.9102 12.8513 14.8142C13.4029 13.7183 14.2861 12.8242 15.3752 12.2591C16.4643 11.694 17.7038 11.4866 18.9175 11.6666C20.1555 11.8502 21.3017 12.4271 22.1866 13.3121C23.0716 14.197 23.6485 15.3432 23.8321 16.5812Z" stroke="#121212" stroke-width="3.06009" stroke-linecap="round" stroke-linejoin="round"/>
<path id="Vector_3" d="M26.0205 9.47852H26.0344" stroke="#121212" stroke-width="3.06009" stroke-linecap="round" stroke-linejoin="round"/>
</g>
</svg>
