<svg width="36" height="35" viewBox="0 0 36 35" fill="none" xmlns="http://www.w3.org/2000/svg">
<g id="linkedin">
<path id="Vector" d="M23.834 11.666C26.1546 11.666 28.3802 12.5879 30.0212 14.2288C31.6621 15.8698 32.584 18.0954 32.584 20.416V30.6243H26.7507V20.416C26.7507 19.6425 26.4434 18.9006 25.8964 18.3536C25.3494 17.8066 24.6075 17.4993 23.834 17.4993C23.0604 17.4993 22.3186 17.8066 21.7716 18.3536C21.2246 18.9006 20.9173 19.6425 20.9173 20.416V30.6243H15.084V20.416C15.084 18.0954 16.0059 15.8698 17.6468 14.2288C19.2877 12.5879 21.5133 11.666 23.834 11.666Z" stroke="#121212" stroke-width="3.06009" stroke-linecap="round" stroke-linejoin="round"/>
<path id="Vector_2" d="M9.25033 13.125H3.41699V30.625H9.25033V13.125Z" stroke="#121212" stroke-width="3.06009" stroke-linecap="round" stroke-linejoin="round"/>
<path id="Vector_3" d="M6.33366 8.74935C7.94449 8.74935 9.25033 7.44351 9.25033 5.83268C9.25033 4.22185 7.94449 2.91602 6.33366 2.91602C4.72283 2.91602 3.41699 4.22185 3.41699 5.83268C3.41699 7.44351 4.72283 8.74935 6.33366 8.74935Z" stroke="#121212" stroke-width="3.06009" stroke-linecap="round" stroke-linejoin="round"/>
</g>
</svg>
