<?xml version="1.0" encoding="UTF-8"?><svg id="Layer_1" xmlns="http://www.w3.org/2000/svg" xmlns:xlink="http://www.w3.org/1999/xlink" viewBox="0 0 1994.5 1994.5"><defs><style>.cls-1{fill:#000e1e;}.cls-2{fill:url(#New_Gradient_Swatch);}</style><linearGradient id="New_Gradient_Swatch" x1="614.25" y1="997.25" x2="1255.04" y2="997.25" gradientUnits="userSpaceOnUse"><stop offset="0" stop-color="#000e1e"/><stop offset=".11" stop-color="#031222"/><stop offset=".25" stop-color="#0d212f"/><stop offset=".39" stop-color="#1e3845"/><stop offset=".54" stop-color="#355a63"/><stop offset=".7" stop-color="#53848a"/><stop offset=".86" stop-color="#77b8b8"/><stop offset="1" stop-color="#9cede9"/></linearGradient></defs><path class="cls-2" d="M1255.04,1335.22h-135.25c-19.79,0-39.14-12.49-55.58-35.87l-449.96-640.07h135.25c19.79,0,39.14,12.49,55.58,35.87l449.96,640.07Z"/><path class="cls-1" d="M1131.52,835l-326.43,464.35c-16.44,23.38-35.78,35.86-55.58,35.86h-135.26l326.43-464.35c16.44-23.38,35.78-35.87,55.58-35.87h135.25Z"/><path class="cls-1" d="M1255.04,659.28l-71.24,101.34c-16.44,23.38-35.78,35.87-55.58,35.87h-135.26l71.25-101.35c16.43-23.38,35.78-35.86,55.57-35.86h135.26Z"/><path class="cls-1" d="M1380.25,1198.01l-71.24,101.34c-16.44,23.38-35.78,35.87-55.58,35.87h-135.26l71.25-101.35c16.43-23.38,35.78-35.86,55.57-35.86h135.26Z"/></svg>