<?xml version="1.0" encoding="UTF-8"?><svg id="Layer_1" xmlns="http://www.w3.org/2000/svg" xmlns:xlink="http://www.w3.org/1999/xlink" viewBox="0 0 7237.74 2287.34"><defs><style>.cls-1{fill:#000e1e;}.cls-2{fill:url(#New_Gradient_Swatch);}</style><linearGradient id="New_Gradient_Swatch" x1="1842.47" y1="1233.71" x2="2485.35" y2="1233.71" gradientUnits="userSpaceOnUse"><stop offset="0" stop-color="#000e1e"/><stop offset=".11" stop-color="#031222"/><stop offset=".25" stop-color="#0d212f"/><stop offset=".39" stop-color="#1e3845"/><stop offset=".54" stop-color="#355a63"/><stop offset=".7" stop-color="#53848a"/><stop offset=".86" stop-color="#77b8b8"/><stop offset="1" stop-color="#9cede9"/></linearGradient></defs><path class="cls-2" d="M2485.35,1572.78h-135.69c-19.86,0-39.27-12.53-55.76-35.98l-451.43-642.15h135.69c19.86,0,39.27,12.53,55.76,35.98l451.43,642.15Z"/><path class="cls-1" d="M2361.42,1070.94l-327.49,465.86c-16.49,23.45-35.9,35.98-55.76,35.98h-135.69l327.5-465.86c16.49-23.46,35.9-35.98,55.76-35.98h135.69Z"/><path class="cls-1" d="M2485.35,894.65l-71.47,101.67c-16.49,23.46-35.9,35.98-55.76,35.98h-135.7l71.48-101.67c16.49-23.45,35.9-35.98,55.76-35.98h135.69Z"/><path class="cls-1" d="M2610.96,1435.12l-71.47,101.67c-16.49,23.46-35.9,35.98-55.76,35.98h-135.7l71.48-101.67c16.49-23.45,35.9-35.98,55.76-35.98h135.69Z"/><path class="cls-1" d="M3239.34,1113.44c52.42,9.72,95.38,33.27,128.88,70.63,33.49,37.39,50.24,84.71,50.24,141.98,0,33.01-6.07,64.07-18.2,93.2-12.15,29.12-28.9,54.86-50.24,77.18-21.36,22.34-46.37,40.27-75,53.88-28.65,13.59-59.48,20.87-92.47,21.84h-349.5v-881.03h281.05c32.99,1.96,63.82,9.72,92.47,23.3,28.62,13.61,53.63,31.56,74.99,53.88,21.34,22.34,38.09,48.06,50.24,77.18,12.13,29.12,18.2,60.2,18.2,93.2,0,43.69-9.97,79.87-29.85,108.49-19.91,28.65-46.85,50.74-80.82,66.26ZM2958.28,1061.01h144.17c33.97,0,63.1-11.88,87.37-35.68,24.26-23.78,36.41-52.65,36.41-86.65,0-16.5-3.16-32.26-9.47-47.33-6.32-15.04-15.06-28.15-26.21-39.32-11.17-11.15-24.28-19.89-39.32-26.22-15.06-6.3-31.31-9.46-48.78-9.46h-144.17v244.65ZM3170.9,1446.92c17.48,0,33.72-3.14,48.78-9.47,15.04-6.3,28.15-15.04,39.32-26.21,11.15-11.15,19.89-24.03,26.21-38.59,6.3-14.56,9.47-30.08,9.47-46.6,0-17.48-3.17-34.45-9.47-50.97-6.33-16.5-15.06-31.31-26.21-44.41-11.17-13.11-24.28-23.78-39.32-32.04-15.06-8.24-31.31-12.38-48.78-12.38h-212.61v260.67h212.61Z"/><path class="cls-1" d="M3757.76,1457.11c32.99,0,62.12-8.97,87.37-26.94,25.23-17.95,44.64-42.96,58.25-74.99l115.04,48.06c-23.3,56.32-58.02,100.25-104.12,131.79-46.12,31.54-98.3,47.33-156.55,47.33-40.77,0-79.14-9.46-115.04-28.4-35.93-18.93-67.96-45.37-96.11-79.36-25.26-32.99-44.91-70.13-58.98-111.4-14.09-41.25-21.12-84.69-21.12-130.33s7.03-89.06,21.12-130.33c14.06-41.25,33.72-78.39,58.98-111.4,28.15-33.97,60.18-60.44,96.11-79.37,35.91-18.93,74.27-28.4,115.04-28.4,31.06,0,61.64,5.6,91.74,16.75,30.08,11.17,57.75,26.94,83.01,47.33,25.23,20.38,47.33,45.39,66.26,74.99,18.93,29.63,33.24,62.87,42.96,99.76,4.85,25.26,5.32,49.51,1.45,72.81-3.89,20.38-11.9,41.27-24.03,62.62-12.15,21.36-32.77,39.32-61.89,53.88-27.19,13.61-54.61,18.7-82.28,15.29-27.67-3.39-54.38-9.69-80.09-18.93-25.73-9.22-49.51-18.93-71.35-29.12-21.84-10.19-41.51-15.29-58.98-15.29-16.52,0-28.39,4.87-35.67,14.56-7.28,9.72-10.92,21.62-10.92,35.67s3.64,29.63,10.92,46.6c7.28,17,16.97,32.54,29.12,46.6,12.12,14.08,26.69,25.98,43.69,35.68,16.97,9.72,35.67,14.56,56.06,14.56ZM3591.75,1243.04c3.87-18.43,12.86-34.95,26.94-49.51,14.06-14.56,35.17-21.84,63.35-21.84,16.5,0,34.7,2.69,54.61,8.01,19.89,5.35,39.55,10.69,58.98,16.02,19.41,5.35,37.61,9.72,54.61,13.11,16.98,3.41,31.31,3.64,42.96.73,13.58-2.91,22.57-9.22,26.94-18.93,4.37-9.69,4.6-21.34.73-34.95-12.63-46.6-33.74-82.75-63.35-108.49-29.62-25.71-62.87-38.59-99.75-38.59-27.19,0-50.97,6.8-71.36,20.38-20.38,13.61-37.63,31.31-51.7,53.15-14.08,21.84-24.76,46.85-32.04,74.99-7.28,28.17-10.92,56.8-10.92,85.92Z"/><path class="cls-1" d="M4273.25,961.99c19.41-25.24,42.46-44.17,69.17-56.8,26.69-12.6,54.61-19.66,83.73-21.12,29.12-1.45,58.48,2.44,88.11,11.65,29.6,9.24,56.54,23.55,80.82,42.96l-91.74,91.75c-25.26-15.52-51.47-23.3-78.64-23.3h-2.91c-41.75.98-76.95,14.81-105.58,41.51-28.65,26.71-42.96,63.35-42.96,109.95v413.57h-125.24v-678.61h125.24v68.44Z"/><path class="cls-1" d="M5227.1,1588.17c15.52,22.32,27.42,47.08,35.68,74.27,8.24,27.17,12.38,55.34,12.38,84.46h-125.24c0-36.91-8.99-66.99-26.94-90.28-17.98-23.3-37.14-38.36-57.52-45.15-42.73-13.61-82.05,3.87-117.96,52.43-25.26,32.99-55.11,58.48-89.56,76.45-34.47,17.95-70.15,26.94-107.04,26.94-22.34,0-46.12-3.89-71.35-11.65-43.69-14.56-78.16-39.57-103.4-75-25.26-35.45-37.86-75.97-37.86-121.59,0-41.73,8.74-79.11,26.21-112.13,17.48-32.99,43.19-59.7,77.18-80.09.96-.95,1.69-1.45,2.19-1.45s1.21-.48,2.19-1.46c-42.73-51.44-64.08-112.61-64.08-183.49,0-40.77,7.76-79.37,23.3-115.77,15.52-36.41,36.63-67.94,63.35-94.66,26.69-26.69,58.25-47.81,94.66-63.35,36.41-15.52,74.99-23.3,115.77-23.3s79.11,7.78,115.04,23.3c35.91,15.54,67.47,36.65,94.66,63.35,27.17,26.71,48.53,58.25,64.08,94.66,15.52,36.41,23.3,75,23.3,115.77s-7.78,79.14-23.3,115.04c-15.54,35.93-36.91,67.49-64.08,94.66-27.19,27.19-58.75,48.56-94.66,64.08-35.93,15.54-74.27,23.3-115.04,23.3-36.91,0-72.81-6.78-107.76-20.38-5.83-1.93-15.29-1.69-28.4.73-13.1,2.43-26.46,8.51-40.05,18.2-26.21,17.48-39.32,45.14-39.32,83.01,0,13.58,2.19,24.98,6.55,34.22,4.37,9.22,9.47,16.75,15.29,22.57,5.83,5.83,11.88,10.42,18.2,13.84,6.31,3.39,11.4,5.57,15.29,6.55,16.5,5.83,37.13,6.05,61.89.73,24.75-5.35,47.33-21.62,67.71-48.78,33.97-45.65,73.54-76.68,118.69-93.2,45.14-16.5,91.02-16.97,137.62-1.45,50.46,16.52,91.24,48.06,122.32,94.66ZM4879.06,1007.13c-24.28,0-46.85,4.62-67.72,13.84-20.89,9.24-39.09,21.62-54.61,37.13s-27.92,33.74-37.13,54.61c-9.24,20.89-13.84,43.46-13.84,67.72,0,35.93,9.94,67.96,29.85,96.11,19.89,28.17,45.37,49.03,76.45,62.62,5.83,1.96,9.69,3.41,11.65,4.37,17.48,5.82,35.91,8.74,55.34,8.74,23.3,0,45.37-4.6,66.26-13.84,20.86-9.22,39.07-21.59,54.61-37.13,15.52-15.52,27.89-33.72,37.13-54.61,9.22-20.86,13.84-42.96,13.84-66.26s-4.62-46.83-13.84-67.72c-9.24-20.86-21.62-39.07-37.13-54.61-15.54-15.52-33.74-27.89-54.61-37.13-20.89-9.22-42.96-13.84-66.26-13.84Z"/><path class="cls-1" d="M5528.54,1457.11c32.99,0,62.12-8.97,87.37-26.94,25.23-17.95,44.64-42.96,58.25-74.99l115.04,48.06c-23.3,56.32-58.02,100.25-104.12,131.79-46.12,31.54-98.3,47.33-156.55,47.33-40.77,0-79.14-9.46-115.04-28.4-35.93-18.93-67.96-45.37-96.11-79.36-25.26-32.99-44.91-70.13-58.98-111.4-14.09-41.25-21.12-84.69-21.12-130.33s7.03-89.06,21.12-130.33c14.06-41.25,33.72-78.39,58.98-111.4,28.15-33.97,60.18-60.44,96.11-79.37,35.91-18.93,74.27-28.4,115.04-28.4,31.06,0,61.64,5.6,91.74,16.75,30.08,11.17,57.75,26.94,83.01,47.33,25.23,20.38,47.33,45.39,66.26,74.99,18.93,29.63,33.24,62.87,42.96,99.76,4.85,25.26,5.32,49.51,1.45,72.81-3.89,20.38-11.9,41.27-24.03,62.62-12.15,21.36-32.77,39.32-61.89,53.88-27.19,13.61-54.61,18.7-82.28,15.29-27.67-3.39-54.38-9.69-80.09-18.93-25.73-9.22-49.51-18.93-71.35-29.12s-41.51-15.29-58.98-15.29c-16.52,0-28.39,4.87-35.67,14.56-7.28,9.72-10.92,21.62-10.92,35.67s3.64,29.63,10.92,46.6c7.28,17,16.97,32.54,29.12,46.6,12.12,14.08,26.69,25.98,43.69,35.68,16.97,9.72,35.67,14.56,56.06,14.56ZM5362.52,1243.04c3.87-18.43,12.86-34.95,26.94-49.51,14.06-14.56,35.17-21.84,63.35-21.84,16.5,0,34.7,2.69,54.61,8.01,19.89,5.35,39.55,10.69,58.98,16.02,19.41,5.35,37.61,9.72,54.61,13.11,16.98,3.41,31.31,3.64,42.96.73,13.58-2.91,22.57-9.22,26.94-18.93,4.37-9.69,4.6-21.34.73-34.95-12.63-46.6-33.74-82.75-63.35-108.49-29.62-25.71-62.87-38.59-99.75-38.59-27.19,0-50.97,6.8-71.36,20.38-20.38,13.61-37.63,31.31-51.7,53.15-14.08,21.84-24.76,46.85-32.04,74.99-7.28,28.17-10.92,56.8-10.92,85.92Z"/><path class="cls-1" d="M6044.03,973.64c20.39-30.08,44.89-52.42,73.54-66.99,28.62-14.56,58.73-22.07,90.28-22.58,31.54-.48,62.85,5.1,93.93,16.75,31.06,11.65,58.98,29.38,83.73,53.15,24.76,23.8,44.89,52.92,60.44,87.37,15.52,34.47,23.3,74.04,23.3,118.68v412.12h-125.24v-413.57c0-20.39-3.89-39.8-11.65-58.25-7.79-18.43-18.2-34.45-31.31-48.06-13.11-13.59-28.9-24.51-47.33-32.77-18.45-8.24-37.86-12.38-58.25-12.38h-2.91c-41.75.98-76.95,14.81-105.58,41.51-28.65,26.71-42.96,63.35-42.96,109.95v413.57h-125.24v-678.61h125.24v80.09Z"/><path class="cls-1" d="M893.73,693v881.03h-125.24v-881.03h125.24Z"/><path class="cls-1" d="M1620.38,818.23h-250.47v755.79h-123.78v-755.79h-250.47v-125.24h624.73v125.24Z"/></svg>