<?xml version="1.0" encoding="UTF-8"?><svg id="Layer_1" xmlns="http://www.w3.org/2000/svg" xmlns:xlink="http://www.w3.org/1999/xlink" viewBox="0 0 2976.4 2976.4"><defs><style>.cls-1{fill:#000e1e;}.cls-2{fill:url(#New_Gradient_Swatch);}.cls-3{fill:none;stroke:#000e1e;stroke-linecap:round;stroke-miterlimit:10;stroke-width:14.08px;}</style><linearGradient id="New_Gradient_Swatch" x1="1133.72" y1="1524.47" x2="1774.52" y2="1524.47" gradientUnits="userSpaceOnUse"><stop offset="0" stop-color="#000e1e"/><stop offset=".11" stop-color="#031222"/><stop offset=".25" stop-color="#0d212f"/><stop offset=".39" stop-color="#1e3845"/><stop offset=".54" stop-color="#355a63"/><stop offset=".7" stop-color="#53848a"/><stop offset=".86" stop-color="#77b8b8"/><stop offset="1" stop-color="#9cede9"/></linearGradient></defs><path class="cls-2" d="M1774.52,1862.44h-135.25c-19.79,0-39.14-12.49-55.58-35.87l-449.96-640.07h135.25c19.79,0,39.14,12.49,55.58,35.87l449.96,640.07Z"/><path class="cls-1" d="M1650.99,1362.22l-326.43,464.35c-16.44,23.38-35.78,35.86-55.58,35.86h-135.26l326.43-464.35c16.44-23.38,35.78-35.87,55.58-35.87h135.25Z"/><path class="cls-1" d="M1774.52,1186.5l-71.24,101.34c-16.44,23.38-35.78,35.87-55.58,35.87h-135.26l71.25-101.35c16.43-23.38,35.78-35.86,55.57-35.86h135.26Z"/><path class="cls-1" d="M1899.73,1725.23l-71.24,101.34c-16.44,23.38-35.78,35.87-55.58,35.87h-135.26l71.25-101.35c16.43-23.38,35.78-35.86,55.57-35.86h135.26Z"/><path class="cls-1" d="M1062.01,842.5l80.17,122.85-17.46,11.4-80.17-122.85,17.46-11.39Z"/><path class="cls-1" d="M1184.4,799.83l-37.2,18.85,56.87,112.26-18.38,9.31-56.87-112.26-37.2,18.84-9.42-18.6,37.2-18.84,18.39-9.31,37.2-18.85,9.42,18.6Z"/><path class="cls-1" d="M1259.51,847.06l53.11,40.94-20.31,7.3-37.64-28.72-10.5,46.03-20.31,7.3,14.89-65.39-53.11-40.94,20.31-7.3,37.41,28.81,10.73-46.11,20.31-7.3-14.89,65.39Z"/><path class="cls-1" d="M1369.64,798.82c8.88-.05,16.64,2.46,23.28,7.52,6.65,5.07,10.86,12.28,12.65,21.65,1.03,5.4,1.01,10.67-.07,15.81-1.08,5.14-3.01,9.88-5.81,14.19-2.8,4.32-6.32,8.04-10.58,11.16-4.26,3.12-9.08,5.27-14.44,6.46l-1.91.36-34.77,6.64-20.48,3.91-3.91-20.48-8.14-42.63-3.91-20.48-11.56-60.49,20.48-3.91,23.58-4.5.24-.05,1.67-.32c5.46-.71,10.74-.4,15.85.92,5.11,1.33,9.76,3.49,13.95,6.47,4.19,2.99,7.73,6.67,10.63,11.05,2.89,4.38,4.86,9.28,5.89,14.67,1.36,7.15.86,13.37-1.49,18.68-2.36,5.31-6.08,9.76-11.15,13.36ZM1322.04,799.03l23.58-4.5c5.56-1.06,9.95-3.91,13.17-8.57,3.22-4.65,4.31-9.75,3.25-15.31-.52-2.7-1.53-5.18-3.03-7.44-1.5-2.26-3.34-4.13-5.52-5.61-2.18-1.48-4.59-2.49-7.25-3.06-2.66-.56-5.42-.57-8.27-.02l-23.58,4.5,7.64,40.01ZM1368.87,855.5c2.86-.55,5.42-1.57,7.68-3.07,2.26-1.5,4.13-3.34,5.61-5.51,1.48-2.17,2.5-4.55,3.08-7.13.58-2.58.61-5.21.09-7.92-.55-2.86-1.59-5.54-3.14-8.04-1.55-2.5-3.44-4.65-5.67-6.44-2.24-1.79-4.71-3.13-7.43-4.01-2.72-.88-5.51-1.05-8.37-.5l-34.77,6.64,8.14,42.63,34.77-6.64Z"/><path class="cls-1" d="M1457.94,847.34c5.49-.25,10.27-1.95,14.33-5.13,4.06-3.17,7.11-7.48,9.13-12.91l19.49,7.14c-3.46,9.54-8.9,17.11-16.34,22.7-7.44,5.59-16,8.6-25.69,9.04-6.78.3-13.23-.98-19.35-3.87-6.12-2.88-11.64-7.04-16.58-12.48-4.45-5.3-7.99-11.33-10.64-18.09-2.65-6.76-4.14-13.93-4.48-21.52-.34-7.59.51-14.87,2.54-21.84,2.03-6.97,5.02-13.29,8.98-18.97,4.43-5.86,9.56-10.5,15.39-13.92,5.83-3.42,12.14-5.28,18.92-5.58,5.17-.23,10.29.47,15.38,2.1,5.09,1.64,9.81,4.05,14.16,7.25,4.35,3.2,8.21,7.2,11.58,11.98,3.37,4.79,6,10.21,7.89,16.27.99,4.16,1.25,8.2.78,12.1-.49,3.42-1.67,6.95-3.53,10.6-1.86,3.64-5.16,6.78-9.89,9.42-4.42,2.47-8.94,3.52-13.57,3.16-4.63-.36-9.12-1.21-13.46-2.55-4.35-1.34-8.38-2.78-12.09-4.31-3.71-1.53-7.02-2.23-9.92-2.1-2.75.12-4.69,1.02-5.83,2.69-1.14,1.67-1.66,3.68-1.55,6.02.1,2.34.83,4.9,2.16,7.67,1.34,2.77,3.07,5.29,5.19,7.53,2.12,2.25,4.63,4.12,7.53,5.61,2.9,1.49,6.04,2.16,9.43,2ZM1428.74,812.97c.51-3.09,1.88-5.91,4.11-8.44,2.23-2.53,5.69-3.9,10.37-4.1,2.74-.12,5.79.19,9.14.92,3.35.74,6.66,1.48,9.93,2.23,3.27.74,6.33,1.34,9.18,1.77,2.85.44,5.23.37,7.15-.2,2.24-.59,3.69-1.7,4.34-3.35.65-1.64.61-3.59-.14-5.82-2.45-7.66-6.23-13.51-11.34-17.57-5.12-4.06-10.75-5.95-16.88-5.68-4.52.2-8.43,1.51-11.72,3.92-3.29,2.42-6.03,5.49-8.2,9.23-2.18,3.74-3.77,7.98-4.77,12.71-1,4.74-1.39,9.53-1.18,14.37Z"/><path class="cls-1" d="M1543.44,766.05c3.61-3.88,7.73-6.66,12.35-8.33,4.62-1.67,9.36-2.4,14.21-2.19,4.85.21,9.66,1.32,14.42,3.31,4.76,1.99,9,4.79,12.72,8.39l-16.64,13.77c-3.94-2.97-8.17-4.67-12.67-5.09l-.24-.02-.24-.02c-6.94-.49-12.99,1.25-18.15,5.23-5.17,3.98-8.11,9.83-8.84,17.55l-.02.24-6.45,68.31-20.76-1.96,10.62-112.49,20.76,1.96-1.07,11.34Z"/><path class="cls-1" d="M1681.5,894.62c1.78,4.16,2.88,8.6,3.31,13.31.43,4.71.15,9.44-.83,14.19l-20.42-4.22c1.25-6.02.79-11.23-1.35-15.63-2.14-4.41-4.76-7.51-7.86-9.3-6.51-3.66-13.51-2.14-21,4.57-5.23,4.53-10.96,7.68-17.18,9.44-6.23,1.76-12.35,2.03-18.36.78-3.64-.75-7.39-2.19-11.24-4.31-6.63-3.85-11.41-9.09-14.33-15.72-2.92-6.63-3.61-13.67-2.07-21.1,1.41-6.8,4.09-12.6,8.06-17.4,3.96-4.79,9.05-8.28,15.28-10.46.19-.12.32-.18.41-.16.08.02.21-.04.41-.16-5.23-9.83-6.65-20.52-4.26-32.08,1.37-6.65,3.94-12.68,7.7-18.09,3.76-5.41,8.27-9.84,13.52-13.3,5.25-3.45,11.11-5.83,17.57-7.14,6.46-1.3,13.01-1.27,19.66.11,6.65,1.38,12.64,3.94,17.97,7.68,5.33,3.75,9.76,8.25,13.3,13.52,3.53,5.27,5.95,11.14,7.26,17.6,1.3,6.46,1.27,13.01-.11,19.66-1.38,6.65-3.94,12.64-7.68,17.97-3.75,5.33-8.29,9.76-13.64,13.27-5.35,3.52-11.22,5.94-17.59,7.26-6.38,1.32-12.89,1.29-19.54-.08-6.02-1.25-11.64-3.56-16.88-6.96-.88-.51-2.44-.79-4.65-.84-2.22-.05-4.6.49-7.14,1.62-4.86,1.96-7.93,6.03-9.21,12.21-.46,2.21-.49,4.15-.09,5.8.4,1.65.98,3.05,1.73,4.2s1.59,2.1,2.5,2.87c.91.76,1.67,1.29,2.27,1.58,2.49,1.51,5.85,2.24,10.07,2.21,4.22-.04,8.45-1.93,12.69-5.67,7.08-6.3,14.58-10.02,22.49-11.19,7.92-1.17,15.41.3,22.49,4.41,7.67,4.39,13.26,10.91,16.75,19.56ZM1644.35,788.14c-3.96-.82-7.79-.83-11.51-.03-3.72.8-7.1,2.21-10.16,4.21-3.06,2.01-5.69,4.56-7.9,7.65-2.21,3.09-3.72,6.62-4.54,10.57-1.21,5.86-.67,11.42,1.63,16.68,2.29,5.26,5.74,9.52,10.35,12.79.88.52,1.47.88,1.75,1.11,2.65,1.54,5.56,2.64,8.73,3.29,3.8.79,7.55.78,11.27-.02,3.71-.8,7.1-2.2,10.16-4.21,3.05-2.01,5.69-4.56,7.9-7.65,2.21-3.09,3.7-6.54,4.49-10.34.82-3.96.83-7.79.03-11.51-.8-3.71-2.21-7.1-4.21-10.16-2.01-3.05-4.56-5.69-7.65-7.9-3.09-2.21-6.54-3.7-10.34-4.49Z"/><path class="cls-1" d="M1724.17,889.44c5.14,1.93,10.21,2.25,15.19.93,4.99-1.32,9.48-4.08,13.48-8.27l15.11,14.24c-6.93,7.41-14.92,12.22-23.96,14.43-9.04,2.21-18.09,1.61-27.17-1.81-6.35-2.39-11.78-6.12-16.26-11.17-4.49-5.06-7.93-11.06-10.32-18.01-2-6.62-2.89-13.56-2.66-20.82.23-7.26,1.68-14.44,4.36-21.55,2.68-7.11,6.32-13.46,10.94-19.07,4.61-5.6,9.85-10.24,15.73-13.9,6.38-3.64,12.92-5.89,19.63-6.73,6.71-.84,13.24-.07,19.59,2.32,4.84,1.82,9.28,4.49,13.31,7.99,4.03,3.51,7.42,7.59,10.16,12.24,2.74,4.66,4.71,9.85,5.93,15.57,1.21,5.73,1.49,11.75.84,18.07-.73,4.22-2.08,8.03-4.04,11.43-1.8,2.95-4.28,5.73-7.42,8.35-3.15,2.62-7.41,4.2-12.8,4.77-5.04.53-9.61-.29-13.72-2.44-4.11-2.15-7.91-4.7-11.37-7.65-3.47-2.94-6.6-5.85-9.41-8.72-2.81-2.87-5.57-4.82-8.29-5.84-2.57-.97-4.71-.91-6.41.18-1.7,1.09-2.97,2.73-3.8,4.92-.83,2.2-1.17,4.83-1.03,7.9.14,3.08.74,6.07,1.81,8.97,1.06,2.91,2.63,5.61,4.71,8.12,2.07,2.51,4.7,4.36,7.88,5.56ZM1710.86,846.34c1.68-2.64,4.05-4.69,7.1-6.14,3.04-1.44,6.76-1.34,11.15.31,2.57.97,5.25,2.45,8.04,4.45,2.78,2,5.54,3.99,8.25,5.96,2.71,1.97,5.29,3.72,7.74,5.25,2.44,1.53,4.66,2.4,6.65,2.63,2.29.34,4.06-.11,5.31-1.37,1.25-1.25,1.97-3.06,2.16-5.4.77-8-.4-14.87-3.51-20.62-3.11-5.74-7.53-9.7-13.28-11.86-4.24-1.59-8.34-1.93-12.31-1.01-3.98.92-7.7,2.67-11.17,5.25-3.48,2.58-6.6,5.85-9.39,9.81-2.79,3.96-5.03,8.21-6.74,12.75Z"/><path class="cls-1" d="M1834.18,850.13c5.42-2.7,10.8-3.93,16.14-3.7,5.34.23,10.32,1.6,14.94,4.11,4.61,2.51,8.7,5.88,12.25,10.11,3.55,4.23,6.15,9.08,7.8,14.56,1.64,5.48,2.18,11.35,1.62,17.62-.57,6.27-2.68,12.64-6.33,19.12l-33.7,59.77-18.16-10.24,33.82-59.98c1.67-2.96,2.69-6.09,3.07-9.4.38-3.31.18-6.49-.61-9.53-.79-3.04-2.19-5.92-4.18-8.62-2-2.7-4.48-4.89-7.44-6.56l-.21-.12-.21-.12c-6.14-3.27-12.37-4.15-18.71-2.61-6.34,1.53-11.41,5.67-15.22,12.43l-.12.21-33.7,59.77-18.16-10.24,55.5-98.42,18.16,10.24-6.55,11.62Z"/><path class="cls-1" d="M861.29,1900.21l-14.21-3.01-16.09,9.99-9.08-14.63,63.62-39.49,9.08,14.63-29.72,18.45,47.21,9.73,10.15,16.36-44.71-8.75-17.94,49.79-10.66-17.18,12.36-35.87Z"/><path class="cls-1" d="M922.32,1980.65l-26.08,19.96-9.49-12.4,5.69-4.36c-6.05.72-11.9-2.34-17.03-9.05-8.19-10.7-7.12-21.62.78-27.67,8.07-6.18,18.03-4.78,28.7,9.15l8.06,10.53c5.69-4.36,6.4-10.29.94-17.42-3.71-4.84-9.16-8.62-14.32-9.92l5.62-11.84c7.4,2.28,15.01,8.18,20.61,15.48,10.66,13.93,10.38,26.94-3.46,37.54ZM900.54,1976.31l4.67-3.58-6.96-9.09c-4.75-6.2-8.54-6.4-11.59-4.06-3.31,2.54-3.38,7.03.2,11.7,3.38,4.42,8.34,6.68,13.68,5.02Z"/><path class="cls-1" d="M975.37,2001.89l-11.48,10.27c-.85-1.11-1.48-1.98-2.34-2.93-6.13-6.86-13.95-8.05-22.16-.7l-20.25,18.12-11.13-12.43,42.89-38.38,10.63,11.88-5.66,5.06c6.86-.68,13.57,2.5,19.49,9.11Z"/><path class="cls-1" d="M1006.88,2033.12l-10.81,10.97c-.92-1.05-1.6-1.88-2.52-2.78-6.55-6.46-14.42-7.16-22.16.69l-19.08,19.35-11.88-11.72,40.41-40.98,11.35,11.19-5.33,5.41c6.8-1.11,13.7,1.64,20.03,7.88Z"/><path class="cls-1" d="M1012.99,2039.57l12.49,11.07-38.18,43.06-12.49-11.07,38.18-43.06ZM1022.96,2025.25c3.48-3.92,9.29-4.2,13.94-.08,4.64,4.12,5.21,9.77,1.8,13.61-3.69,4.16-9.51,4.43-14.15.32s-5.07-9.92-1.59-13.85Z"/><path class="cls-1" d="M1059.92,2120.89l-34.47-26.6c-3.11,6.65-.96,13.85,5.98,19.21,4.83,3.73,9.41,4.96,14.83,4.42l1.15,13.05c-7.96,1.56-16.27-.8-24.49-7.14-15.75-12.16-18.35-29.97-7.9-43.52,10.52-13.63,28.52-15.42,42.41-4.7,13.38,10.33,16.79,27.28,5.48,41.93-.78,1.02-2.06,2.33-3,3.36ZM1031.23,2086.45l22.44,17.32c3.51-6.48,2.07-13.54-3.86-18.11-6.01-4.64-13.14-4.33-18.58.79Z"/><path class="cls-1" d="M1119.12,2118.49l-8.43,12.89c-1.1-.85-1.94-1.53-3.02-2.23-7.7-5.04-15.55-4.17-21.58,5.05l-14.88,22.74-13.96-9.14,31.51-48.16,13.34,8.73-4.16,6.35c6.45-2.43,13.76-1.1,21.18,3.76Z"/><path class="cls-1" d="M1158.31,2179.8l-38.16-20.97c-2.05,7.05,1.19,13.83,8.87,18.06,5.34,2.94,10.06,3.46,15.34,2.08l3.14,12.71c-7.62,2.77-16.2,1.71-25.3-3.28-17.44-9.58-22.75-26.79-14.51-41.79,8.3-15.09,25.8-19.63,41.18-11.18,14.81,8.14,20.79,24.37,11.87,40.58-.62,1.12-1.68,2.62-2.45,3.78ZM1124.65,2150.19l24.84,13.66c2.47-6.94-.04-13.69-6.6-17.3-6.66-3.66-13.65-2.25-18.24,3.65Z"/><path class="cls-1" d="M1245.49,2157.63l-31.26,72.96-14.65-6.28,2.61-6.1c-5.81,2.98-12.39,2.84-19.47-.19-14.95-6.4-21.9-21.95-14.78-38.57,7.12-16.62,23.17-22.31,38.12-15.9,6.49,2.78,11.11,7.21,13.09,13.17l11-25.66,15.34,6.57ZM1210.52,2197.69c3.92-9.14.38-17.18-7.19-20.42-7.67-3.29-15.93-.31-19.85,8.84s-.38,17.18,7.29,20.46c7.57,3.24,15.83.26,19.75-8.88Z"/><path class="cls-1" d="M1290.62,2221.18l-9.95,31.3-14.88-4.73,2.17-6.83c-4.54,4.06-11.1,4.89-19.15,2.33-12.84-4.08-18.22-13.65-15.21-23.13,3.08-9.68,12.05-14.24,28.77-8.93l12.64,4.02c2.17-6.83-.64-12.1-9.21-14.83-5.81-1.85-12.44-1.82-17.42.07l-2.18-12.93c7.38-2.37,16.99-1.89,25.76.89,16.72,5.31,23.94,16.14,18.66,32.76ZM1270.27,2230.09l1.78-5.61-10.91-3.47c-7.44-2.37-10.66-.36-11.83,3.31-1.26,3.98,1.26,7.7,6.86,9.48,5.3,1.69,10.67.7,14.09-3.71Z"/><path class="cls-1" d="M1369.46,2213.7l-9.96,46.87c-4.45,20.93-17.79,28.15-38.09,23.84-10.67-2.27-20.47-7.08-25.98-13.61l8.98-10.34c3.99,4.89,11.3,9.07,18.52,10.61,11.51,2.45,17.64-1.72,19.8-11.87l.51-2.41c-5.29,3.8-11.95,4.79-19.28,3.23-15.59-3.31-25.86-16.76-22.37-33.18s18.34-24.54,33.93-21.22c7.85,1.67,13.78,5.66,16.91,12.01l1.53-7.22,15.49,3.29ZM1347.74,2236.65c1.76-8.27-3.24-15.12-11.82-16.95-8.58-1.82-16.04,2.39-17.79,10.65-1.76,8.27,3.34,15.15,11.92,16.97,8.58,1.82,15.93-2.41,17.69-10.68Z"/><path class="cls-1" d="M1430.61,2222l14.7,1.29-1.12,12.79-14.28-1.26-3.8,43.26-16.62-1.46,3.8-43.26-8.84-.78,1.12-12.79,8.84.78.22-2.56c1.13-12.89,9.76-20.62,24.04-19.36,4.69.41,9.5,1.8,12.41,4.21l-5.43,11.66c-1.7-1.44-3.98-2.39-6.54-2.61-4.9-.43-7.8,2-8.3,7.65l-.21,2.45Z"/><path class="cls-1" d="M1446.84,2251.2c.28-17.33,13.85-29.41,32.14-29.11,18.29.3,31.35,12.81,31.07,30.14-.28,17.33-13.74,29.41-32.03,29.11-18.29-.3-31.46-12.81-31.18-30.14ZM1493.15,2251.95c.16-9.95-6.05-16.04-14.39-16.17-8.34-.13-14.86,5.75-15.02,15.7-.16,9.95,6.16,16.04,14.5,16.18,8.34.14,14.75-5.75,14.91-15.7Z"/><path class="cls-1" d="M1555.6,2219.26l1.01,15.37c-1.39-.02-2.47-.05-3.75.03-9.18.6-14.93,6.02-14.21,17.01l1.78,27.11-16.65,1.09-3.78-57.42,15.9-1.05.5,7.58c3.69-5.82,10.33-9.15,19.19-9.73Z"/><path class="cls-1" d="M1592.39,2197.91l17.1-2.81,12.14,73.89-17.1,2.81-12.14-73.89Z"/><path class="cls-1" d="M1642.81,2202.82l-23.31,5.53-3.26-13.74,63.49-15.05,3.26,13.74-23.31,5.53,14.02,59.12-16.86,4-14.01-59.12Z"/><path class="cls-1" d="M1690.48,2215.44l28.9-9,3.97,12.77-28.9,9-3.97-12.77Z"/><path class="cls-1" d="M1738.09,2233.6l.86-13.18c5.99,1.24,14.08.51,20.66-2.04,7.18-2.78,9.14-5.72,7.98-8.71-3.4-8.78-32.34,12.77-40.65-8.68-3.94-10.17,2.45-20.91,18.11-26.98,7.38-2.86,16.22-4.34,22.46-3.32l-.89,13.08c-6.45-.94-12.12.11-17,2-6.98,2.71-9.12,6.06-8.04,8.85,3.56,9.18,32.53-12.27,40.73,8.88,3.87,9.97-2.66,20.65-18.72,26.88-9.08,3.52-19.22,4.58-25.48,3.22Z"/><path class="cls-1" d="M1832.73,2195.94c-2.04,3.69-6.09,6.9-10.73,9.09-12.29,5.8-22.41,2.9-28.26-9.49l-10.1-21.38-8.03,3.79-5.48-11.61,8.03-3.79-5.98-12.67,15.09-7.13,5.98,12.67,12.96-6.12,5.48,11.61-12.96,6.12,10,21.18c2.1,4.45,5.66,5.73,9.72,3.81,2.22-1.05,4.13-2.78,5.18-4.81l9.09,8.72Z"/><path class="cls-1" d="M1866.56,2114.06l28.8,49.83-13.71,7.92-3.43-5.93c-1.28,6.55-5.5,12.07-11.61,15.61-12.5,7.23-25.37,5.27-34.26-10.1l-16.27-28.16,14.45-8.35,15.04,26.03c4.82,8.34,10.66,9.9,17.05,6.21,6.67-3.85,9.02-10.9,3.72-20.07l-14.24-24.64,14.45-8.35Z"/><path class="cls-1" d="M1912.66,2054.72l46.46,64.35-12.92,9.33-3.88-5.38c-.44,6.52-3.94,12.08-10.19,16.59-13.18,9.52-30.09,7.48-40.68-7.18-10.58-14.66-7.2-31.35,5.98-40.87,5.72-4.13,11.9-5.82,18.04-4.44l-16.34-22.64,13.53-9.77ZM1929.01,2105.32c-5.82-8.07-14.53-9.17-21.21-4.34-6.76,4.88-8.46,13.5-2.64,21.56,5.82,8.07,14.53,9.17,21.3,4.28,6.68-4.82,8.38-13.44,2.55-21.5Z"/><path class="cls-1" d="M2000.07,2051.94l-32.67,28.78c5.94,4.32,13.42,3.58,20-2.22,4.57-4.03,6.66-8.29,7.16-13.72l13.03,1.36c.02,8.11-3.88,15.82-11.67,22.68-14.93,13.15-32.91,12.32-44.23-.52-11.38-12.92-9.71-30.93,3.45-42.53,12.68-11.17,29.97-11.29,42.2,2.59.85.96,1.89,2.47,2.73,3.58ZM1960.81,2073.56l21.27-18.74c-5.69-4.68-12.9-4.6-18.51.34-5.7,5.02-6.75,12.08-2.75,18.39Z"/><path class="cls-1" d="M2042.92,1993.97l24.06,22.5-11.4,12.19-22.19-20.75c-6.8-6.36-12.84-6.15-17.88-.76-5.48,5.86-5.83,13.44,1.9,20.67l20.78,19.43-11.4,12.19-42.03-39.31,10.89-11.64,4.92,4.6c-.53-6.64,2.12-13.39,7.46-19.09,9.28-9.92,22.07-12.02,34.89-.03Z"/><path class="cls-1" d="M2099.27,1971.49c-.2,4.21-2.39,8.88-5.58,12.91-8.43,10.65-18.8,12.54-29.53,4.05l-18.54-14.67-5.51,6.96-10.07-7.97,5.51-6.96-10.99-8.7,10.36-13.08,10.99,8.7,8.9-11.24,10.07,7.97-8.9,11.24,18.37,14.54c3.86,3.05,7.62,2.62,10.4-.91,1.53-1.93,2.47-4.32,2.5-6.61l12.02,3.78Z"/><path class="cls-1" d="M2119.17,1904.97l-24.36,36.08c6.84,2.68,13.88.08,18.79-7.19,3.41-5.05,4.36-9.71,3.47-15.08l12.95-1.97c2.06,7.84.23,16.29-5.58,24.89-11.13,16.49-28.75,20.21-42.93,10.63-14.27-9.64-17.2-27.49-7.38-42.02,9.46-14.01,26.16-18.48,41.5-8.12,1.06.72,2.45,1.91,3.54,2.78ZM2086.62,1935.78l15.86-23.49c-6.69-3.09-13.64-1.21-17.83,5-4.25,6.29-3.49,13.39,1.97,18.5Z"/><path class="cls-1" d="M2113.03,1846.03l13.4,7.6c-.78,1.16-1.4,2.03-2.03,3.15-4.54,8-3.17,15.79,6.41,21.22l23.63,13.4-8.23,14.52-50.06-28.39,7.86-13.86,6.61,3.75c-2.83-6.28-1.97-13.66,2.41-21.38Z"/><path class="cls-3" d="M781.21,1699.57c-15.2-58.68-23.29-120.23-23.29-183.66,0-190.66,73.05-364.25,192.73-494.3"/><path class="cls-3" d="M2025.75,1021.62c119.68,130.05,192.73,303.64,192.73,494.3,0,63.43-8.09,124.98-23.31,183.66"/></svg>