<svg width="1512" height="467" viewBox="0 0 1512 467" fill="none" xmlns="http://www.w3.org/2000/svg">
<g clip-path="url(#clip0_1487_3083)">
<rect x="1511.66" y="525.526" width="1601.92" height="289.612" transform="rotate(-180 1511.66 525.526)" fill="#000E1E" stroke="#000E1E" stroke-width="30"/>
<path d="M1565 169.041L1563.52 169.307L1562.05 169.574L1560.57 169.841L1559.1 170.109L1557.62 170.378L1556.15 170.647L1554.67 170.917L1553.2 171.187L1551.72 171.458L1550.24 171.73L1548.77 172.002L1547.29 172.274L1545.82 172.547L1544.34 172.821L1542.87 173.095L1541.39 173.369L1539.92 173.644L1538.44 173.92L1536.97 174.195L1535.49 174.471L1534.01 174.748L1532.54 175.024L1531.06 175.301L1529.59 175.579L1528.11 175.856L1526.64 176.134L1525.16 176.412L1523.69 176.691L1522.21 176.969L1520.73 177.248L1519.26 177.527L1517.78 177.806L1516.31 178.085L1514.83 178.364L1513.36 178.644L1511.88 178.923L1510.41 179.203L1508.93 179.482L1507.45 179.762L1505.98 180.042L1504.5 180.321L1503.03 180.601L1501.55 180.881L1500.08 181.16L1498.6 181.44L1497.13 181.719L1495.65 181.998L1494.18 182.277L1492.7 182.556L1491.22 182.835L1489.75 183.114L1488.27 183.392L1486.8 183.67L1485.32 183.948L1483.85 184.226L1482.37 184.503L1480.9 184.78L1479.42 185.057L1477.94 185.334L1476.47 185.61L1474.99 185.886L1473.52 186.161L1472.04 186.436L1470.57 186.711L1469.09 186.985L1467.62 187.259L1466.14 187.532L1464.66 187.805L1463.19 188.077L1461.71 188.349L1460.24 188.62L1458.76 188.891L1457.29 189.161L1455.81 189.43L1454.34 189.699L1452.86 189.967L1451.39 190.235L1449.91 190.502L1448.43 190.768L1446.96 191.034L1445.48 191.299L1444.01 191.563L1442.53 191.826L1441.06 192.089L1439.58 192.351L1438.11 192.612L1436.63 192.872L1435.15 193.132L1433.68 193.39L1432.2 193.648L1430.73 193.905L1429.25 194.161L1427.78 194.416L1426.3 194.67L1424.83 194.923L1423.35 195.176L1421.88 195.427L1420.4 195.677L1418.92 195.927L1417.45 196.175L1415.97 196.422L1414.5 196.668L1413.02 196.913L1411.55 197.157L1410.07 197.4L1408.6 197.642L1407.12 197.883L1405.64 198.122L1404.17 198.361L1402.69 198.598L1401.22 198.834L1399.74 199.068L1398.27 199.302L1396.79 199.534L1395.32 199.765L1393.84 199.995L1392.36 200.224L1390.89 200.451L1389.41 200.677L1387.94 200.901L1386.46 201.125L1384.99 201.347L1383.51 201.567L1382.04 201.786L1380.56 202.004L1379.09 202.22L1377.61 202.435L1376.13 202.649L1374.66 202.861L1373.18 203.071L1371.71 203.28L1370.23 203.488L1368.76 203.694L1367.28 203.898L1365.81 204.101L1364.33 204.303L1362.85 204.503L1361.38 204.701L1359.9 204.898L1358.43 205.093L1356.95 205.287L1355.48 205.479L1354 205.669L1352.53 205.857L1351.05 206.044L1349.57 206.23L1348.1 206.413L1346.62 206.595L1345.15 206.776L1343.67 206.954L1342.2 207.131L1340.72 207.306L1339.25 207.479L1337.77 207.651L1336.3 207.821L1334.82 207.989L1333.34 208.155L1331.87 208.319L1330.39 208.482L1328.92 208.643L1327.44 208.802L1325.97 208.959L1324.49 209.114L1323.02 209.267L1321.54 209.419L1320.06 209.568L1318.59 209.716L1317.11 209.862L1315.64 210.006L1314.16 210.148L1312.69 210.288L1311.21 210.426L1309.74 210.562L1308.26 210.696L1306.78 210.828L1305.31 210.958L1303.83 211.087L1302.36 211.213L1300.88 211.337L1299.41 211.459L1297.93 211.58L1296.46 211.698L1294.98 211.814L1293.51 211.928L1292.03 212.04L1290.55 212.15L1289.08 212.258L1287.6 212.364L1286.13 212.468L1284.65 212.57L1283.18 212.669L1281.7 212.767L1280.23 212.862L1278.75 212.956L1277.27 213.047L1275.8 213.136L1274.32 213.223L1272.85 213.308L1271.37 213.391L1269.9 213.471L1268.42 213.55L1266.95 213.626L1265.47 213.7L1263.99 213.772L1262.52 213.842L1261.04 213.91L1259.57 213.975L1258.09 214.039L1256.62 214.1L1255.14 214.159L1253.67 214.215L1252.19 214.27L1250.72 214.322L1249.24 214.373L1247.76 214.421L1246.29 214.466L1244.81 214.51L1243.34 214.551L1241.86 214.59L1240.39 214.627L1238.91 214.662L1237.44 214.694L1235.96 214.725L1234.48 214.753L1233.01 214.779L1231.53 214.802L1230.06 214.823L1228.58 214.843L1227.11 214.859L1225.63 214.874L1224.16 214.887L1222.68 214.897L1221.2 214.905L1219.73 214.91L1218.25 214.914L1216.78 214.915L1215.3 214.914L1213.83 214.911L1212.35 214.905L1210.88 214.898L1209.4 214.888L1207.93 214.875L1206.45 214.861L1204.97 214.844L1203.5 214.825L1202.02 214.804L1200.55 214.781L1199.07 214.755L1197.6 214.728L1196.12 214.697L1194.65 214.665L1193.17 214.631L1191.69 214.594L1190.22 214.555L1188.74 214.514L1187.27 214.471L1185.79 214.425L1184.32 214.377L1182.84 214.327L1181.37 214.275L1179.89 214.221L1178.41 214.164L1176.94 214.106L1175.46 214.045L1173.99 213.982L1172.51 213.916L1171.04 213.849L1169.56 213.779L1168.09 213.707L1166.61 213.633L1165.14 213.557L1163.66 213.479L1162.18 213.399L1160.71 213.316L1159.23 213.231L1157.76 213.145L1156.28 213.056L1154.81 212.965L1153.33 212.872L1151.86 212.776L1150.38 212.679L1148.9 212.579L1147.43 212.478L1145.95 212.374L1144.48 212.269L1143 212.161L1141.53 212.051L1140.05 211.939L1138.58 211.825L1137.1 211.709L1135.63 211.591L1134.15 211.471L1132.67 211.349L1131.2 211.225L1129.72 211.099L1128.25 210.971L1126.77 210.841L1125.3 210.709L1123.82 210.575L1122.35 210.439L1120.87 210.301L1119.39 210.161L1117.92 210.019L1116.44 209.876L1114.97 209.73L1113.49 209.583L1112.02 209.433L1110.54 209.282L1109.07 209.129L1107.59 208.974L1106.11 208.817L1104.64 208.658L1103.16 208.498L1101.69 208.335L1100.21 208.171L1098.74 208.005L1097.26 207.837L1095.79 207.667L1094.31 207.496L1092.84 207.323L1091.36 207.148L1089.88 206.971L1088.41 206.793L1086.93 206.613L1085.46 206.431L1083.98 206.248L1082.51 206.063L1081.03 205.876L1079.56 205.687L1078.08 205.497L1076.6 205.305L1075.13 205.112L1073.65 204.917L1072.18 204.72L1070.7 204.522L1069.23 204.322L1067.75 204.121L1066.28 203.918L1064.8 203.714L1063.32 203.508L1061.85 203.3L1060.37 203.092L1058.9 202.881L1057.42 202.669L1055.95 202.456L1054.47 202.241L1053 202.025L1051.52 201.807L1050.05 201.588L1048.57 201.368L1047.09 201.146L1045.62 200.923L1044.14 200.699L1042.67 200.473L1041.19 200.246L1039.72 200.017L1038.24 199.788L1036.77 199.557L1035.29 199.325L1033.81 199.091L1032.34 198.857L1030.86 198.621L1029.39 198.384L1027.91 198.145L1026.44 197.906L1024.96 197.665L1023.49 197.424L1022.01 197.181L1020.53 196.937L1019.06 196.692L1017.58 196.446L1016.11 196.199L1014.63 195.951L1013.16 195.701L1011.68 195.451L1010.21 195.2L1008.73 194.948L1007.26 194.695L1005.78 194.441L1004.3 194.186L1002.83 193.93L1001.35 193.673L999.878 193.415L998.402 193.157L996.927 192.897L995.451 192.637L993.976 192.376L992.5 192.114L991.025 191.852L989.549 191.589L988.073 191.324L986.598 191.06L985.122 190.794L983.647 190.528L982.171 190.261L980.696 189.993L979.22 189.725L977.745 189.456L976.269 189.187L974.794 188.917L973.318 188.646L971.843 188.375L970.367 188.103L968.892 187.831L967.416 187.558L965.941 187.285L964.465 187.012L962.99 186.737L961.514 186.463L960.039 186.188L958.563 185.913L957.088 185.637L955.612 185.361L954.137 185.084L952.661 184.807L951.186 184.53L949.71 184.253L948.235 183.975L946.759 183.697L945.284 183.419L943.808 183.141L942.333 182.862L940.857 182.583L939.381 182.304L937.906 182.025L936.43 181.746L934.955 181.467L933.479 181.187L932.004 180.908L930.528 180.628L929.053 180.348L927.577 180.069L926.102 179.789L924.626 179.509L923.151 179.23L921.675 178.95L920.2 178.671L918.724 178.391L917.249 178.112L915.773 177.833L914.298 177.554L912.822 177.275L911.347 176.996L909.871 176.718L908.396 176.439L906.92 176.161L905.445 175.883L903.969 175.606L902.494 175.328L901.018 175.051L899.543 174.774L898.067 174.498L896.592 174.222L895.116 173.946L893.641 173.671L892.165 173.396L890.689 173.122L889.214 172.848L887.738 172.574L886.263 172.301L884.787 172.028L883.312 171.756L881.836 171.485L880.361 171.214L878.885 170.943L877.41 170.673L875.934 170.404L874.459 170.135L872.983 169.867L871.508 169.6L870.032 169.333L868.557 169.067L867.081 168.801L865.606 168.537L864.13 168.273L862.655 168.01L861.179 167.747L859.704 167.485L858.228 167.225L856.753 166.965L855.277 166.705L853.802 166.447L852.326 166.189L850.851 165.933L849.375 165.677L847.9 165.422L846.424 165.168L844.949 164.916L843.473 164.664L841.997 164.413L840.522 164.163L839.046 163.914L837.571 163.666L836.095 163.419L834.62 163.173L833.144 162.928L831.669 162.684L830.193 162.442L828.718 162.2L827.242 161.96L825.767 161.721L824.291 161.483L822.816 161.246L821.34 161.01L819.865 160.776L818.389 160.543L816.914 160.311L815.438 160.08L813.963 159.851L812.487 159.623L811.012 159.396L809.536 159.17L808.061 158.946L806.585 158.723L805.11 158.502L803.634 158.282L802.159 158.063L800.683 157.846L799.208 157.63L797.732 157.415L796.256 157.202L794.781 156.991L793.305 156.781L791.83 156.572L790.354 156.365L788.879 156.159L787.403 155.955L785.928 155.753L784.452 155.552L782.977 155.352L781.501 155.154L780.026 154.958L778.55 154.763L777.075 154.57L775.599 154.379L774.124 154.189L772.648 154.001L771.173 153.815L769.697 153.63L768.222 153.447L766.746 153.265L765.271 153.085L763.795 152.907L762.32 152.731L760.844 152.557L759.369 152.384L757.893 152.213L756.418 152.044L754.942 151.876L753.467 151.71L751.991 151.547L750.516 151.385L749.04 151.224L747.564 151.066L746.089 150.909L744.613 150.755L743.138 150.602L741.662 150.451L740.187 150.302L738.711 150.155L737.236 150.01L735.76 149.866L734.285 149.725L732.809 149.586L731.334 149.448L729.858 149.313L728.383 149.179L726.907 149.047L725.432 148.918L723.956 148.79L722.481 148.664L721.005 148.541L719.53 148.419L718.054 148.3L716.579 148.182L715.103 148.066L713.628 147.953L712.152 147.841L710.677 147.732L709.201 147.625L707.726 147.519L706.25 147.416L704.775 147.315L703.299 147.216L701.824 147.119L700.348 147.024L698.872 146.931L697.397 146.841L695.921 146.752L694.446 146.666L692.97 146.582L691.495 146.5L690.019 146.42L688.544 146.342L687.068 146.266L685.593 146.193L684.117 146.121L682.642 146.052L681.166 145.985L679.691 145.92L678.215 145.858L676.74 145.797L675.264 145.739L673.789 145.683L672.313 145.629L670.838 145.577L669.362 145.528L667.887 145.48L666.411 145.435L664.936 145.392L663.46 145.352L661.985 145.313L660.509 145.277L659.034 145.243L657.558 145.211L656.083 145.182L654.607 145.154L653.132 145.129L651.656 145.106L650.18 145.085L648.705 145.067L647.229 145.051L645.754 145.037L644.278 145.025L642.803 145.016L641.327 145.008L639.852 145.003L638.376 145.001L636.901 145L635.425 145.002L633.95 145.006L632.474 145.012L630.999 145.02L629.523 145.031L628.048 145.044L626.572 145.059L625.097 145.076L623.621 145.096L622.146 145.117L620.67 145.141L619.195 145.168L617.719 145.196L616.244 145.227L614.768 145.26L613.293 145.295L611.817 145.332L610.342 145.372L608.866 145.414L607.391 145.458L605.915 145.504L604.44 145.552L602.964 145.603L601.488 145.656L600.013 145.711L598.537 145.768L597.062 145.827L595.586 145.889L594.111 145.953L592.635 146.019L591.16 146.087L589.684 146.157L588.209 146.23L586.733 146.304L585.258 146.381L583.782 146.46L582.307 146.541L580.831 146.624L579.356 146.709L577.88 146.797L576.405 146.886L574.929 146.978L573.454 147.072L571.978 147.168L570.503 147.266L569.027 147.366L567.552 147.468L566.076 147.572L564.601 147.679L563.125 147.787L561.65 147.897L560.174 148.01L558.699 148.124L557.223 148.241L555.747 148.36L554.272 148.48L552.796 148.603L551.321 148.728L549.845 148.854L548.37 148.983L546.894 149.114L545.419 149.246L543.943 149.381L542.468 149.517L540.992 149.656L539.517 149.796L538.041 149.939L536.566 150.083L535.09 150.229L533.615 150.377L532.139 150.527L530.664 150.679L529.188 150.833L527.713 150.988L526.237 151.146L524.762 151.305L523.286 151.466L521.811 151.629L520.335 151.794L518.86 151.96L517.384 152.129L515.909 152.299L514.433 152.471L512.958 152.644L511.482 152.82L510.007 152.997L508.531 153.176L507.055 153.356L505.58 153.539L504.104 153.723L502.629 153.908L501.153 154.096L499.678 154.285L498.202 154.475L496.727 154.668L495.251 154.861L493.776 155.057L492.3 155.254L490.825 155.453L489.349 155.653L487.874 155.855L486.398 156.058L484.923 156.263L483.447 156.469L481.972 156.677L480.496 156.887L479.021 157.097L477.545 157.31L476.07 157.523L474.594 157.739L473.119 157.955L471.643 158.173L470.168 158.393L468.692 158.613L467.217 158.836L465.741 159.059L464.266 159.284L462.79 159.51L461.315 159.738L459.839 159.966L458.363 160.196L456.888 160.428L455.412 160.66L453.937 160.894L452.461 161.129L450.986 161.365L449.51 161.603L448.035 161.841L446.559 162.081L445.084 162.322L443.608 162.564L442.133 162.807L440.657 163.052L439.182 163.297L437.706 163.543L436.231 163.791L434.755 164.039L433.28 164.289L431.804 164.539L430.329 164.791L428.853 165.043L427.378 165.296L425.902 165.551L424.427 165.806L422.951 166.062L421.476 166.319L420 166.577L418.525 166.836L417.049 167.096L415.574 167.356L414.098 167.617L412.623 167.879L411.147 168.142L409.671 168.406L408.196 168.67L406.72 168.935L405.245 169.201L403.769 169.467L402.294 169.734L400.818 170.002L399.343 170.271L397.867 170.54L396.392 170.809L394.916 171.079L393.441 171.35L391.965 171.622L390.49 171.893L389.014 172.166L387.539 172.439L386.063 172.712L384.588 172.986L383.112 173.26L381.637 173.535L380.161 173.81L378.686 174.085L377.21 174.361L375.735 174.637L374.259 174.914L372.784 175.191L371.308 175.468L369.833 175.746L368.357 176.023L366.882 176.301L365.406 176.58L363.93 176.858L362.455 177.137L360.979 177.416L359.504 177.695L358.028 177.974L356.553 178.253L355.077 178.532L353.602 178.812L352.126 179.091L350.651 179.371L349.175 179.651L347.7 179.93L346.224 180.21L344.749 180.49L343.273 180.769L341.798 181.049L340.322 181.328L338.847 181.608L337.371 181.887L335.896 182.166L334.42 182.445L332.945 182.724L331.469 183.003L329.994 183.281L328.518 183.559L327.043 183.837L325.567 184.115L324.092 184.393L322.616 184.67L321.141 184.947L319.665 185.224L318.19 185.5L316.714 185.776L315.238 186.051L313.763 186.327L312.287 186.601L310.812 186.876L309.336 187.15L307.861 187.423L306.385 187.696L304.91 187.969L303.434 188.24L301.959 188.512L300.483 188.783L299.008 189.053L297.532 189.323L296.057 189.592L294.581 189.861L293.106 190.128L291.63 190.396L290.155 190.662L288.679 190.928L287.204 191.193L285.728 191.458L284.253 191.721L282.777 191.984L281.302 192.247L279.826 192.508L278.351 192.769L276.875 193.028L275.4 193.287L273.924 193.545L272.449 193.803L270.973 194.059L269.498 194.314L268.022 194.569L266.546 194.823L265.071 195.075L263.595 195.327L262.12 195.578L260.644 195.827L259.169 196.076L257.693 196.324L256.218 196.57L254.742 196.816L253.267 197.06L251.791 197.303L250.316 197.546L248.84 197.787L247.365 198.027L245.889 198.266L244.414 198.503L242.938 198.74L241.463 198.975L239.987 199.209L238.512 199.442L237.036 199.673L235.561 199.904L234.085 200.133L232.61 200.361L231.134 200.587L229.659 200.812L228.183 201.036L226.708 201.258L225.232 201.479L223.757 201.699L222.281 201.917L220.806 202.134L219.33 202.35L217.854 202.564L216.379 202.776L214.903 202.987L213.428 203.197L211.952 203.405L210.477 203.612L209.001 203.817L207.526 204.021L206.05 204.223L204.575 204.423L203.099 204.622L201.624 204.82L200.148 205.015L198.673 205.21L197.197 205.402L195.722 205.593L194.246 205.782L192.771 205.97L191.295 206.156L189.82 206.34L188.344 206.523L186.869 206.704L185.393 206.883L183.918 207.061L182.442 207.236L180.967 207.41L179.491 207.583L178.016 207.753L176.54 207.922L175.065 208.089L173.589 208.254L172.113 208.417L170.638 208.579L169.162 208.738L167.687 208.896L166.211 209.052L164.736 209.206L163.26 209.358L161.785 209.509L160.309 209.657L158.834 209.804L157.358 209.948L155.883 210.091L154.407 210.232L152.932 210.371L151.456 210.508L149.981 210.643L148.505 210.776L147.03 210.907L145.554 211.036L144.079 211.163L142.603 211.288L141.128 211.411L139.652 211.532L138.177 211.651L136.701 211.768L135.226 211.883L133.75 211.996L132.275 212.107L130.799 212.215L129.324 212.322L127.848 212.427L126.373 212.529L124.897 212.63L123.421 212.728L121.946 212.825L120.47 212.919L118.995 213.011L117.519 213.101L116.044 213.189L114.568 213.274L113.093 213.358L111.617 213.439L110.142 213.519L108.666 213.596L107.191 213.671L105.715 213.744L104.24 213.815L102.764 213.883L101.289 213.949L99.8132 214.014L98.3377 214.076L96.8622 214.135L95.3867 214.193L93.9112 214.248L92.4357 214.302L90.9601 214.353L89.4846 214.402L88.0091 214.448L86.5336 214.493L85.0581 214.535L83.5826 214.575L82.1071 214.613L80.6315 214.648L79.156 214.682L77.6805 214.713L76.205 214.742L74.7295 214.768L73.254 214.793L71.7785 214.815L70.3029 214.835L68.8274 214.853L67.3519 214.868L65.8764 214.882L64.4009 214.893L62.9254 214.902L61.4498 214.908L59.9743 214.913L58.4988 214.915L57.0233 214.915L55.5478 214.912L54.0723 214.908L52.5968 214.901L51.1212 214.892L49.6457 214.88L48.1702 214.867L46.6947 214.851L45.2192 214.833L43.7437 214.813L42.2681 214.79L40.7926 214.766L39.3171 214.739L37.8416 214.71L36.3661 214.678L34.8906 214.645L33.4151 214.609L31.9395 214.571L30.464 214.531L28.9885 214.488L27.513 214.443L26.0375 214.397L24.562 214.347L23.0864 214.296L21.6109 214.243L20.1354 214.187L18.6599 214.129L17.1844 214.069L15.7089 214.007L14.2334 213.942L12.7578 213.876L11.2823 213.807L9.8068 213.736L8.33129 213.663L6.85577 213.588L5.38026 213.51L3.90474 213.431L2.42923 213.349L0.953713 213.265L-0.521803 213.179L-1.99732 213.091L-3.47283 213.001L-4.94835 212.909L-6.42386 212.814L-7.89938 212.718L-9.37489 212.619L-10.8504 212.518L-12.3259 212.416L-13.8014 212.311L-15.277 212.204L-16.7525 212.095L-18.228 211.984L-19.7035 211.871L-21.179 211.755L-22.6545 211.638L-24.13 211.519L-25.6056 211.398L-27.0811 211.275L-28.5566 211.149L-30.0321 211.022L-31.5076 210.893L-32.9831 210.762L-34.4587 210.628L-35.9342 210.493L-37.4097 210.356L-38.8852 210.217L-40.3607 210.076L-41.8362 209.933L-43.3117 209.788L-44.7873 209.641L-46.2628 209.493L-47.7383 209.342L-49.2138 209.19L-50.6893 209.036L-52.1648 208.879L-53.6404 208.721L-55.1159 208.562L-56.5914 208.4L-58.0669 208.236L-59.5424 208.071L-61.0179 207.904L-62.4934 207.735L-63.969 207.564L-65.4445 207.392L-66.92 207.218L-68.3955 207.042L-69.871 206.864L-71.3465 206.685L-72.8221 206.504L-74.2976 206.321L-75.7731 206.136L-77.2486 205.95L-78.7241 205.762L-80.1996 205.573L-81.6751 205.382L-83.1507 205.189L-84.6262 204.995L-86.1017 204.799L-87.5772 204.601" stroke="#7E57C2" stroke-width="30" stroke-miterlimit="10" stroke-linecap="round" stroke-linejoin="round"/>
<path d="M1539.94 184.034L1538.46 184.3L1536.98 184.567L1535.51 184.834L1534.03 185.102L1532.56 185.371L1531.08 185.64L1529.61 185.91L1528.13 186.18L1526.66 186.451L1525.18 186.723L1523.7 186.995L1522.23 187.268L1520.75 187.541L1519.28 187.814L1517.8 188.088L1516.33 188.363L1514.85 188.637L1513.38 188.913L1511.9 189.188L1510.42 189.464L1508.95 189.741L1507.47 190.017L1506 190.294L1504.52 190.572L1503.05 190.849L1501.57 191.127L1500.1 191.405L1498.62 191.684L1497.15 191.962L1495.67 192.241L1494.19 192.52L1492.72 192.799L1491.24 193.078L1489.77 193.357L1488.29 193.637L1486.82 193.916L1485.34 194.196L1483.87 194.476L1482.39 194.755L1480.91 195.035L1479.44 195.314L1477.96 195.594L1476.49 195.874L1475.01 196.153L1473.54 196.433L1472.06 196.712L1470.59 196.991L1469.11 197.27L1467.63 197.549L1466.16 197.828L1464.68 198.107L1463.21 198.385L1461.73 198.663L1460.26 198.941L1458.78 199.219L1457.31 199.496L1455.83 199.774L1454.36 200.05L1452.88 200.327L1451.4 200.603L1449.93 200.879L1448.45 201.154L1446.98 201.429L1445.5 201.704L1444.03 201.978L1442.55 202.252L1441.08 202.525L1439.6 202.798L1438.12 203.07L1436.65 203.342L1435.17 203.613L1433.7 203.884L1432.22 204.154L1430.75 204.423L1429.27 204.692L1427.8 204.961L1426.32 205.228L1424.84 205.495L1423.37 205.761L1421.89 206.027L1420.42 206.292L1418.94 206.556L1417.47 206.819L1415.99 207.082L1414.52 207.344L1413.04 207.605L1411.57 207.865L1410.09 208.125L1408.61 208.383L1407.14 208.641L1405.66 208.898L1404.19 209.154L1402.71 209.409L1401.24 209.663L1399.76 209.917L1398.29 210.169L1396.81 210.42L1395.33 210.67L1393.86 210.92L1392.38 211.168L1390.91 211.415L1389.43 211.661L1387.96 211.906L1386.48 212.15L1385.01 212.393L1383.53 212.635L1382.05 212.876L1380.58 213.115L1379.1 213.354L1377.63 213.591L1376.15 213.827L1374.68 214.062L1373.2 214.295L1371.73 214.527L1370.25 214.759L1368.78 214.988L1367.3 215.217L1365.82 215.444L1364.35 215.67L1362.87 215.895L1361.4 216.118L1359.92 216.34L1358.45 216.56L1356.97 216.779L1355.5 216.997L1354.02 217.213L1352.54 217.428L1351.07 217.642L1349.59 217.854L1348.12 218.064L1346.64 218.273L1345.17 218.481L1343.69 218.687L1342.22 218.892L1340.74 219.095L1339.27 219.296L1337.79 219.496L1336.31 219.694L1334.84 219.891L1333.36 220.086L1331.89 220.28L1330.41 220.472L1328.94 220.662L1327.46 220.851L1325.99 221.038L1324.51 221.223L1323.03 221.407L1321.56 221.589L1320.08 221.769L1318.61 221.947L1317.13 222.124L1315.66 222.299L1314.18 222.472L1312.71 222.644L1311.23 222.814L1309.75 222.982L1308.28 223.148L1306.8 223.312L1305.33 223.475L1303.85 223.636L1302.38 223.795L1300.9 223.952L1299.43 224.107L1297.95 224.26L1296.48 224.412L1295 224.561L1293.52 224.709L1292.05 224.855L1290.57 224.999L1289.1 225.141L1287.62 225.281L1286.15 225.419L1284.67 225.555L1283.2 225.689L1281.72 225.821L1280.24 225.952L1278.77 226.08L1277.29 226.206L1275.82 226.33L1274.34 226.453L1272.87 226.573L1271.39 226.691L1269.92 226.807L1268.44 226.921L1266.96 227.033L1265.49 227.143L1264.01 227.251L1262.54 227.357L1261.06 227.461L1259.59 227.563L1258.11 227.662L1256.64 227.76L1255.16 227.856L1253.69 227.949L1252.21 228.04L1250.73 228.129L1249.26 228.216L1247.78 228.301L1246.31 228.384L1244.83 228.465L1243.36 228.543L1241.88 228.619L1240.41 228.693L1238.93 228.765L1237.45 228.835L1235.98 228.903L1234.5 228.968L1233.03 229.032L1231.55 229.093L1230.08 229.152L1228.6 229.209L1227.13 229.263L1225.65 229.316L1224.17 229.366L1222.7 229.414L1221.22 229.46L1219.75 229.503L1218.27 229.544L1216.8 229.584L1215.32 229.62L1213.85 229.655L1212.37 229.688L1210.9 229.718L1209.42 229.746L1207.94 229.772L1206.47 229.795L1204.99 229.817L1203.52 229.836L1202.04 229.853L1200.57 229.867L1199.09 229.88L1197.62 229.89L1196.14 229.898L1194.66 229.903L1193.19 229.907L1191.71 229.908L1190.24 229.907L1188.76 229.904L1187.29 229.898L1185.81 229.891L1184.34 229.881L1182.86 229.869L1181.38 229.854L1179.91 229.837L1178.43 229.819L1176.96 229.797L1175.48 229.774L1174.01 229.749L1172.53 229.721L1171.06 229.691L1169.58 229.658L1168.11 229.624L1166.63 229.587L1165.15 229.548L1163.68 229.507L1162.2 229.464L1160.73 229.418L1159.25 229.371L1157.78 229.321L1156.3 229.268L1154.83 229.214L1153.35 229.157L1151.87 229.099L1150.4 229.038L1148.92 228.975L1147.45 228.909L1145.97 228.842L1144.5 228.772L1143.02 228.701L1141.55 228.627L1140.07 228.551L1138.59 228.472L1137.12 228.392L1135.64 228.309L1134.17 228.225L1132.69 228.138L1131.22 228.049L1129.74 227.958L1128.27 227.865L1126.79 227.769L1125.32 227.672L1123.84 227.573L1122.36 227.471L1120.89 227.367L1119.41 227.262L1117.94 227.154L1116.46 227.044L1114.99 226.932L1113.51 226.818L1112.04 226.702L1110.56 226.584L1109.08 226.464L1107.61 226.342L1106.13 226.218L1104.66 226.092L1103.18 225.964L1101.71 225.834L1100.23 225.702L1098.76 225.568L1097.28 225.432L1095.8 225.294L1094.33 225.154L1092.85 225.013L1091.38 224.869L1089.9 224.723L1088.43 224.576L1086.95 224.426L1085.48 224.275L1084 224.122L1082.53 223.967L1081.05 223.81L1079.57 223.651L1078.1 223.491L1076.62 223.328L1075.15 223.164L1073.67 222.998L1072.2 222.83L1070.72 222.661L1069.25 222.489L1067.77 222.316L1066.29 222.141L1064.82 221.965L1063.34 221.786L1061.87 221.606L1060.39 221.424L1058.92 221.241L1057.44 221.056L1055.97 220.869L1054.49 220.68L1053.02 220.49L1051.54 220.298L1050.06 220.105L1048.59 219.91L1047.11 219.713L1045.64 219.515L1044.16 219.316L1042.69 219.114L1041.21 218.911L1039.74 218.707L1038.26 218.501L1036.78 218.294L1035.31 218.085L1033.83 217.874L1032.36 217.662L1030.88 217.449L1029.41 217.234L1027.93 217.018L1026.46 216.801L1024.98 216.582L1023.5 216.361L1022.03 216.139L1020.55 215.916L1019.08 215.692L1017.6 215.466L1016.13 215.239L1014.65 215.011L1013.18 214.781L1011.7 214.55L1010.23 214.318L1008.75 214.084L1007.27 213.85L1005.8 213.614L1004.32 213.377L1002.85 213.139L1001.37 212.899L999.896 212.659L998.421 212.417L996.945 212.174L995.47 211.93L993.994 211.685L992.519 211.439L991.043 211.192L989.568 210.944L988.092 210.695L986.617 210.444L985.141 210.193L983.666 209.941L982.19 209.688L980.715 209.434L979.239 209.179L977.764 208.923L976.288 208.666L974.813 208.409L973.337 208.15L971.862 207.891L970.386 207.63L968.911 207.369L967.435 207.108L965.96 206.845L964.484 206.582L963.009 206.318L961.533 206.053L960.058 205.787L958.582 205.521L957.107 205.254L955.631 204.986L954.156 204.718L952.68 204.449L951.204 204.18L949.729 203.91L948.253 203.639L946.778 203.368L945.302 203.097L943.827 202.824L942.351 202.552L940.876 202.278L939.4 202.005L937.925 201.731L936.449 201.456L934.974 201.181L933.498 200.906L932.023 200.63L930.547 200.354L929.072 200.077L927.596 199.801L926.121 199.523L924.645 199.246L923.17 198.968L921.694 198.69L920.219 198.412L918.743 198.134L917.268 197.855L915.792 197.576L914.317 197.298L912.841 197.018L911.366 196.739L909.89 196.46L908.415 196.18L906.939 195.901L905.464 195.621L903.988 195.342L902.512 195.062L901.037 194.782L899.561 194.503L898.086 194.223L896.61 193.943L895.135 193.664L893.659 193.385L892.184 193.105L890.708 192.826L889.233 192.547L887.757 192.268L886.282 191.989L884.806 191.711L883.331 191.432L881.855 191.154L880.38 190.876L878.904 190.599L877.429 190.321L875.953 190.044L874.478 189.768L873.002 189.491L871.527 189.215L870.051 188.939L868.576 188.664L867.1 188.389L865.625 188.115L864.149 187.841L862.674 187.567L861.198 187.294L859.723 187.021L858.247 186.749L856.772 186.478L855.296 186.207L853.82 185.936L852.345 185.666L850.869 185.397L849.394 185.128L847.918 184.86L846.443 184.593L844.967 184.326L843.492 184.06L842.016 183.795L840.541 183.53L839.065 183.266L837.59 183.003L836.114 182.74L834.639 182.479L833.163 182.218L831.688 181.958L830.212 181.699L828.737 181.44L827.261 181.183L825.786 180.926L824.31 180.67L822.835 180.416L821.359 180.162L819.884 179.909L818.408 179.657L816.933 179.406L815.457 179.156L813.982 178.907L812.506 178.659L811.031 178.412L809.555 178.166L808.08 177.921L806.604 177.678L805.128 177.435L803.653 177.194L802.177 176.953L800.702 176.714L799.226 176.476L797.751 176.239L796.275 176.004L794.8 175.769L793.324 175.536L791.849 175.304L790.373 175.073L788.898 174.844L787.422 174.616L785.947 174.389L784.471 174.164L782.996 173.939L781.52 173.717L780.045 173.495L778.569 173.275L777.094 173.056L775.618 172.839L774.143 172.623L772.667 172.409L771.192 172.196L769.716 171.984L768.241 171.774L766.765 171.565L765.29 171.358L763.814 171.153L762.339 170.948L760.863 170.746L759.387 170.545L757.912 170.345L756.436 170.148L754.961 169.951L753.485 169.757L752.01 169.564L750.534 169.372L749.059 169.182L747.583 168.994L746.108 168.808L744.632 168.623L743.157 168.44L741.681 168.258L740.206 168.079L738.73 167.901L737.255 167.724L735.779 167.55L734.304 167.377L732.828 167.206L731.353 167.037L729.877 166.869L728.402 166.704L726.926 166.54L725.451 166.378L723.975 166.218L722.5 166.059L721.024 165.903L719.549 165.748L718.073 165.595L716.598 165.444L715.122 165.295L713.647 165.148L712.171 165.003L710.695 164.86L709.22 164.718L707.744 164.579L706.269 164.441L704.793 164.306L703.318 164.172L701.842 164.041L700.367 163.911L698.891 163.783L697.416 163.658L695.94 163.534L694.465 163.412L692.989 163.293L691.514 163.175L690.038 163.06L688.563 162.946L687.087 162.835L685.612 162.725L684.136 162.618L682.661 162.513L681.185 162.409L679.71 162.308L678.234 162.209L676.759 162.112L675.283 162.017L673.808 161.925L672.332 161.834L670.857 161.746L669.381 161.659L667.906 161.575L666.43 161.493L664.955 161.413L663.479 161.335L662.003 161.259L660.528 161.186L659.052 161.115L657.577 161.045L656.101 160.978L654.626 160.914L653.15 160.851L651.675 160.79L650.199 160.732L648.724 160.676L647.248 160.622L645.773 160.57L644.297 160.521L642.822 160.474L641.346 160.428L639.871 160.386L638.395 160.345L636.92 160.306L635.444 160.27L633.969 160.236L632.493 160.204L631.018 160.175L629.542 160.147L628.067 160.122L626.591 160.099L625.116 160.079L623.64 160.06L622.165 160.044L620.689 160.03L619.214 160.018L617.738 160.009L616.263 160.002L614.787 159.996L613.311 159.994L611.836 159.993L610.36 159.995L608.885 159.999L607.409 160.005L605.934 160.013L604.458 160.024L602.983 160.037L601.507 160.052L600.032 160.069L598.556 160.089L597.081 160.111L595.605 160.135L594.13 160.161L592.654 160.189L591.179 160.22L589.703 160.253L588.228 160.288L586.752 160.325L585.277 160.365L583.801 160.407L582.326 160.451L580.85 160.497L579.375 160.546L577.899 160.596L576.424 160.649L574.948 160.704L573.473 160.761L571.997 160.821L570.522 160.882L569.046 160.946L567.57 161.012L566.095 161.08L564.619 161.15L563.144 161.223L561.668 161.297L560.193 161.374L558.717 161.453L557.242 161.534L555.766 161.617L554.291 161.702L552.815 161.79L551.34 161.88L549.864 161.971L548.389 162.065L546.913 162.161L545.438 162.259L543.962 162.359L542.487 162.461L541.011 162.565L539.536 162.672L538.06 162.78L536.585 162.891L535.109 163.003L533.634 163.118L532.158 163.234L530.683 163.353L529.207 163.473L527.732 163.596L526.256 163.721L524.781 163.847L523.305 163.976L521.83 164.107L520.354 164.239L518.878 164.374L517.403 164.51L515.927 164.649L514.452 164.789L512.976 164.932L511.501 165.076L510.025 165.222L508.55 165.37L507.074 165.52L505.599 165.672L504.123 165.826L502.648 165.981L501.172 166.139L499.697 166.298L498.221 166.459L496.746 166.622L495.27 166.787L493.795 166.954L492.319 167.122L490.844 167.292L489.368 167.464L487.893 167.638L486.417 167.813L484.942 167.99L483.466 168.169L481.991 168.35L480.515 168.532L479.04 168.716L477.564 168.902L476.089 169.089L474.613 169.278L473.138 169.469L471.662 169.661L470.186 169.855L468.711 170.05L467.235 170.247L465.76 170.446L464.284 170.646L462.809 170.848L461.333 171.051L459.858 171.256L458.382 171.462L456.907 171.67L455.431 171.88L453.956 172.091L452.48 172.303L451.005 172.517L449.529 172.732L448.054 172.948L446.578 173.166L445.103 173.386L443.627 173.607L442.152 173.829L440.676 174.052L439.201 174.277L437.725 174.503L436.25 174.731L434.774 174.96L433.299 175.19L431.823 175.421L430.348 175.654L428.872 175.887L427.397 176.122L425.921 176.359L424.446 176.596L422.97 176.835L421.494 177.074L420.019 177.315L418.543 177.557L417.068 177.8L415.592 178.045L414.117 178.29L412.641 178.536L411.166 178.784L409.69 179.032L408.215 179.282L406.739 179.532L405.264 179.784L403.788 180.036L402.313 180.29L400.837 180.544L399.362 180.799L397.886 181.055L396.411 181.312L394.935 181.57L393.46 181.829L391.984 182.089L390.509 182.349L389.033 182.611L387.558 182.873L386.082 183.135L384.607 183.399L383.131 183.663L381.656 183.928L380.18 184.194L378.705 184.46L377.229 184.728L375.754 184.995L374.278 185.264L372.802 185.533L371.327 185.802L369.851 186.073L368.376 186.343L366.9 186.615L365.425 186.887L363.949 187.159L362.474 187.432L360.998 187.705L359.523 187.979L358.047 188.253L356.572 188.528L355.096 188.803L353.621 189.079L352.145 189.354L350.67 189.631L349.194 189.907L347.719 190.184L346.243 190.461L344.768 190.739L343.292 191.016L341.817 191.294L340.341 191.573L338.866 191.851L337.39 192.13L335.915 192.409L334.439 192.688L332.964 192.967L331.488 193.246L330.013 193.525L328.537 193.805L327.061 194.085L325.586 194.364L324.11 194.644L322.635 194.923L321.159 195.203L319.684 195.483L318.208 195.762L316.733 196.042L315.257 196.321L313.782 196.601L312.306 196.88L310.831 197.159L309.355 197.438L307.88 197.717L306.404 197.996L304.929 198.274L303.453 198.553L301.978 198.831L300.502 199.108L299.027 199.386L297.551 199.663L296.076 199.94L294.6 200.217L293.125 200.493L291.649 200.769L290.174 201.045L288.698 201.32L287.223 201.595L285.747 201.869L284.272 202.143L282.796 202.416L281.321 202.689L279.845 202.962L278.369 203.234L276.894 203.505L275.418 203.776L273.943 204.046L272.467 204.316L270.992 204.585L269.516 204.854L268.041 205.122L266.565 205.389L265.09 205.655L263.614 205.921L262.139 206.186L260.663 206.451L259.188 206.715L257.712 206.978L256.237 207.24L254.761 207.501L253.286 207.762L251.81 208.022L250.335 208.281L248.859 208.539L247.384 208.796L245.908 209.052L244.433 209.308L242.957 209.562L241.482 209.816L240.006 210.068L238.531 210.32L237.055 210.571L235.58 210.82L234.104 211.069L232.629 211.317L231.153 211.563L229.677 211.809L228.202 212.053L226.726 212.297L225.251 212.539L223.775 212.78L222.3 213.02L220.824 213.259L219.349 213.496L217.873 213.733L216.398 213.968L214.922 214.202L213.447 214.435L211.971 214.667L210.496 214.897L209.02 215.126L207.545 215.354L206.069 215.58L204.594 215.805L203.118 216.029L201.643 216.251L200.167 216.472L198.692 216.692L197.216 216.91L195.741 217.127L194.265 217.343L192.79 217.557L191.314 217.769L189.839 217.981L188.363 218.19L186.888 218.398L185.412 218.605L183.936 218.81L182.461 219.014L180.985 219.216L179.51 219.416L178.034 219.615L176.559 219.813L175.083 220.009L173.608 220.203L172.132 220.395L170.657 220.586L169.181 220.776L167.706 220.963L166.23 221.149L164.755 221.334L163.279 221.516L161.804 221.697L160.328 221.876L158.853 222.054L157.377 222.23L155.902 222.404L154.426 222.576L152.951 222.746L151.475 222.915L150 223.082L148.524 223.247L147.049 223.41L145.573 223.572L144.098 223.732L142.622 223.889L141.147 224.045L139.671 224.199L138.196 224.352L136.72 224.502L135.244 224.65L133.769 224.797L132.293 224.942L130.818 225.084L129.342 225.225L127.867 225.364L126.391 225.501L124.916 225.636L123.44 225.769L121.965 225.9L120.489 226.029L119.014 226.156L117.538 226.281L116.063 226.404L114.587 226.525L113.112 226.644L111.636 226.761L110.161 226.876L108.685 226.989L107.21 227.1L105.734 227.209L104.259 227.315L102.783 227.42L101.308 227.522L99.8321 227.623L98.3566 227.721L96.8811 227.818L95.4056 227.912L93.9301 228.004L92.4545 228.094L90.979 228.182L89.5035 228.268L88.028 228.351L86.5525 228.433L85.077 228.512L83.6015 228.589L82.1259 228.664L80.6504 228.737L79.1749 228.808L77.6994 228.876L76.2239 228.943L74.7484 229.007L73.2728 229.069L71.7973 229.129L70.3218 229.186L68.8463 229.242L67.3708 229.295L65.8953 229.346L64.4198 229.395L62.9442 229.441L61.4687 229.486L59.9932 229.528L58.5177 229.568L57.0422 229.606L55.5667 229.641L54.0911 229.675L52.6156 229.706L51.1401 229.735L49.6646 229.762L48.1891 229.786L46.7136 229.808L45.2381 229.828L43.7625 229.846L42.287 229.862L40.8115 229.875L39.336 229.886L37.8605 229.895L36.385 229.901L34.9094 229.906L33.4339 229.908L31.9584 229.908L30.4829 229.905L29.0074 229.901L27.5319 229.894L26.0564 229.885L24.5808 229.874L23.1053 229.86L21.6298 229.844L20.1543 229.826L18.6788 229.806L17.2033 229.784L15.7277 229.759L14.2522 229.732L12.7767 229.703L11.3012 229.671L9.82569 229.638L8.35017 229.602L6.87465 229.564L5.39914 229.524L3.92362 229.481L2.44811 229.437L0.972593 229.39L-0.502922 229.341L-1.97844 229.289L-3.45395 229.236L-4.92947 229.18L-6.40498 229.122L-7.8805 229.062L-9.35601 229L-10.8315 228.936L-12.307 228.869L-13.7826 228.8L-15.2581 228.729L-16.7336 228.656L-18.2091 228.581L-19.6846 228.504L-21.1601 228.424L-22.6357 228.342L-24.1112 228.259L-25.5867 228.173L-27.0622 228.084L-28.5377 227.994L-30.0132 227.902L-31.4887 227.808L-32.9643 227.711L-34.4398 227.612L-35.9153 227.512L-37.3908 227.409L-38.8663 227.304L-40.3418 227.197L-41.8174 227.088L-43.2929 226.977L-44.7684 226.864L-46.2439 226.749L-47.7194 226.631L-49.1949 226.512L-50.6704 226.391L-52.146 226.268L-53.6215 226.142L-55.097 226.015L-56.5725 225.886L-58.048 225.755L-59.5235 225.622L-60.9991 225.486L-62.4746 225.349L-63.9501 225.21L-65.4256 225.069L-66.9011 224.926L-68.3766 224.781L-69.8521 224.635L-71.3277 224.486L-72.8032 224.335L-74.2787 224.183L-75.7542 224.029L-77.2297 223.873L-78.7052 223.715L-80.1808 223.555L-81.6563 223.393L-83.1318 223.23L-84.6073 223.064L-86.0828 222.897L-87.5583 222.728L-89.0338 222.558L-90.5094 222.385L-91.9849 222.211L-93.4604 222.035L-94.9359 221.857L-96.4114 221.678L-97.8869 221.497L-99.3625 221.314L-100.838 221.13L-102.313 220.943L-103.789 220.756L-105.265 220.566L-106.74 220.375L-108.216 220.182L-109.691 219.988L-111.167 219.792L-112.642 219.594" stroke="#000E1E" stroke-width="30" stroke-miterlimit="10" stroke-linecap="round" stroke-linejoin="round"/>
<path d="M1548.79 200.427L1547.31 200.688L1545.84 200.951L1544.36 201.214L1542.89 201.478L1541.41 201.742L1539.94 202.008L1538.46 202.274L1536.98 202.54L1535.51 202.808L1534.03 203.076L1532.56 203.345L1531.08 203.614L1529.61 203.884L1528.13 204.154L1526.66 204.425L1525.18 204.697L1523.7 204.969L1522.23 205.241L1520.75 205.514L1519.28 205.788L1517.8 206.062L1516.33 206.336L1514.85 206.611L1513.38 206.886L1511.9 207.162L1510.42 207.438L1508.95 207.714L1507.47 207.991L1506 208.268L1504.52 208.545L1503.05 208.823L1501.57 209.101L1500.1 209.379L1498.62 209.657L1497.15 209.936L1495.67 210.215L1494.19 210.493L1492.72 210.773L1491.24 211.052L1489.77 211.331L1488.29 211.61L1486.82 211.89L1485.34 212.17L1483.87 212.449L1482.39 212.729L1480.91 213.008L1479.44 213.288L1477.96 213.568L1476.49 213.847L1475.01 214.127L1473.54 214.406L1472.06 214.686L1470.59 214.965L1469.11 215.244L1467.63 215.523L1466.16 215.802L1464.68 216.08L1463.21 216.359L1461.73 216.637L1460.26 216.915L1458.78 217.193L1457.31 217.47L1455.83 217.747L1454.36 218.024L1452.88 218.301L1451.4 218.577L1449.93 218.853L1448.45 219.128L1446.98 219.403L1445.5 219.678L1444.03 219.952L1442.55 220.225L1441.08 220.499L1439.6 220.771L1438.12 221.044L1436.65 221.316L1435.17 221.587L1433.7 221.857L1432.22 222.127L1430.75 222.397L1429.27 222.666L1427.8 222.934L1426.32 223.202L1424.84 223.469L1423.37 223.735L1421.89 224.001L1420.42 224.266L1418.94 224.53L1417.47 224.793L1415.99 225.056L1414.52 225.318L1413.04 225.579L1411.57 225.839L1410.09 226.099L1408.61 226.357L1407.14 226.615L1405.66 226.872L1404.19 227.128L1402.71 227.383L1401.24 227.637L1399.76 227.89L1398.29 228.142L1396.81 228.394L1395.33 228.644L1393.86 228.893L1392.38 229.142L1390.91 229.389L1389.43 229.635L1387.96 229.88L1386.48 230.124L1385.01 230.367L1383.53 230.609L1382.05 230.849L1380.58 231.089L1379.1 231.327L1377.63 231.564L1376.15 231.8L1374.68 232.035L1373.2 232.269L1371.73 232.501L1370.25 232.732L1368.78 232.962L1367.3 233.191L1365.82 233.418L1364.35 233.644L1362.87 233.868L1361.4 234.091L1359.92 234.313L1358.45 234.534L1356.97 234.753L1355.5 234.971L1354.02 235.187L1352.54 235.402L1351.07 235.615L1349.59 235.827L1348.12 236.038L1346.64 236.247L1345.17 236.455L1343.69 236.661L1342.22 236.865L1340.74 237.068L1339.27 237.27L1337.79 237.47L1336.31 237.668L1334.84 237.865L1333.36 238.06L1331.89 238.253L1330.41 238.445L1328.94 238.636L1327.46 238.824L1325.99 239.011L1324.51 239.197L1323.03 239.38L1321.56 239.562L1320.08 239.742L1318.61 239.921L1317.13 240.098L1315.66 240.273L1314.18 240.446L1312.71 240.618L1311.23 240.787L1309.75 240.955L1308.28 241.122L1306.8 241.286L1305.33 241.449L1303.85 241.609L1302.38 241.768L1300.9 241.925L1299.43 242.081L1297.95 242.234L1296.48 242.385L1295 242.535L1293.52 242.683L1292.05 242.828L1290.57 242.972L1289.1 243.114L1287.62 243.254L1286.15 243.392L1284.67 243.529L1283.2 243.663L1281.72 243.795L1280.24 243.925L1278.77 244.053L1277.29 244.18L1275.82 244.304L1274.34 244.426L1272.87 244.546L1271.39 244.665L1269.92 244.781L1268.44 244.895L1266.96 245.007L1265.49 245.117L1264.01 245.225L1262.54 245.331L1261.06 245.435L1259.59 245.536L1258.11 245.636L1256.64 245.734L1255.16 245.829L1253.69 245.923L1252.21 246.014L1250.73 246.103L1249.26 246.19L1247.78 246.275L1246.31 246.358L1244.83 246.438L1243.36 246.517L1241.88 246.593L1240.41 246.667L1238.93 246.739L1237.45 246.809L1235.98 246.877L1234.5 246.942L1233.03 247.005L1231.55 247.067L1230.08 247.126L1228.6 247.182L1227.13 247.237L1225.65 247.289L1224.17 247.339L1222.7 247.387L1221.22 247.433L1219.75 247.477L1218.27 247.518L1216.8 247.557L1215.32 247.594L1213.85 247.629L1212.37 247.661L1210.9 247.692L1209.42 247.72L1207.94 247.745L1206.47 247.769L1204.99 247.79L1203.52 247.809L1202.04 247.826L1200.57 247.841L1199.09 247.853L1197.62 247.863L1196.14 247.871L1194.66 247.877L1193.19 247.881L1191.71 247.882L1190.24 247.881L1188.76 247.878L1187.29 247.872L1185.81 247.864L1184.34 247.854L1182.86 247.842L1181.38 247.828L1179.91 247.811L1178.43 247.792L1176.96 247.771L1175.48 247.748L1174.01 247.722L1172.53 247.694L1171.06 247.664L1169.58 247.632L1168.11 247.598L1166.63 247.561L1165.15 247.522L1163.68 247.481L1162.2 247.437L1160.73 247.392L1159.25 247.344L1157.78 247.294L1156.3 247.242L1154.83 247.188L1153.35 247.131L1151.87 247.072L1150.4 247.011L1148.92 246.948L1147.45 246.883L1145.97 246.816L1144.5 246.746L1143.02 246.674L1141.55 246.6L1140.07 246.524L1138.59 246.446L1137.12 246.365L1135.64 246.283L1134.17 246.198L1132.69 246.111L1131.22 246.023L1129.74 245.932L1128.27 245.838L1126.79 245.743L1125.32 245.646L1123.84 245.546L1122.36 245.445L1120.89 245.341L1119.41 245.235L1117.94 245.128L1116.46 245.018L1114.99 244.906L1113.51 244.792L1112.04 244.676L1110.56 244.558L1109.08 244.438L1107.61 244.316L1106.13 244.192L1104.66 244.066L1103.18 243.938L1101.71 243.808L1100.23 243.676L1098.76 243.542L1097.28 243.406L1095.8 243.268L1094.33 243.128L1092.85 242.986L1091.38 242.843L1089.9 242.697L1088.43 242.549L1086.95 242.4L1085.48 242.249L1084 242.096L1082.53 241.941L1081.05 241.784L1079.57 241.625L1078.1 241.464L1076.62 241.302L1075.15 241.138L1073.67 240.972L1072.2 240.804L1070.72 240.634L1069.25 240.463L1067.77 240.29L1066.29 240.115L1064.82 239.938L1063.34 239.76L1061.87 239.58L1060.39 239.398L1058.92 239.214L1057.44 239.029L1055.97 238.843L1054.49 238.654L1053.02 238.464L1051.54 238.272L1050.06 238.079L1048.59 237.884L1047.11 237.687L1045.64 237.489L1044.16 237.289L1042.69 237.088L1041.21 236.885L1039.74 236.681L1038.26 236.475L1036.78 236.267L1035.31 236.058L1033.83 235.848L1032.36 235.636L1030.88 235.423L1029.41 235.208L1027.93 234.992L1026.46 234.774L1024.98 234.555L1023.5 234.335L1022.03 234.113L1020.55 233.89L1019.08 233.666L1017.6 233.44L1016.13 233.213L1014.65 232.984L1013.18 232.755L1011.7 232.524L1010.23 232.291L1008.75 232.058L1007.27 231.823L1005.8 231.587L1004.32 231.35L1002.85 231.112L1001.37 230.873L999.896 230.632L998.421 230.39L996.945 230.148L995.47 229.904L993.994 229.659L992.519 229.413L991.043 229.166L989.568 228.917L988.092 228.668L986.617 228.418L985.141 228.167L983.666 227.915L982.19 227.662L980.715 227.408L979.239 227.153L977.764 226.897L976.288 226.64L974.813 226.382L973.337 226.124L971.862 225.864L970.386 225.604L968.911 225.343L967.435 225.081L965.96 224.819L964.484 224.555L963.009 224.291L961.533 224.026L960.058 223.761L958.582 223.495L957.107 223.228L955.631 222.96L954.156 222.692L952.68 222.423L951.204 222.154L949.729 221.884L948.253 221.613L946.778 221.342L945.302 221.07L943.827 220.798L942.351 220.525L940.876 220.252L939.4 219.978L937.925 219.704L936.449 219.43L934.974 219.155L933.498 218.879L932.023 218.604L930.547 218.327L929.072 218.051L927.596 217.774L926.121 217.497L924.645 217.22L923.17 216.942L921.694 216.664L920.219 216.386L918.743 216.107L917.268 215.829L915.792 215.55L914.317 215.271L912.841 214.992L911.366 214.713L909.89 214.433L908.415 214.154L906.939 213.874L905.464 213.595L903.988 213.315L902.512 213.036L901.037 212.756L899.561 212.476L898.086 212.197L896.61 211.917L895.135 211.638L893.659 211.358L892.184 211.079L890.708 210.8L889.233 210.521L887.757 210.242L886.282 209.963L884.806 209.684L883.331 209.406L881.855 209.128L880.38 208.85L878.904 208.572L877.429 208.295L875.953 208.018L874.478 207.741L873.002 207.465L871.527 207.189L870.051 206.913L868.576 206.638L867.1 206.363L865.625 206.088L864.149 205.814L862.674 205.541L861.198 205.268L859.723 204.995L858.247 204.723L856.772 204.451L855.296 204.18L853.82 203.91L852.345 203.64L850.869 203.371L849.394 203.102L847.918 202.834L846.443 202.566L844.967 202.3L843.492 202.034L842.016 201.768L840.541 201.503L839.065 201.24L837.59 200.976L836.114 200.714L834.639 200.452L833.163 200.191L831.688 199.931L830.212 199.672L828.737 199.414L827.261 199.156L825.786 198.9L824.31 198.644L822.835 198.389L821.359 198.135L819.884 197.882L818.408 197.63L816.933 197.379L815.457 197.129L813.982 196.88L812.506 196.632L811.031 196.386L809.555 196.14L808.079 195.895L806.604 195.651L805.128 195.409L803.653 195.167L802.177 194.927L800.702 194.688L799.226 194.45L797.751 194.213L796.275 193.977L794.8 193.743L793.324 193.51L791.849 193.278L790.373 193.047L788.898 192.818L787.422 192.59L785.947 192.363L784.471 192.137L782.996 191.913L781.52 191.69L780.045 191.469L778.569 191.249L777.094 191.03L775.618 190.813L774.143 190.597L772.667 190.382L771.192 190.169L769.716 189.958L768.241 189.748L766.765 189.539L765.29 189.332L763.814 189.126L762.339 188.922L760.863 188.72L759.387 188.519L757.912 188.319L756.436 188.121L754.961 187.925L753.485 187.73L752.01 187.537L750.534 187.346L749.059 187.156L747.583 186.968L746.108 186.781L744.632 186.596L743.157 186.413L741.681 186.232L740.206 186.052L738.73 185.874L737.255 185.698L735.779 185.523L734.304 185.351L732.828 185.18L731.353 185.01L729.877 184.843L728.402 184.677L726.926 184.513L725.451 184.351L723.975 184.191L722.5 184.033L721.024 183.876L719.549 183.722L718.073 183.569L716.598 183.418L715.122 183.269L713.647 183.122L712.171 182.977L710.695 182.833L709.22 182.692L707.744 182.552L706.269 182.415L704.793 182.279L703.318 182.146L701.842 182.014L700.367 181.885L698.891 181.757L697.416 181.631L695.94 181.508L694.465 181.386L692.989 181.266L691.514 181.149L690.038 181.033L688.563 180.92L687.087 180.808L685.612 180.699L684.136 180.591L682.661 180.486L681.185 180.383L679.71 180.282L678.234 180.183L676.759 180.086L675.283 179.991L673.808 179.898L672.332 179.808L670.857 179.719L669.381 179.633L667.906 179.549L666.43 179.466L664.955 179.386L663.479 179.309L662.003 179.233L660.528 179.16L659.052 179.088L657.577 179.019L656.101 178.952L654.626 178.887L653.15 178.824L651.675 178.764L650.199 178.706L648.724 178.65L647.248 178.596L645.773 178.544L644.297 178.494L642.822 178.447L641.346 178.402L639.871 178.359L638.395 178.318L636.92 178.28L635.444 178.244L633.969 178.21L632.493 178.178L631.018 178.148L629.542 178.121L628.067 178.096L626.591 178.073L625.116 178.052L623.64 178.034L622.165 178.018L620.689 178.004L619.214 177.992L617.738 177.982L616.263 177.975L614.787 177.97L613.311 177.967L611.836 177.967L610.36 177.968L608.885 177.972L607.409 177.979L605.934 177.987L604.458 177.998L602.983 178.01L601.507 178.026L600.032 178.043L598.556 178.062L597.081 178.084L595.605 178.108L594.13 178.135L592.654 178.163L591.179 178.194L589.703 178.227L588.228 178.262L586.752 178.299L585.277 178.339L583.801 178.381L582.326 178.425L580.85 178.471L579.375 178.519L577.899 178.57L576.424 178.623L574.948 178.678L573.473 178.735L571.997 178.794L570.522 178.856L569.046 178.92L567.57 178.985L566.095 179.054L564.619 179.124L563.144 179.196L561.668 179.271L560.193 179.348L558.717 179.427L557.242 179.508L555.766 179.591L554.291 179.676L552.815 179.764L551.34 179.853L549.864 179.945L548.389 180.039L546.913 180.135L545.438 180.233L543.962 180.333L542.487 180.435L541.011 180.539L539.536 180.645L538.06 180.754L536.585 180.864L535.109 180.977L533.634 181.091L532.158 181.208L530.683 181.326L529.207 181.447L527.732 181.57L526.256 181.694L524.781 181.821L523.305 181.95L521.83 182.08L520.354 182.213L518.878 182.348L517.403 182.484L515.927 182.623L514.452 182.763L512.976 182.905L511.501 183.05L510.025 183.196L508.55 183.344L507.074 183.494L505.599 183.646L504.123 183.799L502.648 183.955L501.172 184.112L499.697 184.272L498.221 184.433L496.746 184.596L495.27 184.761L493.795 184.927L492.319 185.095L490.844 185.266L489.368 185.438L487.893 185.611L486.417 185.787L484.942 185.964L483.466 186.143L481.991 186.323L480.515 186.506L479.04 186.69L477.564 186.875L476.089 187.063L474.613 187.252L473.138 187.442L471.662 187.634L470.186 187.828L468.711 188.024L467.235 188.221L465.76 188.42L464.284 188.62L462.809 188.822L461.333 189.025L459.858 189.23L458.382 189.436L456.907 189.644L455.431 189.853L453.956 190.064L452.48 190.276L451.005 190.49L449.529 190.705L448.054 190.922L446.578 191.14L445.103 191.359L443.627 191.58L442.152 191.802L440.676 192.026L439.201 192.251L437.725 192.477L436.25 192.704L434.774 192.933L433.299 193.163L431.823 193.395L430.348 193.627L428.872 193.861L427.397 194.096L425.921 194.332L424.446 194.57L422.97 194.808L421.494 195.048L420.019 195.289L418.543 195.531L417.068 195.774L415.592 196.018L414.117 196.264L412.641 196.51L411.166 196.757L409.69 197.006L408.215 197.255L406.739 197.506L405.264 197.757L403.788 198.01L402.313 198.263L400.837 198.518L399.362 198.773L397.886 199.029L396.411 199.286L394.935 199.544L393.46 199.803L391.984 200.062L390.509 200.323L389.033 200.584L387.558 200.846L386.082 201.109L384.607 201.373L383.131 201.637L381.656 201.902L380.18 202.168L378.705 202.434L377.229 202.701L375.753 202.969L374.278 203.237L372.802 203.506L371.327 203.776L369.851 204.046L368.376 204.317L366.9 204.588L365.425 204.86L363.949 205.133L362.474 205.405L360.998 205.679L359.523 205.953L358.047 206.227L356.572 206.502L355.096 206.777L353.621 207.052L352.145 207.328L350.67 207.604L349.194 207.881L347.719 208.158L346.243 208.435L344.768 208.712L343.292 208.99L341.817 209.268L340.341 209.546L338.866 209.825L337.39 210.103L335.915 210.382L334.439 210.661L332.964 210.94L331.488 211.22L330.013 211.499L328.537 211.779L327.061 212.058L325.586 212.338L324.11 212.617L322.635 212.897L321.159 213.177L319.684 213.456L318.208 213.736L316.733 214.015L315.257 214.295L313.782 214.574L312.306 214.854L310.831 215.133L309.355 215.412L307.88 215.691L306.404 215.969L304.929 216.248L303.453 216.526L301.978 216.804L300.502 217.082L299.027 217.36L297.551 217.637L296.076 217.914L294.6 218.19L293.125 218.467L291.649 218.743L290.174 219.018L288.698 219.293L287.223 219.568L285.747 219.843L284.272 220.116L282.796 220.39L281.321 220.663L279.845 220.935L278.369 221.207L276.894 221.479L275.418 221.75L273.943 222.02L272.467 222.29L270.992 222.559L269.516 222.827L268.041 223.095L266.565 223.362L265.09 223.629L263.614 223.895L262.139 224.16L260.663 224.424L259.188 224.688L257.712 224.951L256.237 225.213L254.761 225.475L253.286 225.735L251.81 225.995L250.335 226.254L248.859 226.512L247.384 226.769L245.908 227.026L244.433 227.281L242.957 227.536L241.482 227.789L240.006 228.042L238.531 228.294L237.055 228.544L235.58 228.794L234.104 229.043L232.629 229.29L231.153 229.537L229.677 229.782L228.202 230.027L226.726 230.27L225.251 230.513L223.775 230.754L222.3 230.994L220.824 231.232L219.349 231.47L217.873 231.707L216.398 231.942L214.922 232.176L213.447 232.409L211.971 232.64L210.496 232.871L209.02 233.1L207.545 233.327L206.069 233.554L204.594 233.779L203.118 234.003L201.643 234.225L200.167 234.446L198.692 234.666L197.216 234.884L195.741 235.101L194.265 235.316L192.79 235.53L191.314 235.743L189.839 235.954L188.363 236.164L186.888 236.372L185.412 236.579L183.936 236.784L182.461 236.987L180.985 237.19L179.51 237.39L178.034 237.589L176.559 237.786L175.083 237.982L173.608 238.176L172.132 238.369L170.657 238.56L169.181 238.749L167.706 238.937L166.23 239.123L164.755 239.307L163.279 239.49L161.804 239.671L160.328 239.85L158.853 240.027L157.377 240.203L155.902 240.377L154.426 240.55L152.951 240.72L151.475 240.889L150 241.056L148.524 241.221L147.049 241.384L145.573 241.545L144.098 241.705L142.622 241.863L141.147 242.019L139.671 242.173L138.196 242.325L136.72 242.476L135.244 242.624L133.769 242.771L132.293 242.915L130.818 243.058L129.342 243.199L127.867 243.338L126.391 243.474L124.916 243.609L123.44 243.742L121.965 243.873L120.489 244.002L119.014 244.13L117.538 244.255L116.063 244.378L114.587 244.499L113.112 244.618L111.636 244.735L110.161 244.85L108.685 244.963L107.21 245.073L105.734 245.182L104.259 245.289L102.783 245.394L101.308 245.496L99.8321 245.597L98.3566 245.695L96.8811 245.791L95.4056 245.886L93.9301 245.978L92.4545 246.068L90.979 246.155L89.5035 246.241L88.028 246.325L86.5525 246.406L85.077 246.486L83.6015 246.563L82.1259 246.638L80.6504 246.711L79.1749 246.781L77.6994 246.85L76.2239 246.916L74.7484 246.98L73.2728 247.042L71.7973 247.102L70.3218 247.16L68.8463 247.215L67.3708 247.269L65.8953 247.32L64.4198 247.368L62.9442 247.415L61.4687 247.46L59.9932 247.502L58.5177 247.542L57.0422 247.58L55.5667 247.615L54.0911 247.649L52.6156 247.68L51.1401 247.709L49.6646 247.735L48.1891 247.76L46.7136 247.782L45.2381 247.802L43.7625 247.82L42.287 247.835L40.8115 247.849L39.336 247.86L37.8605 247.868L36.385 247.875L34.9094 247.879L33.4339 247.881L31.9584 247.881L30.4829 247.879L29.0074 247.874L27.5319 247.868L26.0564 247.859L24.5808 247.847L23.1053 247.834L21.6298 247.818L20.1543 247.8L18.6788 247.78L17.2033 247.757L15.7277 247.733L14.2522 247.706L12.7767 247.676L11.3012 247.645L9.82568 247.611L8.35017 247.576L6.87465 247.538L5.39914 247.497L3.92362 247.455L2.4481 247.41L0.97259 247.363L-0.502926 247.314L-1.97844 247.263L-3.45396 247.209L-4.92947 247.154L-6.40499 247.096L-7.8805 247.036L-9.35602 246.974L-10.8315 246.909L-12.307 246.843L-13.7826 246.774L-15.2581 246.703L-16.7336 246.63L-18.2091 246.555L-19.6846 246.477L-21.1601 246.398L-22.6357 246.316L-24.1112 246.232L-25.5867 246.146L-27.0622 246.058L-28.5377 245.968L-30.0132 245.876L-31.4887 245.781L-32.9643 245.685L-34.4398 245.586L-35.9153 245.485L-37.3908 245.382L-38.8663 245.278L-40.3418 245.171L-41.8174 245.062L-43.2929 244.951L-44.7684 244.837L-46.2439 244.722L-47.7194 244.605L-49.1949 244.486L-50.6704 244.365L-52.146 244.241L-53.6215 244.116L-55.097 243.989L-56.5725 243.86L-58.048 243.728L-59.5235 243.595L-60.9991 243.46L-62.4746 243.323L-63.9501 243.184L-65.4256 243.043L-66.9011 242.9L-68.3766 242.755L-69.8521 242.608L-71.3277 242.46L-72.8032 242.309L-74.2787 242.157L-75.7542 242.002L-77.2297 241.846L-78.7052 241.688L-80.1808 241.528L-81.6563 241.367L-83.1318 241.203L-84.6073 241.038L-86.0828 240.871L-87.5583 240.702L-89.0338 240.531L-90.5094 240.359L-91.9849 240.185L-93.4604 240.009L-94.9359 239.831L-96.4114 239.652L-97.8869 239.47L-99.3625 239.288L-100.838 239.103L-102.313 238.917L-103.789 238.729L-105.265 238.54L-106.74 238.349L-108.216 238.156L-109.691 237.961L-111.167 237.765L-112.642 237.568L-114.118 237.369" stroke="#000E1E" stroke-width="30" stroke-miterlimit="10" stroke-linecap="round" stroke-linejoin="round"/>
<path d="M1529.61 216.868L1528.13 217.138L1526.66 217.409L1525.18 217.681L1523.7 217.953L1522.23 218.226L1520.75 218.499L1519.28 218.772L1517.8 219.046L1516.33 219.321L1514.85 219.595L1513.38 219.871L1511.9 220.146L1510.42 220.422L1508.95 220.699L1507.47 220.975L1506 221.253L1504.52 221.53L1503.05 221.807L1501.57 222.085L1500.1 222.363L1498.62 222.642L1497.15 222.92L1495.67 223.199L1494.19 223.478L1492.72 223.757L1491.24 224.036L1489.77 224.315L1488.29 224.595L1486.82 224.874L1485.34 225.154L1483.87 225.434L1482.39 225.713L1480.91 225.993L1479.44 226.272L1477.96 226.552L1476.49 226.832L1475.01 227.111L1473.54 227.391L1472.06 227.67L1470.59 227.949L1469.11 228.228L1467.63 228.507L1466.16 228.786L1464.68 229.065L1463.21 229.343L1461.73 229.621L1460.26 229.899L1458.78 230.177L1457.31 230.454L1455.83 230.732L1454.36 231.008L1452.88 231.285L1451.4 231.561L1449.93 231.837L1448.45 232.112L1446.98 232.387L1445.5 232.662L1444.03 232.936L1442.55 233.21L1441.08 233.483L1439.6 233.756L1438.12 234.028L1436.65 234.3L1435.17 234.571L1433.7 234.842L1432.22 235.112L1430.75 235.381L1429.27 235.65L1427.8 235.919L1426.32 236.186L1424.84 236.453L1423.37 236.719L1421.89 236.985L1420.42 237.25L1418.94 237.514L1417.47 237.777L1415.99 238.04L1414.52 238.302L1413.04 238.563L1411.57 238.823L1410.09 239.083L1408.61 239.341L1407.14 239.599L1405.66 239.856L1404.19 240.112L1402.71 240.367L1401.24 240.621L1399.76 240.875L1398.29 241.127L1396.81 241.378L1395.33 241.628L1393.86 241.878L1392.38 242.126L1390.91 242.373L1389.43 242.619L1387.96 242.864L1386.48 243.108L1385.01 243.351L1383.53 243.593L1382.05 243.834L1380.58 244.073L1379.1 244.312L1377.63 244.549L1376.15 244.785L1374.68 245.02L1373.2 245.253L1371.73 245.486L1370.25 245.717L1368.78 245.946L1367.3 246.175L1365.82 246.402L1364.35 246.628L1362.87 246.853L1361.4 247.076L1359.92 247.298L1358.45 247.518L1356.97 247.737L1355.5 247.955L1354.02 248.171L1352.54 248.386L1351.07 248.6L1349.59 248.812L1348.12 249.022L1346.64 249.231L1345.17 249.439L1343.69 249.645L1342.22 249.85L1340.74 250.053L1339.27 250.254L1337.79 250.454L1336.31 250.652L1334.84 250.849L1333.36 251.044L1331.89 251.238L1330.41 251.43L1328.94 251.62L1327.46 251.809L1325.99 251.996L1324.51 252.181L1323.03 252.365L1321.56 252.547L1320.08 252.727L1318.61 252.905L1317.13 253.082L1315.66 253.257L1314.18 253.43L1312.71 253.602L1311.23 253.772L1309.75 253.94L1308.28 254.106L1306.8 254.27L1305.33 254.433L1303.85 254.594L1302.38 254.753L1300.9 254.91L1299.43 255.065L1297.95 255.218L1296.48 255.37L1295 255.519L1293.52 255.667L1292.05 255.813L1290.57 255.957L1289.1 256.099L1287.62 256.239L1286.15 256.377L1284.67 256.513L1283.2 256.647L1281.72 256.779L1280.24 256.91L1278.77 257.038L1277.29 257.164L1275.82 257.288L1274.34 257.411L1272.87 257.531L1271.39 257.649L1269.92 257.765L1268.44 257.879L1266.96 257.991L1265.49 258.101L1264.01 258.209L1262.54 258.315L1261.06 258.419L1259.59 258.521L1258.11 258.621L1256.64 258.718L1255.16 258.814L1253.69 258.907L1252.21 258.998L1250.73 259.087L1249.26 259.174L1247.78 259.259L1246.31 259.342L1244.83 259.423L1243.36 259.501L1241.88 259.577L1240.41 259.652L1238.93 259.724L1237.45 259.793L1235.98 259.861L1234.5 259.927L1233.03 259.99L1231.55 260.051L1230.08 260.11L1228.6 260.167L1227.13 260.221L1225.65 260.274L1224.17 260.324L1222.7 260.372L1221.22 260.418L1219.75 260.461L1218.27 260.502L1216.8 260.542L1215.32 260.578L1213.85 260.613L1212.37 260.646L1210.9 260.676L1209.42 260.704L1207.94 260.73L1206.47 260.753L1204.99 260.775L1203.52 260.794L1202.04 260.811L1200.57 260.825L1199.09 260.838L1197.62 260.848L1196.14 260.856L1194.66 260.861L1193.19 260.865L1191.71 260.866L1190.24 260.865L1188.76 260.862L1187.29 260.856L1185.81 260.849L1184.34 260.839L1182.86 260.827L1181.38 260.812L1179.91 260.795L1178.43 260.777L1176.96 260.755L1175.48 260.732L1174.01 260.707L1172.53 260.679L1171.06 260.649L1169.58 260.616L1168.11 260.582L1166.63 260.545L1165.15 260.506L1163.68 260.465L1162.2 260.422L1160.73 260.376L1159.25 260.329L1157.78 260.279L1156.3 260.226L1154.83 260.172L1153.35 260.116L1151.87 260.057L1150.4 259.996L1148.92 259.933L1147.45 259.867L1145.97 259.8L1144.5 259.73L1143.02 259.659L1141.55 259.585L1140.07 259.509L1138.59 259.43L1137.12 259.35L1135.64 259.267L1134.17 259.183L1132.69 259.096L1131.22 259.007L1129.74 258.916L1128.27 258.823L1126.79 258.727L1125.32 258.63L1123.84 258.531L1122.36 258.429L1120.89 258.325L1119.41 258.22L1117.94 258.112L1116.46 258.002L1114.99 257.89L1113.51 257.776L1112.04 257.66L1110.56 257.542L1109.08 257.422L1107.61 257.3L1106.13 257.176L1104.66 257.05L1103.18 256.922L1101.71 256.792L1100.23 256.66L1098.76 256.526L1097.28 256.39L1095.8 256.252L1094.33 256.112L1092.85 255.971L1091.38 255.827L1089.9 255.681L1088.43 255.534L1086.95 255.384L1085.48 255.233L1084 255.08L1082.53 254.925L1081.05 254.768L1079.57 254.609L1078.1 254.449L1076.62 254.286L1075.15 254.122L1073.67 253.956L1072.2 253.788L1070.72 253.619L1069.25 253.447L1067.77 253.274L1066.29 253.099L1064.82 252.923L1063.34 252.744L1061.87 252.564L1060.39 252.382L1058.92 252.199L1057.44 252.014L1055.97 251.827L1054.49 251.638L1053.02 251.448L1051.54 251.256L1050.06 251.063L1048.59 250.868L1047.11 250.671L1045.64 250.473L1044.16 250.274L1042.69 250.072L1041.21 249.869L1039.74 249.665L1038.26 249.459L1036.78 249.252L1035.31 249.043L1033.83 248.832L1032.36 248.62L1030.88 248.407L1029.41 248.192L1027.93 247.976L1026.46 247.759L1024.98 247.54L1023.5 247.319L1022.03 247.097L1020.55 246.874L1019.08 246.65L1017.6 246.424L1016.13 246.197L1014.65 245.969L1013.18 245.739L1011.7 245.508L1010.23 245.276L1008.75 245.042L1007.27 244.808L1005.8 244.572L1004.32 244.335L1002.85 244.097L1001.37 243.857L999.896 243.617L998.421 243.375L996.945 243.132L995.47 242.888L993.994 242.643L992.519 242.397L991.043 242.15L989.568 241.902L988.092 241.653L986.617 241.402L985.141 241.151L983.666 240.899L982.19 240.646L980.715 240.392L979.239 240.137L977.764 239.881L976.288 239.624L974.813 239.367L973.337 239.108L971.862 238.849L970.386 238.588L968.911 238.327L967.435 238.066L965.96 237.803L964.484 237.54L963.009 237.276L961.533 237.011L960.058 236.745L958.582 236.479L957.107 236.212L955.631 235.945L954.156 235.676L952.68 235.407L951.204 235.138L949.729 234.868L948.253 234.597L946.778 234.326L945.302 234.055L943.827 233.782L942.351 233.51L940.876 233.236L939.4 232.963L937.925 232.689L936.449 232.414L934.974 232.139L933.498 231.864L932.023 231.588L930.547 231.312L929.072 231.035L927.596 230.759L926.121 230.481L924.645 230.204L923.17 229.926L921.694 229.648L920.219 229.37L918.743 229.092L917.268 228.813L915.792 228.534L914.317 228.256L912.841 227.976L911.366 227.697L909.89 227.418L908.415 227.138L906.939 226.859L905.464 226.579L903.988 226.3L902.512 226.02L901.037 225.74L899.561 225.461L898.086 225.181L896.61 224.901L895.135 224.622L893.659 224.343L892.184 224.063L890.708 223.784L889.233 223.505L887.757 223.226L886.282 222.947L884.806 222.669L883.331 222.39L881.855 222.112L880.38 221.834L878.904 221.557L877.429 221.279L875.953 221.002L874.478 220.726L873.002 220.449L871.527 220.173L870.051 219.897L868.576 219.622L867.1 219.347L865.625 219.073L864.149 218.799L862.674 218.525L861.198 218.252L859.723 217.979L858.247 217.707L856.772 217.436L855.296 217.165L853.82 216.894L852.345 216.624L850.869 216.355L849.394 216.086L847.918 215.818L846.443 215.551L844.967 215.284L843.492 215.018L842.016 214.753L840.541 214.488L839.065 214.224L837.59 213.961L836.114 213.698L834.639 213.437L833.163 213.176L831.688 212.916L830.212 212.657L828.737 212.398L827.261 212.141L825.786 211.884L824.31 211.628L822.835 211.374L821.359 211.12L819.884 210.867L818.408 210.615L816.933 210.364L815.457 210.114L813.982 209.865L812.506 209.617L811.031 209.37L809.555 209.124L808.079 208.879L806.604 208.636L805.128 208.393L803.653 208.152L802.177 207.911L800.702 207.672L799.226 207.434L797.751 207.197L796.275 206.962L794.8 206.727L793.324 206.494L791.849 206.262L790.373 206.031L788.898 205.802L787.422 205.574L785.947 205.347L784.471 205.122L782.996 204.897L781.52 204.675L780.045 204.453L778.569 204.233L777.094 204.014L775.618 203.797L774.143 203.581L772.667 203.367L771.192 203.154L769.716 202.942L768.241 202.732L766.765 202.523L765.29 202.316L763.814 202.111L762.339 201.906L760.863 201.704L759.387 201.503L757.912 201.303L756.436 201.106L754.961 200.909L753.485 200.715L752.01 200.522L750.534 200.33L749.059 200.14L747.583 199.952L746.108 199.766L744.632 199.581L743.157 199.398L741.681 199.216L740.206 199.037L738.73 198.859L737.255 198.682L735.779 198.508L734.304 198.335L732.828 198.164L731.353 197.995L729.877 197.827L728.402 197.662L726.926 197.498L725.451 197.336L723.975 197.176L722.5 197.017L721.024 196.861L719.549 196.706L718.073 196.553L716.598 196.402L715.122 196.253L713.647 196.106L712.171 195.961L710.695 195.818L709.22 195.676L707.744 195.537L706.269 195.399L704.793 195.264L703.318 195.13L701.842 194.999L700.367 194.869L698.891 194.741L697.416 194.616L695.94 194.492L694.465 194.37L692.989 194.251L691.514 194.133L690.038 194.018L688.563 193.904L687.087 193.793L685.612 193.683L684.136 193.576L682.661 193.471L681.185 193.367L679.71 193.266L678.234 193.167L676.759 193.07L675.283 192.975L673.808 192.883L672.332 192.792L670.857 192.704L669.381 192.617L667.906 192.533L666.43 192.451L664.955 192.371L663.479 192.293L662.003 192.217L660.528 192.144L659.052 192.073L657.577 192.003L656.101 191.936L654.626 191.872L653.15 191.809L651.675 191.748L650.199 191.69L648.724 191.634L647.248 191.58L645.773 191.528L644.297 191.479L642.822 191.432L641.346 191.386L639.871 191.344L638.395 191.303L636.92 191.264L635.444 191.228L633.969 191.194L632.493 191.162L631.018 191.133L629.542 191.105L628.067 191.08L626.591 191.057L625.116 191.037L623.64 191.018L622.165 191.002L620.689 190.988L619.214 190.976L617.738 190.967L616.263 190.96L614.787 190.954L613.311 190.952L611.836 190.951L610.36 190.953L608.885 190.957L607.409 190.963L605.934 190.971L604.458 190.982L602.983 190.995L601.507 191.01L600.032 191.027L598.556 191.047L597.081 191.069L595.605 191.093L594.13 191.119L592.654 191.147L591.179 191.178L589.703 191.211L588.228 191.246L586.752 191.284L585.277 191.323L583.801 191.365L582.326 191.409L580.85 191.455L579.375 191.504L577.899 191.554L576.424 191.607L574.948 191.662L573.473 191.719L571.997 191.779L570.522 191.84L569.046 191.904L567.57 191.97L566.095 192.038L564.619 192.108L563.144 192.181L561.668 192.255L560.193 192.332L558.717 192.411L557.242 192.492L555.766 192.575L554.291 192.66L552.815 192.748L551.34 192.838L549.864 192.929L548.389 193.023L546.913 193.119L545.438 193.217L543.962 193.317L542.487 193.419L541.011 193.523L539.536 193.63L538.06 193.738L536.585 193.849L535.109 193.961L533.634 194.076L532.158 194.192L530.683 194.311L529.207 194.431L527.732 194.554L526.256 194.679L524.781 194.805L523.305 194.934L521.83 195.065L520.354 195.197L518.878 195.332L517.403 195.468L515.927 195.607L514.452 195.747L512.976 195.89L511.501 196.034L510.025 196.18L508.55 196.328L507.074 196.478L505.599 196.63L504.123 196.784L502.648 196.939L501.172 197.097L499.697 197.256L498.221 197.417L496.746 197.58L495.27 197.745L493.795 197.912L492.319 198.08L490.844 198.25L489.368 198.422L487.893 198.596L486.417 198.771L484.942 198.948L483.466 199.127L481.991 199.308L480.515 199.49L479.04 199.674L477.564 199.86L476.089 200.047L474.613 200.236L473.138 200.427L471.662 200.619L470.186 200.813L468.711 201.008L467.235 201.205L465.76 201.404L464.284 201.604L462.809 201.806L461.333 202.009L459.858 202.214L458.382 202.42L456.907 202.628L455.431 202.838L453.956 203.049L452.48 203.261L451.005 203.475L449.529 203.69L448.054 203.906L446.578 204.124L445.103 204.344L443.627 204.565L442.152 204.787L440.676 205.01L439.201 205.235L437.725 205.461L436.25 205.689L434.774 205.918L433.299 206.148L431.823 206.379L430.348 206.612L428.872 206.845L427.397 207.08L425.921 207.317L424.446 207.554L422.97 207.793L421.494 208.032L420.019 208.273L418.543 208.515L417.068 208.758L415.592 209.003L414.117 209.248L412.641 209.494L411.166 209.742L409.69 209.99L408.215 210.24L406.739 210.49L405.264 210.742L403.788 210.994L402.313 211.248L400.837 211.502L399.362 211.757L397.886 212.013L396.411 212.27L394.935 212.528L393.46 212.787L391.984 213.047L390.509 213.307L389.033 213.569L387.558 213.831L386.082 214.093L384.607 214.357L383.131 214.621L381.656 214.886L380.18 215.152L378.705 215.418L377.229 215.686L375.753 215.953L374.278 216.222L372.802 216.491L371.327 216.76L369.851 217.031L368.376 217.301L366.9 217.573L365.425 217.845L363.949 218.117L362.474 218.39L360.998 218.663L359.523 218.937L358.047 219.211L356.572 219.486L355.096 219.761L353.621 220.037L352.145 220.312L350.67 220.589L349.194 220.865L347.719 221.142L346.243 221.419L344.768 221.697L343.292 221.974L341.817 222.253L340.341 222.531L338.866 222.809L337.39 223.088L335.915 223.367L334.439 223.646L332.964 223.925L331.488 224.204L330.013 224.483L328.537 224.763L327.061 225.043L325.586 225.322L324.11 225.602L322.635 225.881L321.159 226.161L319.684 226.441L318.208 226.72L316.733 227L315.257 227.279L313.782 227.559L312.306 227.838L310.831 228.117L309.355 228.396L307.88 228.675L306.404 228.954L304.929 229.232L303.453 229.511L301.978 229.789L300.502 230.066L299.027 230.344L297.551 230.621L296.076 230.898L294.6 231.175L293.125 231.451L291.649 231.727L290.174 232.003L288.698 232.278L287.223 232.553L285.747 232.827L284.272 233.101L282.796 233.374L281.321 233.647L279.845 233.92L278.369 234.192L276.894 234.463L275.418 234.734L273.943 235.004L272.467 235.274L270.992 235.543L269.516 235.812L268.041 236.08L266.565 236.347L265.09 236.613L263.614 236.879L262.139 237.144L260.663 237.409L259.188 237.673L257.712 237.936L256.237 238.198L254.761 238.459L253.286 238.72L251.81 238.98L250.335 239.239L248.859 239.497L247.384 239.754L245.908 240.01L244.433 240.266L242.957 240.52L241.482 240.774L240.006 241.026L238.531 241.278L237.055 241.529L235.58 241.778L234.104 242.027L232.629 242.275L231.153 242.521L229.677 242.767L228.202 243.011L226.726 243.255L225.251 243.497L223.775 243.738L222.3 243.978L220.824 244.217L219.349 244.454L217.873 244.691L216.398 244.926L214.922 245.16L213.447 245.393L211.971 245.625L210.496 245.855L209.02 246.084L207.545 246.312L206.069 246.538L204.594 246.763L203.118 246.987L201.643 247.209L200.167 247.43L198.692 247.65L197.216 247.868L195.741 248.085L194.265 248.301L192.79 248.515L191.314 248.727L189.839 248.939L188.363 249.148L186.888 249.356L185.412 249.563L183.936 249.768L182.461 249.972L180.985 250.174L179.51 250.374L178.034 250.573L176.559 250.771L175.083 250.967L173.608 251.161L172.132 251.353L170.657 251.544L169.181 251.734L167.706 251.921L166.23 252.107L164.755 252.292L163.279 252.474L161.804 252.655L160.328 252.834L158.853 253.012L157.377 253.188L155.902 253.362L154.426 253.534L152.951 253.704L151.475 253.873L150 254.04L148.524 254.205L147.049 254.368L145.573 254.53L144.098 254.69L142.622 254.847L141.147 255.003L139.671 255.157L138.196 255.31L136.72 255.46L135.244 255.608L133.769 255.755L132.293 255.9L130.818 256.042L129.342 256.183L127.867 256.322L126.391 256.459L124.916 256.594L123.44 256.727L121.965 256.858L120.489 256.987L119.014 257.114L117.538 257.239L116.063 257.362L114.587 257.483L113.112 257.602L111.636 257.719L110.161 257.834L108.685 257.947L107.21 258.058L105.734 258.167L104.259 258.273L102.783 258.378L101.308 258.48L99.8321 258.581L98.3566 258.679L96.8811 258.776L95.4056 258.87L93.9301 258.962L92.4545 259.052L90.979 259.14L89.5035 259.226L88.028 259.309L86.5525 259.391L85.077 259.47L83.6014 259.547L82.1259 259.622L80.6504 259.695L79.1749 259.766L77.6994 259.834L76.2239 259.901L74.7484 259.965L73.2728 260.027L71.7973 260.087L70.3218 260.144L68.8463 260.2L67.3708 260.253L65.8953 260.304L64.4197 260.353L62.9442 260.399L61.4687 260.444L59.9932 260.486L58.5177 260.526L57.0422 260.564L55.5667 260.6L54.0911 260.633L52.6156 260.664L51.1401 260.693L49.6646 260.72L48.1891 260.744L46.7136 260.766L45.238 260.786L43.7625 260.804L42.287 260.82L40.8115 260.833L39.336 260.844L37.8605 260.853L36.385 260.859L34.9094 260.864L33.4339 260.866L31.9584 260.866L30.4829 260.863L29.0074 260.859L27.5319 260.852L26.0563 260.843L24.5808 260.832L23.1053 260.818L21.6298 260.802L20.1543 260.784L18.6788 260.764L17.2033 260.742L15.7277 260.717L14.2522 260.69L12.7767 260.661L11.3012 260.629L9.82568 260.596L8.35016 260.56L6.87465 260.522L5.39913 260.482L3.92362 260.439L2.4481 260.395L0.972588 260.348L-0.502928 260.299L-1.97844 260.247L-3.45396 260.194L-4.92947 260.138L-6.40499 260.08L-7.8805 260.02L-9.35602 259.958L-10.8315 259.894L-12.3071 259.827L-13.7826 259.758L-15.2581 259.687L-16.7336 259.614L-18.2091 259.539L-19.6846 259.462L-21.1601 259.382L-22.6357 259.3L-24.1112 259.217L-25.5867 259.131L-27.0622 259.042L-28.5377 258.952L-30.0132 258.86L-31.4888 258.766L-32.9643 258.669L-34.4398 258.57L-35.9153 258.47L-37.3908 258.367L-38.8663 258.262L-40.3418 258.155L-41.8174 258.046L-43.2929 257.935L-44.7684 257.822L-46.2439 257.707L-47.7194 257.589L-49.1949 257.47L-50.6704 257.349L-52.146 257.226L-53.6215 257.1L-55.097 256.973L-56.5725 256.844L-58.048 256.713L-59.5235 256.58L-60.9991 256.444L-62.4746 256.307L-63.9501 256.168L-65.4256 256.027L-66.9011 255.884L-68.3766 255.739L-69.8521 255.593L-71.3277 255.444L-72.8032 255.293L-74.2787 255.141L-75.7542 254.987L-77.2297 254.831L-78.7052 254.673L-80.1808 254.513L-81.6563 254.351L-83.1318 254.188L-84.6073 254.022L-86.0828 253.855L-87.5583 253.686L-89.0338 253.516L-90.5094 253.343L-91.9849 253.169L-93.4604 252.993L-94.9359 252.815L-96.4114 252.636L-97.8869 252.455L-99.3625 252.272L-100.838 252.088L-102.313 251.901L-103.789 251.714L-105.265 251.524L-106.74 251.333L-108.216 251.14L-109.691 250.946L-111.167 250.75L-112.642 250.552L-114.118 250.353L-115.593 250.152L-117.069 249.95" stroke="#000E1E" stroke-width="30" stroke-miterlimit="10" stroke-linecap="round" stroke-linejoin="round"/>
<path d="M1531.08 238.572L1529.61 238.842L1528.13 239.112L1526.66 239.383L1525.18 239.655L1523.7 239.927L1522.23 240.199L1520.75 240.472L1519.28 240.746L1517.8 241.02L1516.33 241.294L1514.85 241.569L1513.38 241.844L1511.9 242.12L1510.42 242.396L1508.95 242.672L1507.47 242.949L1506 243.226L1504.52 243.503L1503.05 243.781L1501.57 244.059L1500.1 244.337L1498.62 244.615L1497.15 244.894L1495.67 245.173L1494.19 245.451L1492.72 245.731L1491.24 246.01L1489.77 246.289L1488.29 246.568L1486.82 246.848L1485.34 247.128L1483.87 247.407L1482.39 247.687L1480.91 247.966L1479.44 248.246L1477.96 248.526L1476.49 248.805L1475.01 249.085L1473.54 249.364L1472.06 249.644L1470.59 249.923L1469.11 250.202L1467.63 250.481L1466.16 250.76L1464.68 251.038L1463.21 251.317L1461.73 251.595L1460.26 251.873L1458.78 252.151L1457.31 252.428L1455.83 252.705L1454.36 252.982L1452.88 253.259L1451.4 253.535L1449.93 253.811L1448.45 254.086L1446.98 254.361L1445.5 254.636L1444.03 254.91L1442.55 255.183L1441.08 255.457L1439.6 255.729L1438.12 256.002L1436.65 256.274L1435.17 256.545L1433.7 256.815L1432.22 257.085L1430.75 257.355L1429.27 257.624L1427.8 257.892L1426.32 258.16L1424.84 258.427L1423.37 258.693L1421.89 258.959L1420.42 259.224L1418.94 259.488L1417.47 259.751L1415.99 260.014L1414.52 260.276L1413.04 260.537L1411.57 260.797L1410.09 261.057L1408.61 261.315L1407.14 261.573L1405.66 261.83L1404.19 262.086L1402.71 262.341L1401.24 262.595L1399.76 262.848L1398.29 263.1L1396.81 263.352L1395.33 263.602L1393.86 263.851L1392.38 264.1L1390.91 264.347L1389.43 264.593L1387.96 264.838L1386.48 265.082L1385.01 265.325L1383.53 265.567L1382.05 265.807L1380.58 266.047L1379.1 266.285L1377.63 266.522L1376.15 266.758L1374.68 266.993L1373.2 267.227L1371.73 267.459L1370.25 267.69L1368.78 267.92L1367.3 268.149L1365.82 268.376L1364.35 268.602L1362.87 268.826L1361.4 269.049L1359.92 269.271L1358.45 269.492L1356.97 269.711L1355.5 269.929L1354.02 270.145L1352.54 270.36L1351.07 270.573L1349.59 270.785L1348.12 270.996L1346.64 271.205L1345.17 271.413L1343.69 271.619L1342.22 271.823L1340.74 272.026L1339.27 272.228L1337.79 272.428L1336.31 272.626L1334.84 272.823L1333.36 273.018L1331.89 273.211L1330.41 273.403L1328.94 273.594L1327.46 273.782L1325.99 273.969L1324.51 274.155L1323.03 274.338L1321.56 274.52L1320.08 274.7L1318.61 274.879L1317.13 275.056L1315.66 275.231L1314.18 275.404L1312.71 275.576L1311.23 275.745L1309.75 275.913L1308.28 276.08L1306.8 276.244L1305.33 276.407L1303.85 276.567L1302.38 276.726L1300.9 276.883L1299.43 277.039L1297.95 277.192L1296.48 277.343L1295 277.493L1293.52 277.641L1292.05 277.786L1290.57 277.93L1289.1 278.072L1287.62 278.212L1286.15 278.35L1284.67 278.487L1283.2 278.621L1281.72 278.753L1280.24 278.883L1278.77 279.011L1277.29 279.138L1275.82 279.262L1274.34 279.384L1272.87 279.504L1271.39 279.623L1269.92 279.739L1268.44 279.853L1266.96 279.965L1265.49 280.075L1264.01 280.183L1262.54 280.289L1261.06 280.393L1259.59 280.494L1258.11 280.594L1256.64 280.692L1255.16 280.787L1253.69 280.881L1252.21 280.972L1250.73 281.061L1249.26 281.148L1247.78 281.233L1246.31 281.316L1244.83 281.396L1243.36 281.475L1241.88 281.551L1240.41 281.625L1238.93 281.697L1237.45 281.767L1235.98 281.835L1234.5 281.9L1233.03 281.963L1231.55 282.025L1230.08 282.084L1228.6 282.14L1227.13 282.195L1225.65 282.247L1224.17 282.297L1222.7 282.345L1221.22 282.391L1219.75 282.435L1218.27 282.476L1216.8 282.515L1215.32 282.552L1213.85 282.587L1212.37 282.619L1210.9 282.65L1209.42 282.678L1207.94 282.703L1206.47 282.727L1204.99 282.748L1203.52 282.767L1202.04 282.784L1200.57 282.799L1199.09 282.811L1197.62 282.821L1196.14 282.829L1194.66 282.835L1193.19 282.839L1191.71 282.84L1190.24 282.839L1188.76 282.836L1187.29 282.83L1185.81 282.822L1184.34 282.812L1182.86 282.8L1181.38 282.786L1179.91 282.769L1178.43 282.75L1176.96 282.729L1175.48 282.706L1174.01 282.68L1172.53 282.652L1171.06 282.622L1169.58 282.59L1168.11 282.556L1166.63 282.519L1165.15 282.48L1163.68 282.439L1162.2 282.395L1160.73 282.35L1159.25 282.302L1157.78 282.252L1156.3 282.2L1154.83 282.146L1153.35 282.089L1151.87 282.03L1150.4 281.969L1148.92 281.906L1147.45 281.841L1145.97 281.774L1144.5 281.704L1143.02 281.632L1141.55 281.558L1140.07 281.482L1138.59 281.404L1137.12 281.323L1135.64 281.241L1134.17 281.156L1132.69 281.069L1131.22 280.981L1129.74 280.89L1128.27 280.796L1126.79 280.701L1125.32 280.604L1123.84 280.504L1122.36 280.403L1120.89 280.299L1119.41 280.193L1117.94 280.086L1116.46 279.976L1114.99 279.864L1113.51 279.75L1112.04 279.634L1110.56 279.516L1109.08 279.396L1107.61 279.274L1106.13 279.15L1104.66 279.024L1103.18 278.896L1101.71 278.766L1100.23 278.634L1098.76 278.5L1097.28 278.364L1095.8 278.226L1094.33 278.086L1092.85 277.944L1091.38 277.801L1089.9 277.655L1088.43 277.507L1086.95 277.358L1085.48 277.207L1084 277.054L1082.53 276.899L1081.05 276.742L1079.57 276.583L1078.1 276.422L1076.62 276.26L1075.15 276.096L1073.67 275.93L1072.2 275.762L1070.72 275.592L1069.25 275.421L1067.77 275.248L1066.29 275.073L1064.82 274.896L1063.34 274.718L1061.87 274.538L1060.39 274.356L1058.92 274.173L1057.44 273.987L1055.97 273.801L1054.49 273.612L1053.02 273.422L1051.54 273.23L1050.06 273.037L1048.59 272.842L1047.11 272.645L1045.64 272.447L1044.16 272.247L1042.69 272.046L1041.21 271.843L1039.74 271.639L1038.26 271.433L1036.78 271.225L1035.31 271.016L1033.83 270.806L1032.36 270.594L1030.88 270.381L1029.41 270.166L1027.93 269.95L1026.46 269.732L1024.98 269.513L1023.5 269.293L1022.03 269.071L1020.55 268.848L1019.08 268.624L1017.6 268.398L1016.13 268.171L1014.65 267.942L1013.18 267.713L1011.7 267.482L1010.23 267.249L1008.75 267.016L1007.27 266.781L1005.8 266.545L1004.32 266.308L1002.85 266.07L1001.37 265.831L999.896 265.59L998.421 265.349L996.945 265.106L995.47 264.862L993.994 264.617L992.519 264.371L991.043 264.124L989.568 263.875L988.092 263.626L986.617 263.376L985.141 263.125L983.666 262.873L982.19 262.62L980.715 262.366L979.239 262.111L977.764 261.855L976.288 261.598L974.813 261.34L973.337 261.082L971.862 260.822L970.386 260.562L968.911 260.301L967.435 260.039L965.96 259.777L964.484 259.513L963.009 259.249L961.533 258.984L960.058 258.719L958.582 258.453L957.107 258.186L955.631 257.918L954.155 257.65L952.68 257.381L951.204 257.112L949.729 256.842L948.253 256.571L946.778 256.3L945.302 256.028L943.827 255.756L942.351 255.483L940.876 255.21L939.4 254.936L937.925 254.662L936.449 254.388L934.974 254.113L933.498 253.837L932.023 253.562L930.547 253.285L929.072 253.009L927.596 252.732L926.121 252.455L924.645 252.178L923.17 251.9L921.694 251.622L920.219 251.344L918.743 251.065L917.268 250.787L915.792 250.508L914.317 250.229L912.841 249.95L911.366 249.671L909.89 249.391L908.414 249.112L906.939 248.832L905.463 248.553L903.988 248.273L902.512 247.994L901.037 247.714L899.561 247.434L898.086 247.155L896.61 246.875L895.135 246.596L893.659 246.316L892.184 246.037L890.708 245.758L889.233 245.479L887.757 245.2L886.282 244.921L884.806 244.642L883.331 244.364L881.855 244.086L880.38 243.808L878.904 243.53L877.429 243.253L875.953 242.976L874.478 242.699L873.002 242.423L871.527 242.147L870.051 241.871L868.576 241.596L867.1 241.321L865.625 241.046L864.149 240.772L862.674 240.499L861.198 240.226L859.722 239.953L858.247 239.681L856.771 239.409L855.296 239.138L853.82 238.868L852.345 238.598L850.869 238.329L849.394 238.06L847.918 237.792L846.443 237.524L844.967 237.258L843.492 236.992L842.016 236.726L840.541 236.461L839.065 236.198L837.59 235.934L836.114 235.672L834.639 235.41L833.163 235.149L831.688 234.889L830.212 234.63L828.737 234.372L827.261 234.114L825.786 233.858L824.31 233.602L822.835 233.347L821.359 233.093L819.884 232.84L818.408 232.588L816.933 232.337L815.457 232.087L813.982 231.838L812.506 231.591L811.03 231.344L809.555 231.098L808.079 230.853L806.604 230.609L805.128 230.367L803.653 230.125L802.177 229.885L800.702 229.646L799.226 229.408L797.751 229.171L796.275 228.935L794.8 228.701L793.324 228.468L791.849 228.236L790.373 228.005L788.898 227.776L787.422 227.548L785.947 227.321L784.471 227.095L782.996 226.871L781.52 226.648L780.045 226.427L778.569 226.207L777.094 225.988L775.618 225.771L774.143 225.555L772.667 225.34L771.192 225.127L769.716 224.916L768.241 224.706L766.765 224.497L765.289 224.29L763.814 224.084L762.338 223.88L760.863 223.678L759.387 223.477L757.912 223.277L756.436 223.079L754.961 222.883L753.485 222.688L752.01 222.495L750.534 222.304L749.059 222.114L747.583 221.926L746.108 221.739L744.632 221.555L743.157 221.371L741.681 221.19L740.206 221.01L738.73 220.832L737.255 220.656L735.779 220.481L734.304 220.309L732.828 220.138L731.353 219.968L729.877 219.801L728.402 219.635L726.926 219.471L725.451 219.309L723.975 219.149L722.5 218.991L721.024 218.834L719.549 218.68L718.073 218.527L716.597 218.376L715.122 218.227L713.646 218.08L712.171 217.935L710.695 217.791L709.22 217.65L707.744 217.51L706.269 217.373L704.793 217.237L703.318 217.104L701.842 216.972L700.367 216.843L698.891 216.715L697.416 216.589L695.94 216.466L694.465 216.344L692.989 216.224L691.514 216.107L690.038 215.991L688.563 215.878L687.087 215.766L685.612 215.657L684.136 215.549L682.661 215.444L681.185 215.341L679.71 215.24L678.234 215.141L676.759 215.044L675.283 214.949L673.808 214.856L672.332 214.766L670.857 214.677L669.381 214.591L667.905 214.507L666.43 214.424L664.954 214.345L663.479 214.267L662.003 214.191L660.528 214.118L659.052 214.046L657.577 213.977L656.101 213.91L654.626 213.845L653.15 213.782L651.675 213.722L650.199 213.664L648.724 213.608L647.248 213.554L645.773 213.502L644.297 213.452L642.822 213.405L641.346 213.36L639.871 213.317L638.395 213.276L636.92 213.238L635.444 213.202L633.969 213.168L632.493 213.136L631.018 213.106L629.542 213.079L628.067 213.054L626.591 213.031L625.116 213.01L623.64 212.992L622.164 212.976L620.689 212.962L619.213 212.95L617.738 212.94L616.262 212.933L614.787 212.928L613.311 212.925L611.836 212.925L610.36 212.926L608.885 212.93L607.409 212.937L605.934 212.945L604.458 212.956L602.983 212.968L601.507 212.984L600.032 213.001L598.556 213.02L597.081 213.042L595.605 213.066L594.13 213.093L592.654 213.121L591.179 213.152L589.703 213.185L588.228 213.22L586.752 213.257L585.277 213.297L583.801 213.339L582.326 213.383L580.85 213.429L579.375 213.477L577.899 213.528L576.424 213.581L574.948 213.636L573.472 213.693L571.997 213.752L570.521 213.814L569.046 213.878L567.57 213.943L566.095 214.012L564.619 214.082L563.144 214.154L561.668 214.229L560.193 214.306L558.717 214.385L557.242 214.466L555.766 214.549L554.291 214.634L552.815 214.722L551.34 214.811L549.864 214.903L548.389 214.997L546.913 215.093L545.438 215.191L543.962 215.291L542.487 215.393L541.011 215.497L539.536 215.603L538.06 215.712L536.585 215.822L535.109 215.935L533.634 216.049L532.158 216.166L530.683 216.284L529.207 216.405L527.732 216.528L526.256 216.652L524.78 216.779L523.305 216.908L521.829 217.038L520.354 217.171L518.878 217.306L517.403 217.442L515.927 217.581L514.452 217.721L512.976 217.863L511.501 218.008L510.025 218.154L508.55 218.302L507.074 218.452L505.599 218.604L504.123 218.757L502.648 218.913L501.172 219.07L499.697 219.23L498.221 219.391L496.746 219.554L495.27 219.719L493.795 219.885L492.319 220.053L490.844 220.224L489.368 220.396L487.893 220.569L486.417 220.745L484.942 220.922L483.466 221.101L481.991 221.281L480.515 221.464L479.039 221.648L477.564 221.833L476.088 222.021L474.613 222.21L473.137 222.4L471.662 222.592L470.186 222.786L468.711 222.982L467.235 223.179L465.76 223.378L464.284 223.578L462.809 223.78L461.333 223.983L459.858 224.188L458.382 224.394L456.907 224.602L455.431 224.811L453.956 225.022L452.48 225.234L451.005 225.448L449.529 225.663L448.054 225.88L446.578 226.098L445.103 226.317L443.627 226.538L442.152 226.76L440.676 226.984L439.201 227.209L437.725 227.435L436.25 227.662L434.774 227.891L433.299 228.121L431.823 228.353L430.347 228.585L428.872 228.819L427.396 229.054L425.921 229.29L424.445 229.528L422.97 229.766L421.494 230.006L420.019 230.247L418.543 230.489L417.068 230.732L415.592 230.976L414.117 231.222L412.641 231.468L411.166 231.715L409.69 231.964L408.215 232.213L406.739 232.464L405.264 232.715L403.788 232.968L402.313 233.221L400.837 233.476L399.362 233.731L397.886 233.987L396.411 234.244L394.935 234.502L393.46 234.761L391.984 235.02L390.509 235.281L389.033 235.542L387.558 235.804L386.082 236.067L384.607 236.331L383.131 236.595L381.655 236.86L380.18 237.126L378.704 237.392L377.229 237.659L375.753 237.927L374.278 238.195L372.802 238.464L371.327 238.734L369.851 239.004L368.376 239.275L366.9 239.546L365.425 239.818L363.949 240.091L362.474 240.363L360.998 240.637L359.523 240.911L358.047 241.185L356.572 241.46L355.096 241.735L353.621 242.01L352.145 242.286L350.67 242.562L349.194 242.839L347.719 243.116L346.243 243.393L344.768 243.67L343.292 243.948L341.817 244.226L340.341 244.504L338.866 244.783L337.39 245.061L335.914 245.34L334.439 245.619L332.963 245.898L331.488 246.178L330.012 246.457L328.537 246.737L327.061 247.016L325.586 247.296L324.11 247.575L322.635 247.855L321.159 248.135L319.684 248.414L318.208 248.694L316.733 248.973L315.257 249.253L313.782 249.532L312.306 249.812L310.831 250.091L309.355 250.37L307.88 250.649L306.404 250.927L304.929 251.206L303.453 251.484L301.978 251.762L300.502 252.04L299.027 252.318L297.551 252.595L296.076 252.872L294.6 253.148L293.125 253.425L291.649 253.701L290.174 253.976L288.698 254.251L287.222 254.526L285.747 254.801L284.271 255.074L282.796 255.348L281.32 255.621L279.845 255.893L278.369 256.165L276.894 256.437L275.418 256.708L273.943 256.978L272.467 257.248L270.992 257.517L269.516 257.785L268.041 258.053L266.565 258.32L265.09 258.587L263.614 258.853L262.139 259.118L260.663 259.382L259.188 259.646L257.712 259.909L256.237 260.171L254.761 260.433L253.286 260.693L251.81 260.953L250.335 261.212L248.859 261.47L247.384 261.727L245.908 261.984L244.433 262.239L242.957 262.494L241.481 262.747L240.006 263L238.53 263.252L237.055 263.502L235.579 263.752L234.104 264.001L232.628 264.248L231.153 264.495L229.677 264.741L228.202 264.985L226.726 265.228L225.251 265.471L223.775 265.712L222.3 265.952L220.824 266.19L219.349 266.428L217.873 266.665L216.398 266.9L214.922 267.134L213.447 267.367L211.971 267.598L210.496 267.829L209.02 268.058L207.545 268.285L206.069 268.512L204.594 268.737L203.118 268.961L201.643 269.183L200.167 269.404L198.692 269.624L197.216 269.842L195.741 270.059L194.265 270.274L192.789 270.488L191.314 270.701L189.838 270.912L188.363 271.122L186.887 271.33L185.412 271.537L183.936 271.742L182.461 271.945L180.985 272.148L179.51 272.348L178.034 272.547L176.559 272.744L175.083 272.94L173.608 273.134L172.132 273.327L170.657 273.518L169.181 273.707L167.706 273.895L166.23 274.081L164.755 274.265L163.279 274.448L161.804 274.629L160.328 274.808L158.853 274.985L157.377 275.161L155.902 275.335L154.426 275.508L152.951 275.678L151.475 275.847L150 276.014L148.524 276.179L147.049 276.342L145.573 276.503L144.097 276.663L142.622 276.821L141.146 276.977L139.671 277.131L138.195 277.283L136.72 277.434L135.244 277.582L133.769 277.729L132.293 277.873L130.818 278.016L129.342 278.157L127.867 278.296L126.391 278.432L124.916 278.567L123.44 278.7L121.965 278.831L120.489 278.96L119.014 279.088L117.538 279.213L116.063 279.336L114.587 279.457L113.112 279.576L111.636 279.693L110.161 279.808L108.685 279.921L107.21 280.031L105.734 280.14L104.259 280.247L102.783 280.352L101.308 280.454L99.832 280.555L98.3565 280.653L96.881 280.749L95.4055 280.844L93.9299 280.936L92.4544 281.026L90.9789 281.113L89.5034 281.199L88.0279 281.283L86.5524 281.364L85.0769 281.444L83.6013 281.521L82.1258 281.596L80.6503 281.669L79.1748 281.739L77.6993 281.808L76.2238 281.874L74.7482 281.938L73.2727 282L71.7972 282.06L70.3217 282.118L68.8462 282.173L67.3707 282.227L65.8952 282.278L64.4196 282.326L62.9441 282.373L61.4686 282.418L59.9931 282.46L58.5176 282.5L57.0421 282.538L55.5665 282.573L54.091 282.607L52.6155 282.638L51.14 282.667L49.6645 282.693L48.189 282.718L46.7135 282.74L45.2379 282.76L43.7624 282.778L42.2869 282.793L40.8114 282.807L39.3359 282.818L37.8604 282.826L36.3848 282.833L34.9093 282.837L33.4338 282.84L31.9583 282.839L30.4828 282.837L29.0073 282.832L27.5318 282.826L26.0562 282.817L24.5807 282.805L23.1052 282.792L21.6297 282.776L20.1542 282.758L18.6787 282.738L17.2031 282.715L15.7276 282.691L14.2521 282.664L12.7766 282.634L11.3011 282.603L9.82557 282.569L8.35005 282.534L6.87454 282.496L5.39902 282.455L3.9235 282.413L2.44799 282.368L0.972474 282.321L-0.503042 282.272L-1.97856 282.221L-3.45407 282.167L-4.92959 282.112L-6.4051 282.054L-7.88062 281.994L-9.35613 281.932L-10.8317 281.867L-12.3072 281.801L-13.7827 281.732L-15.2582 281.661L-16.7337 281.588L-18.2092 281.513L-19.6847 281.435L-21.1603 281.356L-22.6358 281.274L-24.1113 281.19L-25.5868 281.104L-27.0623 281.016L-28.5378 280.926L-30.0134 280.834L-31.4889 280.739L-32.9644 280.643L-34.4399 280.544L-35.9154 280.443L-37.3909 280.34L-38.8664 280.236L-40.342 280.129L-41.8175 280.02L-43.293 279.909L-44.7685 279.795L-46.244 279.68L-47.7195 279.563L-49.1951 279.444L-50.6706 279.323L-52.1461 279.199L-53.6216 279.074L-55.0971 278.947L-56.5726 278.818L-58.0481 278.686L-59.5237 278.553L-60.9992 278.418L-62.4747 278.281L-63.9502 278.142L-65.4257 278.001L-66.9012 277.858L-68.3768 277.713L-69.8523 277.566L-71.3278 277.418L-72.8033 277.267L-74.2788 277.115L-75.7543 276.96L-77.2298 276.804L-78.7054 276.646L-80.1809 276.486L-81.6564 276.325L-83.1319 276.161L-84.6074 275.996L-86.0829 275.829L-87.5585 275.66L-89.034 275.489L-90.5095 275.317L-91.985 275.143L-93.4605 274.967L-94.936 274.789L-96.4115 274.61L-97.8871 274.428L-99.3626 274.246L-100.838 274.061L-102.314 273.875L-103.789 273.687L-105.265 273.498L-106.74 273.307L-108.216 273.114L-109.691 272.919L-111.167 272.723L-112.642 272.526L-114.118 272.327L-115.593 272.126L-117.069 271.924L-118.544 271.72" stroke="#000E1E" stroke-width="30" stroke-miterlimit="10" stroke-linecap="round" stroke-linejoin="round"/>
<rect x="2.81659" y="287.852" width="1501.6" height="550.295" fill="#000E1E" stroke="#000E1E" stroke-width="30"/>
</g>
<defs>
<clipPath id="clip0_1487_3083">
<rect width="1512" height="467" fill="white"/>
</clipPath>
</defs>
</svg>
