<svg width="1512" height="401" viewBox="0 0 1512 401" fill="none" xmlns="http://www.w3.org/2000/svg">
<rect x="1530.16" y="400.026" width="1630.92" height="318.612" transform="rotate(-180 1530.16 400.026)" fill="#000E1E" stroke="#000E1E"/>
<path d="M1569 35.041L1567.52 35.307L1566.05 35.5737L1564.57 35.8411L1563.1 36.1091L1561.62 36.3777L1560.15 36.647L1558.67 36.9168L1557.2 37.1873L1555.72 37.4583L1554.24 37.7298L1552.77 38.0018L1551.29 38.2744L1549.82 38.5475L1548.34 38.821L1546.87 39.095L1545.39 39.3694L1543.92 39.6443L1542.44 39.9196L1540.97 40.1952L1539.49 40.4712L1538.01 40.7476L1536.54 41.0243L1535.06 41.3013L1533.59 41.5786L1532.11 41.8562L1530.64 42.1341L1529.16 42.4122L1527.69 42.6905L1526.21 42.969L1524.73 43.2478L1523.26 43.5267L1521.78 43.8057L1520.31 44.0849L1518.83 44.3643L1517.36 44.6437L1515.88 44.9232L1514.41 45.2028L1512.93 45.4823L1511.45 45.762L1509.98 46.0417L1508.5 46.3213L1507.03 46.601L1505.55 46.8806L1504.08 47.1601L1502.6 47.4395L1501.13 47.7189L1499.65 47.9981L1498.18 48.2772L1496.7 48.5562L1495.22 48.835L1493.75 49.1136L1492.27 49.392L1490.8 49.6702L1489.32 49.9482L1487.85 50.2259L1486.37 50.5033L1484.9 50.7804L1483.42 51.0573L1481.94 51.3338L1480.47 51.6099L1478.99 51.8857L1477.52 52.1612L1476.04 52.4362L1474.57 52.7108L1473.09 52.9849L1471.62 53.2587L1470.14 53.5319L1468.66 53.8047L1467.19 54.077L1465.71 54.3487L1464.24 54.6199L1462.76 54.8906L1461.29 55.1607L1459.81 55.4302L1458.34 55.6991L1456.86 55.9673L1455.39 56.235L1453.91 56.5019L1452.43 56.7682L1450.96 57.0338L1449.48 57.2987L1448.01 57.5629L1446.53 57.8263L1445.06 58.089L1443.58 58.3509L1442.11 58.612L1440.63 58.8722L1439.15 59.1317L1437.68 59.3903L1436.2 59.6481L1434.73 59.9049L1433.25 60.1609L1431.78 60.416L1430.3 60.6702L1428.83 60.9234L1427.35 61.1756L1425.88 61.4269L1424.4 61.6772L1422.92 61.9265L1421.45 62.1748L1419.97 62.422L1418.5 62.6682L1417.02 62.9132L1415.55 63.1573L1414.07 63.4002L1412.6 63.642L1411.12 63.8827L1409.64 64.1222L1408.17 64.3605L1406.69 64.5977L1405.22 64.8337L1403.74 65.0685L1402.27 65.302L1400.79 65.5343L1399.32 65.7654L1397.84 65.9952L1396.36 66.2237L1394.89 66.4509L1393.41 66.6768L1391.94 66.9014L1390.46 67.1247L1388.99 67.3465L1387.51 67.567L1386.04 67.7862L1384.56 68.0039L1383.09 68.2202L1381.61 68.4351L1380.13 68.6486L1378.66 68.8606L1377.18 69.0712L1375.71 69.2802L1374.23 69.4878L1372.76 69.6939L1371.28 69.8984L1369.81 70.1014L1368.33 70.3029L1366.85 70.5028L1365.38 70.7011L1363.9 70.8979L1362.43 71.0931L1360.95 71.2866L1359.48 71.4785L1358 71.6688L1356.53 71.8575L1355.05 72.0445L1353.57 72.2298L1352.1 72.4134L1350.62 72.5954L1349.15 72.7756L1347.67 72.9542L1346.2 73.131L1344.72 73.306L1343.25 73.4793L1341.77 73.6509L1340.3 73.8207L1338.82 73.9887L1337.34 74.1549L1335.87 74.3192L1334.39 74.4818L1332.92 74.6426L1331.44 74.8015L1329.97 74.9586L1328.49 75.1138L1327.02 75.2672L1325.54 75.4186L1324.06 75.5682L1322.59 75.7159L1321.11 75.8617L1319.64 76.0056L1318.16 76.1475L1316.69 76.2876L1315.21 76.4256L1313.74 76.5618L1312.26 76.6959L1310.78 76.8281L1309.31 76.9584L1307.83 77.0866L1306.36 77.2128L1304.88 77.3371L1303.41 77.4593L1301.93 77.5796L1300.46 77.6978L1298.98 77.814L1297.51 77.9281L1296.03 78.0402L1294.55 78.1502L1293.08 78.2582L1291.6 78.3641L1290.13 78.4679L1288.65 78.5697L1287.18 78.6693L1285.7 78.7669L1284.23 78.8624L1282.75 78.9558L1281.27 79.047L1279.8 79.1361L1278.32 79.2231L1276.85 79.308L1275.37 79.3908L1273.9 79.4714L1272.42 79.5499L1270.95 79.6262L1269.47 79.7003L1267.99 79.7723L1266.52 79.8422L1265.04 79.9098L1263.57 79.9753L1262.09 80.0386L1260.62 80.0998L1259.14 80.1587L1257.67 80.2155L1256.19 80.27L1254.72 80.3224L1253.24 80.3726L1251.76 80.4206L1250.29 80.4663L1248.81 80.5099L1247.34 80.5513L1245.86 80.5904L1244.39 80.6273L1242.91 80.662L1241.44 80.6945L1239.96 80.7247L1238.48 80.7527L1237.01 80.7785L1235.53 80.8021L1234.06 80.8234L1232.58 80.8426L1231.11 80.8594L1229.63 80.8741L1228.16 80.8865L1226.68 80.8967L1225.2 80.9046L1223.73 80.9103L1222.25 80.9138L1220.78 80.915L1219.3 80.914L1217.83 80.9107L1216.35 80.9053L1214.88 80.8975L1213.4 80.8876L1211.93 80.8754L1210.45 80.861L1208.97 80.8443L1207.5 80.8254L1206.02 80.8043L1204.55 80.7809L1203.07 80.7554L1201.6 80.7275L1200.12 80.6975L1198.65 80.6652L1197.17 80.6307L1195.69 80.594L1194.22 80.5552L1192.74 80.514L1191.27 80.4707L1189.79 80.4251L1188.32 80.3774L1186.84 80.3274L1185.37 80.2752L1183.89 80.2209L1182.41 80.1643L1180.94 80.1056L1179.46 80.0447L1177.99 79.9816L1176.51 79.9163L1175.04 79.8488L1173.56 79.7792L1172.09 79.7074L1170.61 79.6335L1169.14 79.5573L1167.66 79.4791L1166.18 79.3987L1164.71 79.3161L1163.23 79.2315L1161.76 79.1447L1160.28 79.0558L1158.81 78.9647L1157.33 78.8715L1155.86 78.7763L1154.38 78.6789L1152.9 78.5794L1151.43 78.4779L1149.95 78.3743L1148.48 78.2686L1147 78.1608L1145.53 78.051L1144.05 77.9391L1142.58 77.8251L1141.1 77.7092L1139.63 77.5912L1138.15 77.4711L1136.67 77.3491L1135.2 77.225L1133.72 77.099L1132.25 76.9709L1130.77 76.8409L1129.3 76.7088L1127.82 76.5749L1126.35 76.4389L1124.87 76.301L1123.39 76.1612L1121.92 76.0194L1120.44 75.8757L1118.97 75.7301L1117.49 75.5826L1116.02 75.4332L1114.54 75.282L1113.07 75.1288L1111.59 74.9737L1110.11 74.8168L1108.64 74.6581L1107.16 74.4975L1105.69 74.3351L1104.21 74.1709L1102.74 74.0049L1101.26 73.8371L1099.79 73.6675L1098.31 73.4961L1096.84 73.3229L1095.36 73.148L1093.88 72.9714L1092.41 72.7931L1090.93 72.613L1089.46 72.4312L1087.98 72.2477L1086.51 72.0625L1085.03 71.8757L1083.56 71.6872L1082.08 71.4971L1080.6 71.3053L1079.13 71.1119L1077.65 70.9169L1076.18 70.7203L1074.7 70.5221L1073.23 70.3224L1071.75 70.121L1070.28 69.9182L1068.8 69.7138L1067.32 69.5079L1065.85 69.3004L1064.37 69.0915L1062.9 68.8811L1061.42 68.6693L1059.95 68.456L1058.47 68.2412L1057 68.025L1055.52 67.8074L1054.05 67.5884L1052.57 67.368L1051.09 67.1463L1049.62 66.9231L1048.14 66.6987L1046.67 66.4729L1045.19 66.2458L1043.72 66.0174L1042.24 65.7878L1040.77 65.5568L1039.29 65.3246L1037.81 65.0912L1036.34 64.8565L1034.86 64.6207L1033.39 64.3836L1031.91 64.1454L1030.44 63.906L1028.96 63.6654L1027.49 63.4237L1026.01 63.1809L1024.53 62.937L1023.06 62.692L1021.58 62.4459L1020.11 62.1988L1018.63 61.9506L1017.16 61.7015L1015.68 61.4513L1014.21 61.2001L1012.73 60.9479L1011.26 60.6948L1009.78 60.4408L1008.3 60.1858L1006.83 59.9298L1005.35 59.6731L1003.88 59.4154L1002.4 59.1569L1000.93 58.8975L999.451 58.6373L997.976 58.3762L996.5 58.1144L995.025 57.8519L993.549 57.5885L992.073 57.3244L990.598 57.0596L989.122 56.794L987.647 56.5278L986.171 56.2609L984.696 55.9933L983.22 55.7251L981.745 55.4563L980.269 55.1869L978.794 54.9168L977.318 54.6462L975.843 54.3751L974.367 54.1034L972.892 53.8312L971.416 53.5584L969.941 53.2852L968.465 53.0115L966.99 52.7374L965.514 52.4629L964.039 52.1879L962.563 51.9125L961.088 51.6367L959.612 51.3606L958.137 51.0841L956.661 50.8073L955.186 50.5302L953.71 50.2528L952.235 49.9752L950.759 49.6972L949.284 49.419L947.808 49.1407L946.333 48.8621L944.857 48.5833L943.381 48.3043L941.906 48.0252L940.43 47.746L938.955 47.4666L937.479 47.1872L936.004 46.9077L934.528 46.6281L933.053 46.3485L931.577 46.0688L930.102 45.7891L928.626 45.5095L927.151 45.2299L925.675 44.9503L924.2 44.6708L922.724 44.3914L921.249 44.112L919.773 43.8328L918.298 43.5538L916.822 43.2748L915.347 42.9961L913.871 42.7175L912.396 42.4392L910.92 42.1611L909.445 41.8832L907.969 41.6056L906.494 41.3282L905.018 41.0512L903.543 40.7745L902.067 40.4981L900.592 40.222L899.116 39.9463L897.641 39.671L896.165 39.3961L894.689 39.1216L893.214 38.8476L891.738 38.574L890.263 38.3009L888.787 38.0283L887.312 37.7561L885.836 37.4846L884.361 37.2135L882.885 36.943L881.41 36.6731L879.934 36.4038L878.459 36.1351L876.983 35.867L875.508 35.5996L874.032 35.3328L872.557 35.0667L871.081 34.8014L869.606 34.5367L868.13 34.2727L866.655 34.0095L865.179 33.7471L863.704 33.4855L862.228 33.2246L860.753 32.9645L859.277 32.7053L857.802 32.447L856.326 32.1895L854.851 31.9329L853.375 31.6772L851.9 31.4224L850.424 31.1685L848.949 30.9155L847.473 30.6636L845.997 30.4126L844.522 30.1626L843.046 29.9137L841.571 29.6657L840.095 29.4188L838.62 29.1729L837.144 28.9282L835.669 28.6845L834.193 28.4419L832.718 28.2004L831.242 27.9601L829.767 27.7209L828.291 27.4829L826.816 27.2461L825.34 27.0105L823.865 26.7761L822.389 26.5429L820.914 26.3109L819.438 26.0803L817.963 25.8508L816.487 25.6227L815.012 25.3959L813.536 25.1704L812.061 24.9462L810.585 24.7234L809.11 24.5019L807.634 24.2818L806.159 24.0631L804.683 23.8458L803.208 23.6299L801.732 23.4154L800.256 23.2024L798.781 22.9908L797.305 22.7807L795.83 22.5721L794.354 22.365L792.879 22.1594L791.403 21.9553L789.928 21.7527L788.452 21.5517L786.977 21.3523L785.501 21.1544L784.026 20.9582L782.55 20.7635L781.075 20.5704L779.599 20.379L778.124 20.1892L776.648 20.001L775.173 19.8145L773.697 19.6297L772.222 19.4466L770.746 19.2651L769.271 19.0854L767.795 18.9074L766.32 18.7311L764.844 18.5566L763.369 18.3838L761.893 18.2128L760.418 18.0435L758.942 17.8761L757.467 17.7104L755.991 17.5466L754.516 17.3846L753.04 17.2244L751.564 17.066L750.089 16.9095L748.613 16.7548L747.138 16.602L745.662 16.4511L744.187 16.3021L742.711 16.155L741.236 16.0097L739.76 15.8664L738.285 15.7251L736.809 15.5856L735.334 15.4481L733.858 15.3126L732.383 15.179L730.907 15.0474L729.432 14.9178L727.956 14.7901L726.481 14.6645L725.005 14.5408L723.53 14.4192L722.054 14.2996L720.579 14.182L719.103 14.0664L717.628 13.9529L716.152 13.8414L714.677 13.732L713.201 13.6247L711.726 13.5194L710.25 13.4162L708.775 13.3151L707.299 13.216L705.824 13.1191L704.348 13.0243L702.872 12.9315L701.397 12.8409L699.921 12.7524L698.446 12.666L696.97 12.5818L695.495 12.4997L694.019 12.4197L692.544 12.3419L691.068 12.2662L689.593 12.1927L688.117 12.1214L686.642 12.0522L685.166 11.9852L683.691 11.9203L682.215 11.8577L680.74 11.7972L679.264 11.7389L677.789 11.6828L676.313 11.6289L674.838 11.5772L673.362 11.5277L671.887 11.4803L670.411 11.4352L668.936 11.3924L667.46 11.3517L665.985 11.3132L664.509 11.277L663.034 11.2429L661.558 11.2111L660.083 11.1815L658.607 11.1542L657.132 11.1291L655.656 11.1061L654.18 11.0855L652.705 11.067L651.229 11.0508L649.754 11.0369L648.278 11.0251L646.803 11.0156L645.327 11.0084L643.852 11.0033L642.376 11.0006L640.901 11L639.425 11.0017L637.95 11.0056L636.474 11.0117L634.999 11.0202L633.523 11.0308L632.048 11.0436L630.572 11.0587L629.097 11.0761L627.621 11.0956L626.146 11.1174L624.67 11.1415L623.195 11.1677L621.719 11.1962L620.244 11.2269L618.768 11.2598L617.293 11.295L615.817 11.3323L614.342 11.3719L612.866 11.4137L611.391 11.4577L609.915 11.5039L608.44 11.5524L606.964 11.603L605.488 11.6558L604.013 11.7108L602.537 11.768L601.062 11.8274L599.586 11.889L598.111 11.9528L596.635 12.0187L595.16 12.0868L593.684 12.1571L592.209 12.2295L590.733 12.3041L589.258 12.3809L587.782 12.4598L586.307 12.5408L584.831 12.624L583.356 12.7093L581.88 12.7968L580.405 12.8863L578.929 12.978L577.454 13.0718L575.978 13.1677L574.503 13.2657L573.027 13.3658L571.552 13.468L570.076 13.5723L568.601 13.6786L567.125 13.787L565.65 13.8974L564.174 14.0099L562.699 14.1245L561.223 14.2411L559.747 14.3597L558.272 14.4803L556.796 14.6029L555.321 14.7276L553.845 14.8543L552.37 14.9829L550.894 15.1136L549.419 15.2461L547.943 15.3807L546.468 15.5173L544.992 15.6557L543.517 15.7961L542.041 15.9385L540.566 16.0828L539.09 16.2289L537.615 16.377L536.139 16.527L534.664 16.6789L533.188 16.8326L531.713 16.9882L530.237 17.1456L528.762 17.3049L527.286 17.466L525.811 17.629L524.335 17.7938L522.86 17.9603L521.384 18.1287L519.909 18.2988L518.433 18.4707L516.958 18.6444L515.482 18.8198L514.007 18.997L512.531 19.1758L511.055 19.3564L509.58 19.5387L508.104 19.7227L506.629 19.9084L505.153 20.0957L503.678 20.2847L502.202 20.4754L500.727 20.6676L499.251 20.8615L497.776 21.057L496.3 21.254L494.825 21.4527L493.349 21.6529L491.874 21.8547L490.398 22.0581L488.923 22.2629L487.447 22.4693L485.972 22.6772L484.496 22.8865L483.021 23.0974L481.545 23.3097L480.07 23.5234L478.594 23.7386L477.119 23.9552L475.643 24.1733L474.168 24.3927L472.692 24.6135L471.217 24.8356L469.741 25.0591L468.266 25.284L466.79 25.5102L465.315 25.7376L463.839 25.9664L462.363 26.1965L460.888 26.4278L459.412 26.6604L457.937 26.8942L456.461 27.1292L454.986 27.3654L453.51 27.6029L452.035 27.8414L450.559 28.0812L449.084 28.3221L447.608 28.5641L446.133 28.8073L444.657 29.0515L443.182 29.2968L441.706 29.5432L440.231 29.7906L438.755 30.0391L437.28 30.2886L435.804 30.5391L434.329 30.7906L432.853 31.043L431.378 31.2964L429.902 31.5508L428.427 31.806L426.951 32.0622L425.476 32.3193L424 32.5772L422.525 32.836L421.049 33.0956L419.574 33.3561L418.098 33.6173L416.623 33.8794L415.147 34.1422L413.671 34.4058L412.196 34.6701L410.72 34.9351L409.245 35.2009L407.769 35.4673L406.294 35.7344L404.818 36.0022L403.343 36.2706L401.867 36.5396L400.392 36.8092L398.916 37.0794L397.441 37.3502L395.965 37.6215L394.49 37.8934L393.014 38.1657L391.539 38.4386L390.063 38.7119L388.588 38.9858L387.112 39.26L385.637 39.5347L384.161 39.8098L382.686 40.0853L381.21 40.3612L379.735 40.6374L378.259 40.914L376.784 41.1909L375.308 41.4681L373.833 41.7456L372.357 42.0233L370.882 42.3013L369.406 42.5796L367.93 42.858L366.455 43.1367L364.979 43.4155L363.504 43.6945L362.028 43.9736L360.553 44.2529L359.077 44.5323L357.602 44.8118L356.126 45.0913L354.651 45.3709L353.175 45.6506L351.7 45.9302L350.224 46.2099L348.749 46.4895L347.273 46.7691L345.798 47.0487L344.322 47.3282L342.847 47.6076L341.371 47.8869L339.896 48.166L338.42 48.445L336.945 48.7239L335.469 49.0026L333.994 49.2811L332.518 49.5594L331.043 49.8375L329.567 50.1153L328.092 50.3928L326.616 50.67L325.141 50.947L323.665 51.2236L322.19 51.4999L320.714 51.7759L319.238 52.0514L317.763 52.3266L316.287 52.6014L314.812 52.8757L313.336 53.1497L311.861 53.4231L310.385 53.6961L308.91 53.9685L307.434 54.2405L305.959 54.5119L304.483 54.7828L303.008 55.0531L301.532 55.3228L300.057 55.592L298.581 55.8605L297.106 56.1284L295.63 56.3956L294.155 56.6622L292.679 56.9281L291.204 57.1932L289.728 57.4577L288.253 57.7214L286.777 57.9844L285.302 58.2466L283.826 58.508L282.351 58.7686L280.875 59.0284L279.4 59.2873L277.924 59.5454L276.449 59.8027L274.973 60.059L273.498 60.3145L272.022 60.569L270.546 60.8226L269.071 61.0752L267.595 61.3269L266.12 61.5776L264.644 61.8272L263.169 62.0759L261.693 62.3236L260.218 62.5702L258.742 62.8157L257.267 63.0601L255.791 63.3035L254.316 63.5457L252.84 63.7869L251.365 64.0268L249.889 64.2657L248.414 64.5033L246.938 64.7398L245.463 64.975L243.987 65.2091L242.512 65.4419L241.036 65.6735L239.561 65.9037L238.085 66.1328L236.61 66.3605L235.134 66.5869L233.659 66.8121L232.183 67.0358L230.708 67.2582L229.232 67.4793L227.757 67.699L226.281 67.9173L224.806 68.1342L223.33 68.3497L221.854 68.5637L220.379 68.7763L218.903 68.9874L217.428 69.197L215.952 69.4052L214.477 69.6119L213.001 69.817L211.526 70.0207L210.05 70.2227L208.575 70.4233L207.099 70.6223L205.624 70.8196L204.148 71.0154L202.673 71.2096L201.197 71.4022L199.722 71.5931L198.246 71.7825L196.771 71.9701L195.295 72.1561L193.82 72.3404L192.344 72.523L190.869 72.704L189.393 72.8832L187.918 73.0607L186.442 73.2364L184.967 73.4104L183.491 73.5827L182.016 73.7532L180.54 73.9219L179.065 74.0888L177.589 74.2539L176.113 74.4172L174.638 74.5787L173.162 74.7383L171.687 74.8962L170.211 75.0521L168.736 75.2062L167.26 75.3584L165.785 75.5088L164.309 75.6572L162.834 75.8038L161.358 75.9484L159.883 76.0911L158.407 76.2319L156.932 76.3708L155.456 76.5077L153.981 76.6426L152.505 76.7756L151.03 76.9066L149.554 77.0357L148.079 77.1627L146.603 77.2878L145.128 77.4108L143.652 77.5319L142.177 77.6508L140.701 77.7678L139.226 77.8828L137.75 77.9957L136.275 78.1065L134.799 78.2153L133.324 78.3221L131.848 78.4267L130.373 78.5293L128.897 78.6298L127.421 78.7282L125.946 78.8245L124.47 78.9187L122.995 79.0108L121.519 79.1008L120.044 79.1886L118.568 79.2744L117.093 79.358L115.617 79.4394L114.142 79.5188L112.666 79.5959L111.191 79.6709L109.715 79.7438L108.24 79.8145L106.764 79.8831L105.289 79.9494L103.813 80.0136L102.338 80.0756L100.862 80.1354L99.3867 80.193L97.9112 80.2485L96.4357 80.3017L94.9601 80.3528L93.4846 80.4017L92.0091 80.4483L90.5336 80.4927L89.0581 80.5349L87.5826 80.575L86.1071 80.6128L84.6315 80.6483L83.156 80.6817L81.6805 80.7128L80.205 80.7418L78.7295 80.7685L77.254 80.7929L75.7785 80.8151L74.3029 80.8351L72.8274 80.8529L71.3519 80.8684L69.8764 80.8817L68.4009 80.8928L66.9254 80.9016L65.4498 80.9082L63.9743 80.9126L62.4988 80.9147L61.0233 80.9146L59.5478 80.9122L58.0723 80.9076L56.5968 80.9008L55.1212 80.8917L53.6457 80.8804L52.1702 80.8669L50.6947 80.8511L49.2192 80.8331L47.7437 80.8129L46.2681 80.7904L44.7926 80.7657L43.3171 80.7388L41.8416 80.7096L40.3661 80.6783L38.8906 80.6447L37.4151 80.6089L35.9395 80.5708L34.464 80.5305L32.9885 80.4881L31.513 80.4434L30.0375 80.3965L28.562 80.3475L27.0864 80.2962L25.6109 80.2427L24.1354 80.187L22.6599 80.1291L21.1844 80.0691L19.7089 80.0069L18.2334 79.9424L16.7578 79.8759L15.2823 79.8071L13.8068 79.7362L12.3313 79.6631L10.8558 79.5878L9.38026 79.5104L7.90474 79.4309L6.42923 79.3492L4.95371 79.2654L3.4782 79.1794L2.00268 79.0913L0.527167 79.0011L-0.948349 78.9088L-2.42386 78.8144L-3.89938 78.7178L-5.37489 78.6192L-6.85041 78.5185L-8.32593 78.4157L-9.80144 78.3108L-11.277 78.2038L-12.7525 78.0948L-14.228 77.9838L-15.7035 77.8706L-17.179 77.7555L-18.6545 77.6383L-20.13 77.519L-21.6056 77.3978L-23.0811 77.2745L-24.5566 77.1493L-26.0321 77.022L-27.5076 76.8928L-28.9831 76.7616L-30.4587 76.6284L-31.9342 76.4932L-33.4097 76.3561L-34.8852 76.217L-36.3607 76.076L-37.8362 75.9331L-39.3117 75.7883L-40.7873 75.6415L-42.2628 75.4928L-43.7383 75.3423L-45.2138 75.1899L-46.6893 75.0356L-48.1648 74.8794L-49.6404 74.7214L-51.1159 74.5616L-52.5914 74.3999L-54.0669 74.2364L-55.5424 74.0711L-57.0179 73.904L-58.4934 73.7351L-59.969 73.5644L-61.4445 73.392L-62.92 73.2178L-64.3955 73.0418L-65.871 72.8642L-67.3465 72.6848L-68.8221 72.5037L-70.2976 72.3208L-71.7731 72.1364L-73.2486 71.9502L-74.7241 71.7624L-76.1996 71.5729L-77.6751 71.3818L-79.1507 71.189L-80.6262 70.9946L-82.1017 70.7987L-83.5772 70.6011" stroke="#7E57C2" stroke-width="22" stroke-miterlimit="10" stroke-linecap="round" stroke-linejoin="round"/>
<path d="M1543.94 40.0341L1542.46 40.3001L1540.98 40.5668L1539.51 40.8342L1538.03 41.1022L1536.56 41.3709L1535.08 41.6401L1533.61 41.91L1532.13 42.1804L1530.66 42.4514L1529.18 42.7229L1527.7 42.995L1526.23 43.2676L1524.75 43.5406L1523.28 43.8142L1521.8 44.0882L1520.33 44.3626L1518.85 44.6375L1517.38 44.9127L1515.9 45.1884L1514.42 45.4644L1512.95 45.7408L1511.47 46.0175L1510 46.2945L1508.52 46.5718L1507.05 46.8494L1505.57 47.1273L1504.1 47.4054L1502.62 47.6837L1501.15 47.9622L1499.67 48.241L1498.19 48.5199L1496.72 48.7989L1495.24 49.0781L1493.77 49.3574L1492.29 49.6368L1490.82 49.9163L1489.34 50.1959L1487.87 50.4755L1486.39 50.7552L1484.91 51.0348L1483.44 51.3145L1481.96 51.5941L1480.49 51.8737L1479.01 52.1532L1477.54 52.4327L1476.06 52.7121L1474.59 52.9913L1473.11 53.2704L1471.63 53.5494L1470.16 53.8282L1468.68 54.1068L1467.21 54.3852L1465.73 54.6634L1464.26 54.9413L1462.78 55.219L1461.31 55.4965L1459.83 55.7736L1458.36 56.0504L1456.88 56.327L1455.4 56.6031L1453.93 56.8789L1452.45 57.1543L1450.98 57.4293L1449.5 57.7039L1448.03 57.9781L1446.55 58.2518L1445.08 58.5251L1443.6 58.7979L1442.12 59.0701L1440.65 59.3419L1439.17 59.6131L1437.7 59.8838L1436.22 60.1538L1434.75 60.4234L1433.27 60.6922L1431.8 60.9605L1430.32 61.2281L1428.84 61.4951L1427.37 61.7614L1425.89 62.027L1424.42 62.2919L1422.94 62.556L1421.47 62.8195L1419.99 63.0821L1418.52 63.344L1417.04 63.6051L1415.57 63.8654L1414.09 64.1249L1412.61 64.3835L1411.14 64.6412L1409.66 64.8981L1408.19 65.1541L1406.71 65.4092L1405.24 65.6634L1403.76 65.9166L1402.29 66.1688L1400.81 66.4201L1399.33 66.6704L1397.86 66.9197L1396.38 67.1679L1394.91 67.4152L1393.43 67.6613L1391.96 67.9064L1390.48 68.1504L1389.01 68.3933L1387.53 68.6351L1386.05 68.8758L1384.58 69.1153L1383.1 69.3537L1381.63 69.5909L1380.15 69.8268L1378.68 70.0616L1377.2 70.2952L1375.73 70.5275L1374.25 70.7586L1372.78 70.9884L1371.3 71.2169L1369.82 71.4441L1368.35 71.67L1366.87 71.8946L1365.4 72.1178L1363.92 72.3397L1362.45 72.5602L1360.97 72.7793L1359.5 72.9971L1358.02 73.2134L1356.54 73.4283L1355.07 73.6418L1353.59 73.8538L1352.12 74.0643L1350.64 74.2734L1349.17 74.4809L1347.69 74.687L1346.22 74.8916L1344.74 75.0946L1343.27 75.296L1341.79 75.496L1340.31 75.6943L1338.84 75.8911L1337.36 76.0862L1335.89 76.2798L1334.41 76.4717L1332.94 76.662L1331.46 76.8506L1329.99 77.0376L1328.51 77.223L1327.03 77.4066L1325.56 77.5886L1324.08 77.7688L1322.61 77.9473L1321.13 78.1241L1319.66 78.2992L1318.18 78.4725L1316.71 78.6441L1315.23 78.8138L1313.75 78.9818L1312.28 79.148L1310.8 79.3124L1309.33 79.475L1307.85 79.6357L1306.38 79.7947L1304.9 79.9517L1303.43 80.107L1301.95 80.2603L1300.48 80.4118L1299 80.5614L1297.52 80.7091L1296.05 80.8548L1294.57 80.9987L1293.1 81.1407L1291.62 81.2807L1290.15 81.4188L1288.67 81.5549L1287.2 81.6891L1285.72 81.8213L1284.24 81.9515L1282.77 82.0798L1281.29 82.206L1279.82 82.3303L1278.34 82.4525L1276.87 82.5727L1275.39 82.6909L1273.92 82.8071L1272.44 82.9212L1270.96 83.0333L1269.49 83.1434L1268.01 83.2513L1266.54 83.3573L1265.06 83.4611L1263.59 83.5628L1262.11 83.6625L1260.64 83.7601L1259.16 83.8555L1257.69 83.9489L1256.21 84.0401L1254.73 84.1293L1253.26 84.2163L1251.78 84.3012L1250.31 84.3839L1248.83 84.4646L1247.36 84.543L1245.88 84.6193L1244.41 84.6935L1242.93 84.7655L1241.45 84.8353L1239.98 84.903L1238.5 84.9685L1237.03 85.0318L1235.55 85.0929L1234.08 85.1519L1232.6 85.2086L1231.13 85.2632L1229.65 85.3156L1228.17 85.3658L1226.7 85.4138L1225.22 85.4595L1223.75 85.5031L1222.27 85.5444L1220.8 85.5835L1219.32 85.6205L1217.85 85.6552L1216.37 85.6876L1214.9 85.7179L1213.42 85.7459L1211.94 85.7717L1210.47 85.7953L1208.99 85.8166L1207.52 85.8357L1206.04 85.8526L1204.57 85.8673L1203.09 85.8797L1201.62 85.8898L1200.14 85.8978L1198.66 85.9035L1197.19 85.907L1195.71 85.9082L1194.24 85.9072L1192.76 85.9039L1191.29 85.8984L1189.81 85.8907L1188.34 85.8807L1186.86 85.8685L1185.38 85.8541L1183.91 85.8375L1182.43 85.8186L1180.96 85.7975L1179.48 85.7741L1178.01 85.7485L1176.53 85.7207L1175.06 85.6907L1173.58 85.6584L1172.11 85.6239L1170.63 85.5872L1169.15 85.5483L1167.68 85.5072L1166.2 85.4638L1164.73 85.4183L1163.25 85.3705L1161.78 85.3206L1160.3 85.2684L1158.83 85.214L1157.35 85.1575L1155.87 85.0988L1154.4 85.0378L1152.92 84.9747L1151.45 84.9094L1149.97 84.842L1148.5 84.7724L1147.02 84.7006L1145.55 84.6266L1144.07 84.5505L1142.59 84.4723L1141.12 84.3919L1139.64 84.3093L1138.17 84.2246L1136.69 84.1378L1135.22 84.0489L1133.74 83.9579L1132.27 83.8647L1130.79 83.7694L1129.32 83.6721L1127.84 83.5726L1126.36 83.4711L1124.89 83.3674L1123.41 83.2617L1121.94 83.1539L1120.46 83.0441L1118.99 82.9322L1117.51 82.8183L1116.04 82.7023L1114.56 82.5843L1113.08 82.4643L1111.61 82.3422L1110.13 82.2182L1108.66 82.0921L1107.18 81.9641L1105.71 81.834L1104.23 81.702L1102.76 81.568L1101.28 81.4321L1099.8 81.2942L1098.33 81.1544L1096.85 81.0126L1095.38 80.8689L1093.9 80.7233L1092.43 80.5758L1090.95 80.4264L1089.48 80.2751L1088 80.1219L1086.53 79.9669L1085.05 79.81L1083.57 79.6513L1082.1 79.4907L1080.62 79.3283L1079.15 79.1641L1077.67 78.998L1076.2 78.8302L1074.72 78.6606L1073.25 78.4892L1071.77 78.3161L1070.29 78.1412L1068.82 77.9646L1067.34 77.7862L1065.87 77.6061L1064.39 77.4244L1062.92 77.2409L1061.44 77.0557L1059.97 76.8689L1058.49 76.6804L1057.02 76.4903L1055.54 76.2985L1054.06 76.1051L1052.59 75.9101L1051.11 75.7135L1049.64 75.5153L1048.16 75.3155L1046.69 75.1142L1045.21 74.9114L1043.74 74.707L1042.26 74.501L1040.78 74.2936L1039.31 74.0847L1037.83 73.8743L1036.36 73.6624L1034.88 73.4491L1033.41 73.2343L1031.93 73.0182L1030.46 72.8006L1028.98 72.5815L1027.5 72.3612L1026.03 72.1394L1024.55 71.9163L1023.08 71.6919L1021.6 71.4661L1020.13 71.239L1018.65 71.0106L1017.18 70.7809L1015.7 70.55L1014.23 70.3178L1012.75 70.0844L1011.27 69.8497L1009.8 69.6138L1008.32 69.3768L1006.85 69.1385L1005.37 68.8991L1003.9 68.6586L1002.42 68.4169L1000.95 68.1741L999.47 67.9302L997.994 67.6852L996.519 67.4391L995.043 67.192L993.568 66.9438L992.092 66.6946L990.617 66.4444L989.141 66.1932L987.666 65.9411L986.19 65.688L984.715 65.4339L983.239 65.1789L981.764 64.923L980.288 64.6662L978.813 64.4086L977.337 64.15L975.862 63.8906L974.386 63.6304L972.911 63.3694L971.435 63.1076L969.96 62.845L968.484 62.5817L967.009 62.3176L965.533 62.0527L964.058 61.7872L962.582 61.521L961.107 61.2541L959.631 60.9865L958.156 60.7183L956.68 60.4495L955.204 60.18L953.729 59.91L952.253 59.6394L950.778 59.3682L949.302 59.0966L947.827 58.8243L946.351 58.5516L944.876 58.2784L943.4 58.0047L941.925 57.7306L940.449 57.456L938.974 57.181L937.498 56.9057L936.023 56.6299L934.547 56.3538L933.072 56.0773L931.596 55.8005L930.121 55.5234L928.645 55.246L927.17 54.9683L925.694 54.6904L924.219 54.4122L922.743 54.1338L921.268 53.8552L919.792 53.5764L918.317 53.2975L916.841 53.0184L915.366 52.7392L913.89 52.4598L912.415 52.1804L910.939 51.9008L909.464 51.6213L907.988 51.3416L906.512 51.062L905.037 50.7823L903.561 50.5027L902.086 50.2231L900.61 49.9435L899.135 49.664L897.659 49.3845L896.184 49.1052L894.708 48.826L893.233 48.5469L891.757 48.268L890.282 47.9893L888.806 47.7107L887.331 47.4323L885.855 47.1542L884.38 46.8763L882.904 46.5987L881.429 46.3214L879.953 46.0444L878.478 45.7676L877.002 45.4912L875.527 45.2152L874.051 44.9395L872.576 44.6642L871.1 44.3893L869.625 44.1148L868.149 43.8408L866.674 43.5672L865.198 43.2941L863.723 43.0214L862.247 42.7493L860.772 42.4777L859.296 42.2067L857.82 41.9362L856.345 41.6663L854.869 41.397L853.394 41.1283L851.918 40.8602L850.443 40.5928L848.967 40.326L847.492 40.0599L846.016 39.7945L844.541 39.5298L843.065 39.2659L841.59 39.0027L840.114 38.7403L838.639 38.4786L837.163 38.2177L835.688 37.9577L834.212 37.6985L832.737 37.4401L831.261 37.1826L829.786 36.926L828.31 36.6703L826.835 36.4155L825.359 36.1616L823.884 35.9087L822.408 35.6568L820.933 35.4058L819.457 35.1558L817.982 34.9068L816.506 34.6589L815.031 34.4119L813.555 34.1661L812.08 33.9213L810.604 33.6776L809.128 33.4351L807.653 33.1936L806.177 32.9533L804.702 32.7141L803.226 32.4761L801.751 32.2393L800.275 32.0036L798.8 31.7692L797.324 31.5361L795.849 31.3041L794.373 31.0734L792.898 30.844L791.422 30.6159L789.947 30.3891L788.471 30.1636L786.996 29.9394L785.52 29.7166L784.045 29.4951L782.569 29.275L781.094 29.0563L779.618 28.839L778.143 28.623L776.667 28.4086L775.192 28.1955L773.716 27.984L772.241 27.7739L770.765 27.5653L769.29 27.3582L767.814 27.1525L766.339 26.9485L764.863 26.7459L763.387 26.5449L761.912 26.3455L760.436 26.1476L758.961 25.9513L757.485 25.7566L756.01 25.5636L754.534 25.3721L753.059 25.1823L751.583 24.9942L750.108 24.8077L748.632 24.6229L747.157 24.4397L745.681 24.2583L744.206 24.0786L742.73 23.9006L741.255 23.7243L739.779 23.5498L738.304 23.377L736.828 23.2059L735.353 23.0367L733.877 22.8693L732.402 22.7036L730.926 22.5397L729.451 22.3777L727.975 22.2175L726.5 22.0591L725.024 21.9026L723.549 21.748L722.073 21.5952L720.598 21.4443L719.122 21.2952L717.647 21.1481L716.171 21.0029L714.695 20.8596L713.22 20.7182L711.744 20.5788L710.269 20.4413L708.793 20.3058L707.318 20.1722L705.842 20.0406L704.367 19.9109L702.891 19.7833L701.416 19.6576L699.94 19.534L698.465 19.4124L696.989 19.2928L695.514 19.1752L694.038 19.0596L692.563 18.9461L691.087 18.8346L689.612 18.7252L688.136 18.6178L686.661 18.5125L685.185 18.4093L683.71 18.3082L682.234 18.2092L680.759 18.1122L679.283 18.0174L677.808 17.9247L676.332 17.834L674.857 17.7456L673.381 17.6592L671.906 17.5749L670.43 17.4928L668.955 17.4129L667.479 17.335L666.003 17.2594L664.528 17.1859L663.052 17.1145L661.577 17.0454L660.101 16.9783L658.626 16.9135L657.15 16.8508L655.675 16.7904L654.199 16.732L652.724 16.676L651.248 16.622L649.773 16.5703L648.297 16.5208L646.822 16.4735L645.346 16.4284L643.871 16.3855L642.395 16.3448L640.92 16.3064L639.444 16.2701L637.969 16.2361L636.493 16.2043L635.018 16.1747L633.542 16.1473L632.067 16.1222L630.591 16.0993L629.116 16.0786L627.64 16.0602L626.165 16.044L624.689 16.03L623.214 16.0183L621.738 16.0088L620.263 16.0015L618.787 15.9965L617.311 15.9937L615.836 15.9931L614.36 15.9948L612.885 15.9987L611.409 16.0049L609.934 16.0133L608.458 16.0239L606.983 16.0368L605.507 16.0519L604.032 16.0692L602.556 16.0888L601.081 16.1106L599.605 16.1346L598.13 16.1609L596.654 16.1893L595.179 16.2201L593.703 16.253L592.228 16.2881L590.752 16.3255L589.277 16.3651L587.801 16.4069L586.326 16.4509L584.85 16.4971L583.375 16.5455L581.899 16.5961L580.424 16.649L578.948 16.704L577.473 16.7612L575.997 16.8206L574.522 16.8822L573.046 16.9459L571.57 17.0119L570.095 17.08L568.619 17.1503L567.144 17.2227L565.668 17.2973L564.193 17.3741L562.717 17.4529L561.242 17.534L559.766 17.6172L558.291 17.7025L556.815 17.7899L555.34 17.8795L553.864 17.9712L552.389 18.065L550.913 18.1609L549.438 18.2589L547.962 18.359L546.487 18.4611L545.011 18.5654L543.536 18.6717L542.06 18.7801L540.585 18.8906L539.109 19.0031L537.634 19.1176L536.158 19.2342L534.683 19.3528L533.207 19.4735L531.732 19.5961L530.256 19.7208L528.781 19.8475L527.305 19.9761L525.83 20.1067L524.354 20.2393L522.878 20.3739L521.403 20.5104L519.927 20.6489L518.452 20.7893L516.976 20.9317L515.501 21.0759L514.025 21.2221L512.55 21.3702L511.074 21.5202L509.599 21.672L508.123 21.8258L506.648 21.9813L505.172 22.1388L503.697 22.2981L502.221 22.4592L500.746 22.6222L499.27 22.7869L497.795 22.9535L496.319 23.1219L494.844 23.292L493.368 23.4639L491.893 23.6376L490.417 23.813L488.942 23.9902L487.466 24.169L485.991 24.3496L484.515 24.5319L483.04 24.7159L481.564 24.9016L480.089 25.0889L478.613 25.2779L477.138 25.4685L475.662 25.6608L474.186 25.8546L472.711 26.0501L471.235 26.2472L469.76 26.4459L468.284 26.6461L466.809 26.8479L465.333 27.0512L463.858 27.2561L462.382 27.4625L460.907 27.6703L459.431 27.8797L457.956 28.0905L456.48 28.3028L455.005 28.5166L453.529 28.7318L452.054 28.9484L450.578 29.1664L449.103 29.3858L447.627 29.6066L446.152 29.8288L444.676 30.0523L443.201 30.2772L441.725 30.5033L440.25 30.7308L438.774 30.9596L437.299 31.1897L435.823 31.421L434.348 31.6535L432.872 31.8874L431.397 32.1224L429.921 32.3586L428.446 32.596L426.97 32.8346L425.494 33.0744L424.019 33.3153L422.543 33.5573L421.068 33.8004L419.592 34.0447L418.117 34.29L416.641 34.5364L415.166 34.7838L413.69 35.0323L412.215 35.2818L410.739 35.5323L409.264 35.7837L407.788 36.0362L406.313 36.2896L404.837 36.544L403.362 36.7992L401.886 37.0554L400.411 37.3124L398.935 37.5704L397.46 37.8292L395.984 38.0888L394.509 38.3492L393.033 38.6105L391.558 38.8725L390.082 39.1354L388.607 39.3989L387.131 39.6633L385.656 39.9283L384.18 40.1941L382.705 40.4605L381.229 40.7276L379.754 40.9953L378.278 41.2637L376.802 41.5328L375.327 41.8024L373.851 42.0726L372.376 42.3434L370.9 42.6147L369.425 42.8865L367.949 43.1589L366.474 43.4318L364.998 43.7051L363.523 43.9789L362.047 44.2532L360.572 44.5279L359.096 44.803L357.621 45.0785L356.145 45.3543L354.67 45.6306L353.194 45.9072L351.719 46.1841L350.243 46.4613L348.768 46.7387L347.292 47.0165L345.817 47.2945L344.341 47.5727L342.866 47.8512L341.39 48.1298L339.915 48.4087L338.439 48.6877L336.964 48.9668L335.488 49.2461L334.013 49.5255L332.537 49.8049L331.061 50.0845L329.586 50.3641L328.11 50.6437L326.635 50.9234L325.159 51.203L323.684 51.4827L322.208 51.7623L320.733 52.0418L319.257 52.3213L317.782 52.6007L316.306 52.88L314.831 53.1592L313.355 53.4382L311.88 53.7171L310.404 53.9958L308.929 54.2743L307.453 54.5525L305.978 54.8306L304.502 55.1084L303.027 55.3859L301.551 55.6632L300.076 55.9402L298.6 56.2168L297.125 56.4931L295.649 56.769L294.174 57.0446L292.698 57.3198L291.223 57.5946L289.747 57.8689L288.272 58.1428L286.796 58.4163L285.321 58.6892L283.845 58.9617L282.369 59.2337L280.894 59.5051L279.418 59.776L277.943 60.0463L276.467 60.316L274.992 60.5851L273.516 60.8537L272.041 61.1215L270.565 61.3888L269.09 61.6553L267.614 61.9212L266.139 62.1864L264.663 62.4508L263.188 62.7146L261.712 62.9776L260.237 63.2397L258.761 63.5012L257.286 63.7618L255.81 64.0216L254.335 64.2805L252.859 64.5386L251.384 64.7958L249.908 65.0522L248.433 65.3076L246.957 65.5621L245.482 65.8157L244.006 66.0684L242.531 66.32L241.055 66.5707L239.58 66.8204L238.104 67.0691L236.629 67.3167L235.153 67.5633L233.677 67.8089L232.202 68.0533L230.726 68.2966L229.251 68.5389L227.775 68.78L226.3 69.02L224.824 69.2588L223.349 69.4965L221.873 69.7329L220.398 69.9682L218.922 70.2022L217.447 70.435L215.971 70.6666L214.496 70.8969L213.02 71.1259L211.545 71.3537L210.069 71.5801L208.594 71.8052L207.118 72.029L205.643 72.2514L204.167 72.4725L202.692 72.6922L201.216 72.9105L199.741 73.1274L198.265 73.3428L196.79 73.5569L195.314 73.7694L193.839 73.9806L192.363 74.1902L190.888 74.3984L189.412 74.605L187.936 74.8102L186.461 75.0138L184.985 75.2159L183.51 75.4164L182.034 75.6154L180.559 75.8128L179.083 76.0086L177.608 76.2028L176.132 76.3954L174.657 76.5863L173.181 76.7756L171.706 76.9633L170.23 77.1493L168.755 77.3336L167.279 77.5162L165.804 77.6971L164.328 77.8763L162.853 78.0538L161.377 78.2296L159.902 78.4036L158.426 78.5759L156.951 78.7463L155.475 78.9151L154 79.082L152.524 79.2471L151.049 79.4104L149.573 79.5718L148.098 79.7315L146.622 79.8893L145.147 80.0453L143.671 80.1994L142.196 80.3516L140.72 80.5019L139.244 80.6504L137.769 80.797L136.293 80.9416L134.818 81.0843L133.342 81.2251L131.867 81.364L130.391 81.5008L128.916 81.6358L127.44 81.7688L125.965 81.8998L124.489 82.0289L123.014 82.1559L121.538 82.2809L120.063 82.404L118.587 82.525L117.112 82.644L115.636 82.761L114.161 82.8759L112.685 82.9889L111.21 83.0997L109.734 83.2085L108.259 83.3152L106.783 83.4199L105.308 83.5225L103.832 83.623L102.357 83.7214L100.881 83.8177L99.4056 83.9119L97.9301 84.004L96.4545 84.094L94.979 84.1818L93.5035 84.2676L92.028 84.3511L90.5525 84.4326L89.077 84.5119L87.6015 84.5891L86.1259 84.6641L84.6504 84.737L83.1749 84.8077L81.6994 84.8762L80.2239 84.9426L78.7484 85.0067L77.2728 85.0688L75.7973 85.1286L74.3218 85.1862L72.8463 85.2416L71.3708 85.2949L69.8953 85.346L68.4198 85.3948L66.9442 85.4414L65.4687 85.4859L63.9932 85.5281L62.5177 85.5681L61.0422 85.6059L59.5667 85.6415L58.0911 85.6749L56.6156 85.706L55.1401 85.7349L53.6646 85.7616L52.1891 85.7861L50.7136 85.8083L49.2381 85.8283L47.7625 85.846L46.287 85.8616L44.8115 85.8749L43.336 85.8859L41.8605 85.8948L40.385 85.9014L38.9094 85.9057L37.4339 85.9079L35.9584 85.9077L34.4829 85.9054L33.0074 85.9008L31.5319 85.894L30.0564 85.8849L28.5808 85.8736L27.1053 85.86L25.6298 85.8443L24.1543 85.8263L22.6788 85.806L21.2033 85.7836L19.7277 85.7589L18.2522 85.732L16.7767 85.7028L15.3012 85.6714L13.8257 85.6378L12.3502 85.602L10.8747 85.564L9.39914 85.5237L7.92362 85.4813L6.44811 85.4366L4.97259 85.3897L3.49708 85.3406L2.02156 85.2893L0.546047 85.2359L-0.929468 85.1802L-2.40498 85.1223L-3.8805 85.0623L-5.35601 85L-6.83153 84.9356L-8.30704 84.869L-9.78256 84.8003L-11.2581 84.7293L-12.7336 84.6562L-14.2091 84.581L-15.6846 84.5036L-17.1601 84.424L-18.6357 84.3423L-20.1112 84.2585L-21.5867 84.1726L-23.0622 84.0845L-24.5377 83.9943L-26.0132 83.902L-27.4887 83.8075L-28.9643 83.711L-30.4398 83.6124L-31.9153 83.5116L-33.3908 83.4088L-34.8663 83.304L-36.3418 83.197L-37.8174 83.088L-39.2929 82.9769L-40.7684 82.8638L-42.2439 82.7486L-43.7194 82.6314L-45.1949 82.5122L-46.6704 82.391L-48.146 82.2677L-49.6215 82.1424L-51.097 82.0152L-52.5725 81.8859L-54.048 81.7547L-55.5235 81.6215L-56.9991 81.4863L-58.4746 81.3492L-59.9501 81.2102L-61.4256 81.0692L-62.9011 80.9263L-64.3766 80.7814L-65.8521 80.6347L-67.3277 80.486L-68.8032 80.3355L-70.2787 80.1831L-71.7542 80.0288L-73.2297 79.8726L-74.7052 79.7146L-76.1808 79.5547L-77.6563 79.3931L-79.1318 79.2296L-80.6073 79.0643L-82.0828 78.8971L-83.5583 78.7282L-85.0338 78.5576L-86.5094 78.3851L-87.9849 78.2109L-89.4604 78.035L-90.9359 77.8573L-92.4114 77.678L-93.8869 77.4968L-95.3625 77.314L-96.838 77.1295L-98.3135 76.9434L-99.789 76.7555L-101.265 76.566L-102.74 76.3749L-104.216 76.1822L-105.691 75.9878L-107.167 75.7918L-108.642 75.5943" stroke="#000E1E" stroke-width="22" stroke-miterlimit="10" stroke-linecap="round" stroke-linejoin="round"/>
<path d="M1552.79 60.4269L1551.31 60.6885L1549.84 60.9508L1548.36 61.214L1546.89 61.4778L1545.41 61.7424L1543.94 62.0078L1542.46 62.2738L1540.98 62.5405L1539.51 62.8078L1538.03 63.0759L1536.56 63.3445L1535.08 63.6138L1533.61 63.8836L1532.13 64.1541L1530.66 64.4251L1529.18 64.6966L1527.7 64.9686L1526.23 65.2412L1524.75 65.5143L1523.28 65.7878L1521.8 66.0618L1520.33 66.3362L1518.85 66.6111L1517.38 66.8864L1515.9 67.162L1514.42 67.438L1512.95 67.7144L1511.47 67.9911L1510 68.2681L1508.52 68.5454L1507.05 68.823L1505.57 69.1009L1504.1 69.379L1502.62 69.6573L1501.15 69.9358L1499.67 70.2146L1498.19 70.4935L1496.72 70.7725L1495.24 71.0517L1493.77 71.3311L1492.29 71.6105L1490.82 71.89L1489.34 72.1695L1487.87 72.4491L1486.39 72.7288L1484.91 73.0085L1483.44 73.2881L1481.96 73.5678L1480.49 73.8473L1479.01 74.1269L1477.54 74.4063L1476.06 74.6857L1474.59 74.9649L1473.11 75.244L1471.63 75.523L1470.16 75.8018L1468.68 76.0804L1467.21 76.3588L1465.73 76.637L1464.26 76.915L1462.78 77.1927L1461.31 77.4701L1459.83 77.7472L1458.36 78.0241L1456.88 78.3006L1455.4 78.5767L1453.93 78.8525L1452.45 79.1279L1450.98 79.403L1449.5 79.6776L1448.03 79.9517L1446.55 80.2255L1445.08 80.4987L1443.6 80.7715L1442.12 81.0438L1440.65 81.3155L1439.17 81.5867L1437.7 81.8574L1436.22 82.1275L1434.75 82.397L1433.27 82.6659L1431.8 82.9341L1430.32 83.2018L1428.84 83.4687L1427.37 83.735L1425.89 84.0006L1424.42 84.2655L1422.94 84.5297L1421.47 84.7931L1419.99 85.0558L1418.52 85.3177L1417.04 85.5788L1415.57 85.839L1414.09 86.0985L1412.61 86.3571L1411.14 86.6149L1409.66 86.8717L1408.19 87.1277L1406.71 87.3828L1405.24 87.637L1403.76 87.8902L1402.29 88.1424L1400.81 88.3937L1399.33 88.644L1397.86 88.8933L1396.38 89.1416L1394.91 89.3888L1393.43 89.635L1391.96 89.88L1390.48 90.1241L1389.01 90.367L1387.53 90.6088L1386.05 90.8494L1384.58 91.089L1383.1 91.3273L1381.63 91.5645L1380.15 91.8005L1378.68 92.0353L1377.2 92.2688L1375.73 92.5011L1374.25 92.7322L1372.78 92.962L1371.3 93.1905L1369.82 93.4177L1368.35 93.6436L1366.87 93.8682L1365.4 94.0914L1363.92 94.3133L1362.45 94.5338L1360.97 94.753L1359.5 94.9707L1358.02 95.187L1356.54 95.4019L1355.07 95.6154L1353.59 95.8274L1352.12 96.038L1350.64 96.247L1349.17 96.4546L1347.69 96.6607L1346.22 96.8652L1344.74 97.0682L1343.27 97.2697L1341.79 97.4696L1340.31 97.6679L1338.84 97.8647L1337.36 98.0599L1335.89 98.2534L1334.41 98.4453L1332.94 98.6356L1331.46 98.8243L1329.99 99.0113L1328.51 99.1966L1327.03 99.3802L1325.56 99.5622L1324.08 99.7424L1322.61 99.921L1321.13 100.098L1319.66 100.273L1318.18 100.446L1316.71 100.618L1315.23 100.787L1313.75 100.955L1312.28 101.122L1310.8 101.286L1309.33 101.449L1307.85 101.609L1306.38 101.768L1304.9 101.925L1303.43 102.081L1301.95 102.234L1300.48 102.385L1299 102.535L1297.52 102.683L1296.05 102.828L1294.57 102.972L1293.1 103.114L1291.62 103.254L1290.15 103.392L1288.67 103.529L1287.2 103.663L1285.72 103.795L1284.24 103.925L1282.77 104.053L1281.29 104.18L1279.82 104.304L1278.34 104.426L1276.87 104.546L1275.39 104.665L1273.92 104.781L1272.44 104.895L1270.96 105.007L1269.49 105.117L1268.01 105.225L1266.54 105.331L1265.06 105.435L1263.59 105.536L1262.11 105.636L1260.64 105.734L1259.16 105.829L1257.69 105.923L1256.21 106.014L1254.73 106.103L1253.26 106.19L1251.78 106.275L1250.31 106.358L1248.83 106.438L1247.36 106.517L1245.88 106.593L1244.41 106.667L1242.93 106.739L1241.45 106.809L1239.98 106.877L1238.5 106.942L1237.03 107.005L1235.55 107.067L1234.08 107.126L1232.6 107.182L1231.13 107.237L1229.65 107.289L1228.17 107.339L1226.7 107.387L1225.22 107.433L1223.75 107.477L1222.27 107.518L1220.8 107.557L1219.32 107.594L1217.85 107.629L1216.37 107.661L1214.9 107.692L1213.42 107.72L1211.94 107.745L1210.47 107.769L1208.99 107.79L1207.52 107.809L1206.04 107.826L1204.57 107.841L1203.09 107.853L1201.62 107.863L1200.14 107.871L1198.66 107.877L1197.19 107.881L1195.71 107.882L1194.24 107.881L1192.76 107.878L1191.29 107.872L1189.81 107.864L1188.34 107.854L1186.86 107.842L1185.38 107.828L1183.91 107.811L1182.43 107.792L1180.96 107.771L1179.48 107.748L1178.01 107.722L1176.53 107.694L1175.06 107.664L1173.58 107.632L1172.11 107.598L1170.63 107.561L1169.15 107.522L1167.68 107.481L1166.2 107.437L1164.73 107.392L1163.25 107.344L1161.78 107.294L1160.3 107.242L1158.83 107.188L1157.35 107.131L1155.87 107.072L1154.4 107.011L1152.92 106.948L1151.45 106.883L1149.97 106.816L1148.5 106.746L1147.02 106.674L1145.55 106.6L1144.07 106.524L1142.59 106.446L1141.12 106.365L1139.64 106.283L1138.17 106.198L1136.69 106.111L1135.22 106.023L1133.74 105.932L1132.27 105.838L1130.79 105.743L1129.32 105.646L1127.84 105.546L1126.36 105.445L1124.89 105.341L1123.41 105.235L1121.94 105.128L1120.46 105.018L1118.99 104.906L1117.51 104.792L1116.04 104.676L1114.56 104.558L1113.08 104.438L1111.61 104.316L1110.13 104.192L1108.66 104.066L1107.18 103.938L1105.71 103.808L1104.23 103.676L1102.76 103.542L1101.28 103.406L1099.8 103.268L1098.33 103.128L1096.85 102.986L1095.38 102.843L1093.9 102.697L1092.43 102.549L1090.95 102.4L1089.48 102.249L1088 102.096L1086.53 101.941L1085.05 101.784L1083.57 101.625L1082.1 101.464L1080.62 101.302L1079.15 101.138L1077.67 100.972L1076.2 100.804L1074.72 100.634L1073.25 100.463L1071.77 100.29L1070.29 100.115L1068.82 99.9382L1067.34 99.7599L1065.87 99.5798L1064.39 99.398L1062.92 99.2145L1061.44 99.0293L1059.97 98.8425L1058.49 98.654L1057.02 98.4639L1055.54 98.2721L1054.06 98.0787L1052.59 97.8837L1051.11 97.6871L1049.64 97.4889L1048.16 97.2892L1046.69 97.0878L1045.21 96.885L1043.74 96.6806L1042.26 96.4747L1040.78 96.2672L1039.31 96.0583L1037.83 95.8479L1036.36 95.6361L1034.88 95.4227L1033.41 95.208L1031.93 94.9918L1030.46 94.7742L1028.98 94.5552L1027.5 94.3348L1026.03 94.1131L1024.55 93.8899L1023.08 93.6655L1021.6 93.4397L1020.13 93.2126L1018.65 92.9842L1017.18 92.7546L1015.7 92.5236L1014.23 92.2914L1012.75 92.058L1011.27 91.8233L1009.8 91.5875L1008.32 91.3504L1006.85 91.1122L1005.37 90.8728L1003.9 90.6322L1002.42 90.3905L1000.95 90.1477L999.47 89.9038L997.994 89.6588L996.519 89.4127L995.043 89.1656L993.568 88.9174L992.092 88.6683L990.617 88.4181L989.141 88.1669L987.666 87.9147L986.19 87.6616L984.715 87.4076L983.239 87.1526L981.764 86.8966L980.288 86.6399L978.813 86.3822L977.337 86.1236L975.862 85.8643L974.386 85.6041L972.911 85.343L971.435 85.0812L969.96 84.8187L968.484 84.5553L967.009 84.2912L965.533 84.0264L964.058 83.7608L962.582 83.4946L961.107 83.2277L959.631 82.9601L958.156 82.6919L956.68 82.4231L955.204 82.1537L953.729 81.8836L952.253 81.613L950.778 81.3419L949.302 81.0702L947.827 80.798L946.351 80.5252L944.876 80.252L943.4 79.9783L941.925 79.7042L940.449 79.4297L938.974 79.1547L937.498 78.8793L936.023 78.6035L934.547 78.3274L933.072 78.0509L931.596 77.7741L930.121 77.497L928.645 77.2196L927.17 76.942L925.694 76.664L924.219 76.3858L922.743 76.1075L921.268 75.8289L919.792 75.5501L918.317 75.2711L916.841 74.992L915.366 74.7128L913.89 74.4334L912.415 74.154L910.939 73.8745L909.464 73.5949L907.988 73.3153L906.512 73.0356L905.037 72.7559L903.561 72.4763L902.086 72.1967L900.61 71.9171L899.135 71.6376L897.659 71.3582L896.184 71.0788L894.708 70.7996L893.233 70.5206L891.757 70.2416L890.282 69.9629L888.806 69.6843L887.331 69.406L885.855 69.1279L884.38 68.85L882.904 68.5724L881.429 68.295L879.953 68.018L878.478 67.7413L877.002 67.4649L875.527 67.1888L874.051 66.9131L872.576 66.6378L871.1 66.3629L869.625 66.0884L868.149 65.8144L866.674 65.5408L865.198 65.2677L863.723 64.9951L862.247 64.7229L860.772 64.4514L859.296 64.1803L857.82 63.9098L856.345 63.6399L854.869 63.3706L853.394 63.1019L851.918 62.8338L850.443 62.5664L848.967 62.2996L847.492 62.0335L846.016 61.7682L844.541 61.5035L843.065 61.2395L841.59 60.9763L840.114 60.7139L838.639 60.4523L837.163 60.1914L835.688 59.9313L834.212 59.6721L832.737 59.4138L831.261 59.1563L829.786 58.8997L828.31 58.644L826.835 58.3891L825.359 58.1353L823.884 57.8823L822.408 57.6304L820.933 57.3794L819.457 57.1294L817.982 56.8805L816.506 56.6325L815.031 56.3856L813.555 56.1397L812.079 55.895L810.604 55.6513L809.128 55.4087L807.653 55.1672L806.177 54.9269L804.702 54.6877L803.226 54.4497L801.751 54.2129L800.275 53.9773L798.8 53.7429L797.324 53.5097L795.849 53.2777L794.373 53.0471L792.898 52.8176L791.422 52.5895L789.947 52.3627L788.471 52.1372L786.996 51.913L785.52 51.6902L784.045 51.4687L782.569 51.2486L781.094 51.0299L779.618 50.8126L778.143 50.5967L776.667 50.3822L775.192 50.1692L773.716 49.9576L772.241 49.7475L770.765 49.5389L769.29 49.3318L767.814 49.1262L766.339 48.9221L764.863 48.7195L763.387 48.5185L761.912 48.3191L760.436 48.1212L758.961 47.925L757.485 47.7303L756.01 47.5372L754.534 47.3458L753.059 47.156L751.583 46.9678L750.108 46.7813L748.632 46.5965L747.157 46.4134L745.681 46.2319L744.206 46.0522L742.73 45.8742L741.255 45.6979L739.779 45.5234L738.304 45.3506L736.828 45.1796L735.353 45.0103L733.877 44.8429L732.402 44.6772L730.926 44.5134L729.451 44.3514L727.975 44.1911L726.5 44.0328L725.024 43.8763L723.549 43.7216L722.073 43.5688L720.598 43.4179L719.122 43.2689L717.647 43.1218L716.171 42.9765L714.695 42.8332L713.22 42.6919L711.744 42.5524L710.269 42.4149L708.793 42.2794L707.318 42.1458L705.842 42.0142L704.367 41.8846L702.891 41.7569L701.416 41.6313L699.94 41.5076L698.465 41.386L696.989 41.2664L695.514 41.1488L694.038 41.0332L692.563 40.9197L691.087 40.8082L689.612 40.6988L688.136 40.5915L686.661 40.4862L685.185 40.383L683.71 40.2819L682.234 40.1828L680.759 40.0859L679.283 39.991L677.808 39.8983L676.332 39.8077L674.857 39.7192L673.381 39.6328L671.906 39.5486L670.43 39.4665L668.955 39.3865L667.479 39.3087L666.003 39.233L664.528 39.1595L663.052 39.0882L661.577 39.019L660.101 38.952L658.626 38.8871L657.15 38.8245L655.675 38.764L654.199 38.7057L652.724 38.6496L651.248 38.5957L649.773 38.544L648.297 38.4945L646.822 38.4471L645.346 38.402L643.871 38.3591L642.395 38.3185L640.92 38.28L639.444 38.2437L637.969 38.2097L636.493 38.1779L635.018 38.1483L633.542 38.121L632.067 38.0959L630.591 38.0729L629.116 38.0523L627.64 38.0338L626.165 38.0176L624.689 38.0037L623.214 37.9919L621.738 37.9824L620.263 37.9752L618.787 37.9701L617.311 37.9673L615.836 37.9668L614.36 37.9685L612.885 37.9724L611.409 37.9785L609.934 37.9869L608.458 37.9976L606.983 38.0104L605.507 38.0255L604.032 38.0428L602.556 38.0624L601.081 38.0842L599.605 38.1083L598.13 38.1345L596.654 38.163L595.179 38.1937L593.703 38.2266L592.228 38.2618L590.752 38.2991L589.277 38.3387L587.801 38.3805L586.326 38.4245L584.85 38.4707L583.375 38.5192L581.899 38.5698L580.424 38.6226L578.948 38.6776L577.473 38.7348L575.997 38.7942L574.522 38.8558L573.046 38.9196L571.57 38.9855L570.095 39.0536L568.619 39.1239L567.144 39.1963L565.668 39.2709L564.193 39.3477L562.717 39.4266L561.242 39.5076L559.766 39.5908L558.291 39.6761L556.815 39.7636L555.34 39.8531L553.864 39.9448L552.389 40.0386L550.913 40.1345L549.438 40.2325L547.962 40.3326L546.487 40.4348L545.011 40.539L543.536 40.6454L542.06 40.7538L540.585 40.8642L539.109 40.9767L537.634 41.0913L536.158 41.2079L534.683 41.3265L533.207 41.4471L531.732 41.5697L530.256 41.6944L528.781 41.8211L527.305 41.9497L525.83 42.0804L524.354 42.2129L522.878 42.3475L521.403 42.4841L519.927 42.6225L518.452 42.7629L516.976 42.9053L515.501 43.0496L514.025 43.1957L512.55 43.3438L511.074 43.4938L509.599 43.6457L508.123 43.7994L506.648 43.955L505.172 44.1124L503.697 44.2717L502.221 44.4328L500.746 44.5958L499.27 44.7606L497.795 44.9271L496.319 45.0955L494.844 45.2656L493.368 45.4375L491.893 45.6112L490.417 45.7866L488.942 45.9638L487.466 46.1426L485.991 46.3232L484.515 46.5055L483.04 46.6895L481.564 46.8752L480.089 47.0625L478.613 47.2515L477.138 47.4422L475.662 47.6344L474.186 47.8283L472.711 48.0238L471.235 48.2208L469.76 48.4195L468.284 48.6197L466.809 48.8215L465.333 49.0249L463.858 49.2297L462.382 49.4361L460.907 49.644L459.431 49.8533L457.956 50.0642L456.48 50.2765L455.005 50.4902L453.529 50.7054L452.054 50.922L450.578 51.14L449.103 51.3595L447.627 51.5802L446.152 51.8024L444.676 52.0259L443.201 52.2508L441.725 52.477L440.25 52.7044L438.774 52.9332L437.299 53.1633L435.823 53.3946L434.348 53.6272L432.872 53.861L431.397 54.096L429.921 54.3322L428.446 54.5697L426.97 54.8082L425.494 55.048L424.019 55.2889L422.543 55.5309L421.068 55.7741L419.592 56.0183L418.117 56.2636L416.641 56.51L415.166 56.7574L413.69 57.0059L412.215 57.2554L410.739 57.5059L409.264 57.7574L407.788 58.0098L406.313 58.2632L404.837 58.5176L403.362 58.7728L401.886 59.029L400.411 59.2861L398.935 59.544L397.46 59.8028L395.984 60.0624L394.509 60.3229L393.033 60.5841L391.558 60.8462L390.082 61.109L388.607 61.3726L387.131 61.6369L385.656 61.9019L384.18 62.1677L382.705 62.4341L381.229 62.7012L379.753 62.969L378.278 63.2374L376.802 63.5064L375.327 63.776L373.851 64.0462L372.376 64.317L370.9 64.5883L369.425 64.8602L367.949 65.1325L366.474 65.4054L364.998 65.6787L363.523 65.9526L362.047 66.2268L360.572 66.5015L359.096 66.7766L357.621 67.0521L356.145 67.328L354.67 67.6042L353.194 67.8808L351.719 68.1577L350.243 68.4349L348.768 68.7124L347.292 68.9901L345.817 69.2681L344.341 69.5464L342.866 69.8248L341.39 70.1035L339.915 70.3823L338.439 70.6613L336.964 70.9404L335.488 71.2197L334.013 71.4991L332.537 71.7786L331.061 72.0581L329.586 72.3377L328.11 72.6174L326.635 72.897L325.159 73.1767L323.684 73.4563L322.208 73.7359L320.733 74.0155L319.257 74.2949L317.782 74.5744L316.306 74.8537L314.831 75.1328L313.355 75.4118L311.88 75.6907L310.404 75.9694L308.929 76.2479L307.453 76.5262L305.978 76.8043L304.502 77.0821L303.027 77.3596L301.551 77.6368L300.076 77.9138L298.6 78.1904L297.125 78.4667L295.649 78.7427L294.174 79.0182L292.698 79.2934L291.223 79.5682L289.747 79.8425L288.272 80.1165L286.796 80.3899L285.321 80.6628L283.845 80.9353L282.369 81.2073L280.894 81.4787L279.418 81.7496L277.943 82.0199L276.467 82.2896L274.992 82.5588L273.516 82.8273L272.041 83.0952L270.565 83.3624L269.09 83.629L267.614 83.8949L266.139 84.16L264.663 84.4245L263.188 84.6882L261.712 84.9512L260.237 85.2134L258.761 85.4748L257.286 85.7354L255.81 85.9952L254.335 86.2541L252.859 86.5122L251.384 86.7695L249.908 87.0258L248.433 87.2813L246.957 87.5358L245.482 87.7894L244.006 88.042L242.531 88.2937L241.055 88.5444L239.58 88.794L238.104 89.0427L236.629 89.2904L235.153 89.5369L233.677 89.7825L232.202 90.0269L230.726 90.2703L229.251 90.5125L227.775 90.7537L226.3 90.9936L224.824 91.2325L223.349 91.4701L221.873 91.7066L220.398 91.9418L218.922 92.1759L217.447 92.4087L215.971 92.6403L214.496 92.8705L213.02 93.0996L211.545 93.3273L210.069 93.5537L208.594 93.7789L207.118 94.0026L205.643 94.225L204.167 94.4461L202.692 94.6658L201.216 94.8841L199.741 95.101L198.265 95.3165L196.79 95.5305L195.314 95.7431L193.839 95.9542L192.363 96.1638L190.888 96.372L189.412 96.5787L187.936 96.7838L186.461 96.9875L184.985 97.1895L183.51 97.3901L182.034 97.589L180.559 97.7864L179.083 97.9822L177.608 98.1764L176.132 98.369L174.657 98.5599L173.181 98.7493L171.706 98.9369L170.23 99.1229L168.755 99.3072L167.279 99.4898L165.804 99.6708L164.328 99.85L162.853 100.027L161.377 100.203L159.902 100.377L158.426 100.55L156.951 100.72L155.475 100.889L154 101.056L152.524 101.221L151.049 101.384L149.573 101.545L148.098 101.705L146.622 101.863L145.147 102.019L143.671 102.173L142.196 102.325L140.72 102.476L139.244 102.624L137.769 102.771L136.293 102.915L134.818 103.058L133.342 103.199L131.867 103.338L130.391 103.474L128.916 103.609L127.44 103.742L125.965 103.873L124.489 104.002L123.014 104.13L121.538 104.255L120.063 104.378L118.587 104.499L117.112 104.618L115.636 104.735L114.161 104.85L112.685 104.963L111.21 105.073L109.734 105.182L108.259 105.289L106.783 105.394L105.308 105.496L103.832 105.597L102.357 105.695L100.881 105.791L99.4056 105.886L97.9301 105.978L96.4545 106.068L94.979 106.155L93.5035 106.241L92.028 106.325L90.5525 106.406L89.077 106.486L87.6015 106.563L86.1259 106.638L84.6504 106.711L83.1749 106.781L81.6994 106.85L80.2239 106.916L78.7484 106.98L77.2728 107.042L75.7973 107.102L74.3218 107.16L72.8463 107.215L71.3708 107.269L69.8953 107.32L68.4198 107.368L66.9442 107.415L65.4687 107.46L63.9932 107.502L62.5177 107.542L61.0422 107.58L59.5667 107.615L58.0911 107.649L56.6156 107.68L55.1401 107.709L53.6646 107.735L52.1891 107.76L50.7136 107.782L49.2381 107.802L47.7625 107.82L46.287 107.835L44.8115 107.849L43.336 107.86L41.8605 107.868L40.385 107.875L38.9094 107.879L37.4339 107.881L35.9584 107.881L34.4829 107.879L33.0074 107.874L31.5319 107.868L30.0564 107.859L28.5808 107.847L27.1053 107.834L25.6298 107.818L24.1543 107.8L22.6788 107.78L21.2033 107.757L19.7277 107.733L18.2522 107.706L16.7767 107.676L15.3012 107.645L13.8257 107.611L12.3502 107.576L10.8747 107.538L9.39914 107.497L7.92362 107.455L6.4481 107.41L4.97259 107.363L3.49707 107.314L2.02156 107.263L0.546043 107.209L-0.929472 107.154L-2.40499 107.096L-3.8805 107.036L-5.35602 106.974L-6.83153 106.909L-8.30705 106.843L-9.78256 106.774L-11.2581 106.703L-12.7336 106.63L-14.2091 106.555L-15.6846 106.477L-17.1601 106.398L-18.6357 106.316L-20.1112 106.232L-21.5867 106.146L-23.0622 106.058L-24.5377 105.968L-26.0132 105.876L-27.4887 105.781L-28.9643 105.685L-30.4398 105.586L-31.9153 105.485L-33.3908 105.382L-34.8663 105.278L-36.3418 105.171L-37.8174 105.062L-39.2929 104.951L-40.7684 104.837L-42.2439 104.722L-43.7194 104.605L-45.1949 104.486L-46.6704 104.365L-48.146 104.241L-49.6215 104.116L-51.097 103.989L-52.5725 103.86L-54.048 103.728L-55.5235 103.595L-56.9991 103.46L-58.4746 103.323L-59.9501 103.184L-61.4256 103.043L-62.9011 102.9L-64.3766 102.755L-65.8521 102.608L-67.3277 102.46L-68.8032 102.309L-70.2787 102.157L-71.7542 102.002L-73.2297 101.846L-74.7052 101.688L-76.1808 101.528L-77.6563 101.367L-79.1318 101.203L-80.6073 101.038L-82.0828 100.871L-83.5583 100.702L-85.0338 100.531L-86.5094 100.359L-87.9849 100.185L-89.4604 100.009L-90.9359 99.831L-92.4114 99.6516L-93.8869 99.4705L-95.3625 99.2876L-96.838 99.1032L-98.3135 98.917L-99.789 98.7292L-101.265 98.5397L-102.74 98.3486L-104.216 98.1558L-105.691 97.9614L-107.167 97.7655L-108.642 97.5679L-110.118 97.3688" stroke="#000E1E" stroke-width="22" stroke-miterlimit="10" stroke-linecap="round" stroke-linejoin="round"/>
<path d="M1533.61 76.868L1532.13 77.1384L1530.66 77.4094L1529.18 77.681L1527.7 77.953L1526.23 78.2256L1524.75 78.4987L1523.28 78.7722L1521.8 79.0462L1520.33 79.3206L1518.85 79.5955L1517.38 79.8707L1515.9 80.1464L1514.42 80.4224L1512.95 80.6988L1511.47 80.9755L1510 81.2525L1508.52 81.5298L1507.05 81.8074L1505.57 82.0853L1504.1 82.3634L1502.62 82.6417L1501.15 82.9202L1499.67 83.199L1498.19 83.4779L1496.72 83.7569L1495.24 84.0361L1493.77 84.3154L1492.29 84.5949L1490.82 84.8744L1489.34 85.1539L1487.87 85.4335L1486.39 85.7132L1484.91 85.9928L1483.44 86.2725L1481.96 86.5521L1480.49 86.8317L1479.01 87.1112L1477.54 87.3907L1476.06 87.6701L1474.59 87.9493L1473.11 88.2284L1471.63 88.5074L1470.16 88.7862L1468.68 89.0648L1467.21 89.3432L1465.73 89.6214L1464.26 89.8993L1462.78 90.1771L1461.31 90.4545L1459.83 90.7316L1458.36 91.0084L1456.88 91.285L1455.4 91.5611L1453.93 91.8369L1452.45 92.1123L1450.98 92.3873L1449.5 92.6619L1448.03 92.9361L1446.55 93.2098L1445.08 93.4831L1443.6 93.7559L1442.12 94.0281L1440.65 94.2999L1439.17 94.5711L1437.7 94.8418L1436.22 95.1119L1434.75 95.3814L1433.27 95.6502L1431.8 95.9185L1430.32 96.1861L1428.84 96.4531L1427.37 96.7194L1425.89 96.985L1424.42 97.2499L1422.94 97.5141L1421.47 97.7775L1419.99 98.0401L1418.52 98.302L1417.04 98.5631L1415.57 98.8234L1414.09 99.0829L1412.61 99.3415L1411.14 99.5993L1409.66 99.8561L1408.19 100.112L1406.71 100.367L1405.24 100.621L1403.76 100.875L1402.29 101.127L1400.81 101.378L1399.33 101.628L1397.86 101.878L1396.38 102.126L1394.91 102.373L1393.43 102.619L1391.96 102.864L1390.48 103.108L1389.01 103.351L1387.53 103.593L1386.05 103.834L1384.58 104.073L1383.1 104.312L1381.63 104.549L1380.15 104.785L1378.68 105.02L1377.2 105.253L1375.73 105.486L1374.25 105.717L1372.78 105.946L1371.3 106.175L1369.82 106.402L1368.35 106.628L1366.87 106.853L1365.4 107.076L1363.92 107.298L1362.45 107.518L1360.97 107.737L1359.5 107.955L1358.02 108.171L1356.54 108.386L1355.07 108.6L1353.59 108.812L1352.12 109.022L1350.64 109.231L1349.17 109.439L1347.69 109.645L1346.22 109.85L1344.74 110.053L1343.27 110.254L1341.79 110.454L1340.31 110.652L1338.84 110.849L1337.36 111.044L1335.89 111.238L1334.41 111.43L1332.94 111.62L1331.46 111.809L1329.99 111.996L1328.51 112.181L1327.03 112.365L1325.56 112.547L1324.08 112.727L1322.61 112.905L1321.13 113.082L1319.66 113.257L1318.18 113.43L1316.71 113.602L1315.23 113.772L1313.75 113.94L1312.28 114.106L1310.8 114.27L1309.33 114.433L1307.85 114.594L1306.38 114.753L1304.9 114.91L1303.43 115.065L1301.95 115.218L1300.48 115.37L1299 115.519L1297.52 115.667L1296.05 115.813L1294.57 115.957L1293.1 116.099L1291.62 116.239L1290.15 116.377L1288.67 116.513L1287.2 116.647L1285.72 116.779L1284.24 116.91L1282.77 117.038L1281.29 117.164L1279.82 117.288L1278.34 117.411L1276.87 117.531L1275.39 117.649L1273.92 117.765L1272.44 117.879L1270.96 117.991L1269.49 118.101L1268.01 118.209L1266.54 118.315L1265.06 118.419L1263.59 118.521L1262.11 118.621L1260.64 118.718L1259.16 118.814L1257.69 118.907L1256.21 118.998L1254.73 119.087L1253.26 119.174L1251.78 119.259L1250.31 119.342L1248.83 119.423L1247.36 119.501L1245.88 119.577L1244.41 119.652L1242.93 119.724L1241.45 119.793L1239.98 119.861L1238.5 119.927L1237.03 119.99L1235.55 120.051L1234.08 120.11L1232.6 120.167L1231.13 120.221L1229.65 120.274L1228.17 120.324L1226.7 120.372L1225.22 120.418L1223.75 120.461L1222.27 120.502L1220.8 120.542L1219.32 120.578L1217.85 120.613L1216.37 120.646L1214.9 120.676L1213.42 120.704L1211.94 120.73L1210.47 120.753L1208.99 120.775L1207.52 120.794L1206.04 120.811L1204.57 120.825L1203.09 120.838L1201.62 120.848L1200.14 120.856L1198.66 120.861L1197.19 120.865L1195.71 120.866L1194.24 120.865L1192.76 120.862L1191.29 120.856L1189.81 120.849L1188.34 120.839L1186.86 120.827L1185.38 120.812L1183.91 120.795L1182.43 120.777L1180.96 120.755L1179.48 120.732L1178.01 120.707L1176.53 120.679L1175.06 120.649L1173.58 120.616L1172.11 120.582L1170.63 120.545L1169.15 120.506L1167.68 120.465L1166.2 120.422L1164.73 120.376L1163.25 120.329L1161.78 120.279L1160.3 120.226L1158.83 120.172L1157.35 120.116L1155.87 120.057L1154.4 119.996L1152.92 119.933L1151.45 119.867L1149.97 119.8L1148.5 119.73L1147.02 119.659L1145.55 119.585L1144.07 119.509L1142.59 119.43L1141.12 119.35L1139.64 119.267L1138.17 119.183L1136.69 119.096L1135.22 119.007L1133.74 118.916L1132.27 118.823L1130.79 118.727L1129.32 118.63L1127.84 118.531L1126.36 118.429L1124.89 118.325L1123.41 118.22L1121.94 118.112L1120.46 118.002L1118.99 117.89L1117.51 117.776L1116.04 117.66L1114.56 117.542L1113.08 117.422L1111.61 117.3L1110.13 117.176L1108.66 117.05L1107.18 116.922L1105.71 116.792L1104.23 116.66L1102.76 116.526L1101.28 116.39L1099.8 116.252L1098.33 116.112L1096.85 115.971L1095.38 115.827L1093.9 115.681L1092.43 115.534L1090.95 115.384L1089.48 115.233L1088 115.08L1086.53 114.925L1085.05 114.768L1083.57 114.609L1082.1 114.449L1080.62 114.286L1079.15 114.122L1077.67 113.956L1076.2 113.788L1074.72 113.619L1073.25 113.447L1071.77 113.274L1070.29 113.099L1068.82 112.923L1067.34 112.744L1065.87 112.564L1064.39 112.382L1062.92 112.199L1061.44 112.014L1059.97 111.827L1058.49 111.638L1057.02 111.448L1055.54 111.256L1054.06 111.063L1052.59 110.868L1051.11 110.671L1049.64 110.473L1048.16 110.274L1046.69 110.072L1045.21 109.869L1043.74 109.665L1042.26 109.459L1040.78 109.252L1039.31 109.043L1037.83 108.832L1036.36 108.62L1034.88 108.407L1033.41 108.192L1031.93 107.976L1030.46 107.759L1028.98 107.54L1027.5 107.319L1026.03 107.097L1024.55 106.874L1023.08 106.65L1021.6 106.424L1020.13 106.197L1018.65 105.969L1017.18 105.739L1015.7 105.508L1014.23 105.276L1012.75 105.042L1011.27 104.808L1009.8 104.572L1008.32 104.335L1006.85 104.097L1005.37 103.857L1003.9 103.617L1002.42 103.375L1000.95 103.132L999.47 102.888L997.994 102.643L996.519 102.397L995.043 102.15L993.568 101.902L992.092 101.653L990.617 101.402L989.141 101.151L987.666 100.899L986.19 100.646L984.715 100.392L983.239 100.137L981.764 99.881L980.288 99.6242L978.813 99.3666L977.337 99.108L975.862 98.8486L974.386 98.5885L972.911 98.3274L971.435 98.0656L969.96 97.803L968.484 97.5397L967.009 97.2756L965.533 97.0107L964.058 96.7452L962.582 96.479L961.107 96.2121L959.631 95.9445L958.156 95.6763L956.68 95.4075L955.204 95.1381L953.729 94.868L952.253 94.5974L950.778 94.3262L949.302 94.0546L947.827 93.7823L946.351 93.5096L944.876 93.2364L943.4 92.9627L941.925 92.6886L940.449 92.414L938.974 92.139L937.498 91.8637L936.023 91.5879L934.547 91.3118L933.072 91.0353L931.596 90.7585L930.121 90.4814L928.645 90.204L927.17 89.9263L925.694 89.6484L924.219 89.3702L922.743 89.0918L921.268 88.8132L919.792 88.5344L918.317 88.2555L916.841 87.9764L915.366 87.6972L913.89 87.4178L912.415 87.1384L910.939 86.8588L909.464 86.5793L907.988 86.2996L906.512 86.02L905.037 85.7403L903.561 85.4607L902.086 85.1811L900.61 84.9015L899.135 84.622L897.659 84.3425L896.184 84.0632L894.708 83.784L893.233 83.5049L891.757 83.226L890.282 82.9473L888.806 82.6687L887.331 82.3904L885.855 82.1122L884.38 81.8344L882.904 81.5567L881.429 81.2794L879.953 81.0024L878.478 80.7256L877.002 80.4492L875.527 80.1732L874.051 79.8975L872.576 79.6222L871.1 79.3473L869.625 79.0728L868.149 78.7988L866.674 78.5252L865.198 78.2521L863.723 77.9795L862.247 77.7073L860.772 77.4357L859.296 77.1647L857.82 76.8942L856.345 76.6243L854.869 76.355L853.394 76.0863L851.918 75.8182L850.443 75.5508L848.967 75.284L847.492 75.0179L846.016 74.7525L844.541 74.4878L843.065 74.2239L841.59 73.9607L840.114 73.6983L838.639 73.4366L837.163 73.1757L835.688 72.9157L834.212 72.6565L832.737 72.3982L831.261 72.1407L829.786 71.884L828.31 71.6283L826.835 71.3735L825.359 71.1197L823.884 70.8667L822.408 70.6148L820.933 70.3638L819.457 70.1138L817.982 69.8648L816.506 69.6169L815.031 69.3699L813.555 69.1241L812.079 68.8793L810.604 68.6356L809.128 68.3931L807.653 68.1516L806.177 67.9113L804.702 67.6721L803.226 67.4341L801.751 67.1973L800.275 66.9616L798.8 66.7272L797.324 66.4941L795.849 66.2621L794.373 66.0314L792.898 65.802L791.422 65.5739L789.947 65.3471L788.471 65.1216L786.996 64.8974L785.52 64.6746L784.045 64.4531L782.569 64.233L781.094 64.0143L779.618 63.797L778.143 63.581L776.667 63.3666L775.192 63.1536L773.716 62.942L772.241 62.7319L770.765 62.5233L769.29 62.3162L767.814 62.1105L766.339 61.9065L764.863 61.7039L763.387 61.5029L761.912 61.3035L760.436 61.1056L758.961 60.9093L757.485 60.7147L756.01 60.5216L754.534 60.3301L753.059 60.1403L751.583 59.9522L750.108 59.7657L748.632 59.5809L747.157 59.3977L745.681 59.2163L744.206 59.0366L742.73 58.8586L741.255 58.6823L739.779 58.5078L738.304 58.335L736.828 58.1639L735.353 57.9947L733.877 57.8273L732.402 57.6616L730.926 57.4977L729.451 57.3357L727.975 57.1755L726.5 57.0171L725.024 56.8606L723.549 56.706L722.073 56.5532L720.598 56.4023L719.122 56.2532L717.647 56.1061L716.171 55.9609L714.695 55.8176L713.22 55.6762L711.744 55.5368L710.269 55.3993L708.793 55.2638L707.318 55.1302L705.842 54.9986L704.367 54.8689L702.891 54.7413L701.416 54.6156L699.94 54.492L698.465 54.3704L696.989 54.2508L695.514 54.1332L694.038 54.0176L692.563 53.9041L691.087 53.7926L689.612 53.6832L688.136 53.5758L686.661 53.4706L685.185 53.3673L683.71 53.2662L682.234 53.1672L680.759 53.0702L679.283 52.9754L677.808 52.8827L676.332 52.7921L674.857 52.7036L673.381 52.6172L671.906 52.5329L670.43 52.4509L668.955 52.3709L667.479 52.2931L666.003 52.2174L664.528 52.1439L663.052 52.0725L661.577 52.0034L660.101 51.9363L658.626 51.8715L657.15 51.8088L655.675 51.7484L654.199 51.6901L652.724 51.634L651.248 51.5801L649.773 51.5283L648.297 51.4788L646.822 51.4315L645.346 51.3864L643.871 51.3435L642.395 51.3028L640.92 51.2644L639.444 51.2281L637.969 51.1941L636.493 51.1623L635.018 51.1327L633.542 51.1053L632.067 51.0802L630.591 51.0573L629.116 51.0366L627.64 51.0182L626.165 51.002L624.689 50.988L623.214 50.9763L621.738 50.9668L620.263 50.9595L618.787 50.9545L617.311 50.9517L615.836 50.9511L614.36 50.9529L612.885 50.9568L611.409 50.9629L609.934 50.9713L608.458 50.9819L606.983 50.9948L605.507 51.0099L604.032 51.0272L602.556 51.0468L601.081 51.0686L599.605 51.0926L598.13 51.1189L596.654 51.1473L595.179 51.1781L593.703 51.211L592.228 51.2461L590.752 51.2835L589.277 51.3231L587.801 51.3649L586.326 51.4089L584.85 51.4551L583.375 51.5035L581.899 51.5541L580.424 51.607L578.948 51.662L577.473 51.7192L575.997 51.7786L574.522 51.8402L573.046 51.9039L571.57 51.9699L570.095 52.038L568.619 52.1083L567.144 52.1807L565.668 52.2553L564.193 52.3321L562.717 52.4109L561.242 52.492L559.766 52.5752L558.291 52.6605L556.815 52.7479L555.34 52.8375L553.864 52.9292L552.389 53.023L550.913 53.1189L549.438 53.2169L547.962 53.317L546.487 53.4191L545.011 53.5234L543.536 53.6297L542.06 53.7381L540.585 53.8486L539.109 53.9611L537.634 54.0756L536.158 54.1922L534.683 54.3109L533.207 54.4315L531.732 54.5541L530.256 54.6788L528.781 54.8055L527.305 54.9341L525.83 55.0647L524.354 55.1973L522.878 55.3319L521.403 55.4684L519.927 55.6069L518.452 55.7473L516.976 55.8897L515.501 56.034L514.025 56.1801L512.55 56.3282L511.074 56.4782L509.599 56.63L508.123 56.7838L506.648 56.9393L505.172 57.0968L503.697 57.2561L502.221 57.4172L500.746 57.5802L499.27 57.7449L497.795 57.9115L496.319 58.0799L494.844 58.25L493.368 58.4219L491.893 58.5956L490.417 58.771L488.942 58.9482L487.466 59.127L485.991 59.3076L484.515 59.4899L483.04 59.6739L481.564 59.8596L480.089 60.0469L478.613 60.2359L477.138 60.4265L475.662 60.6188L474.186 60.8127L472.711 61.0082L471.235 61.2052L469.76 61.4039L468.284 61.6041L466.809 61.8059L465.333 62.0092L463.858 62.2141L462.382 62.4205L460.907 62.6283L459.431 62.8377L457.956 63.0486L456.48 63.2609L455.005 63.4746L453.529 63.6898L452.054 63.9064L450.578 64.1244L449.103 64.3439L447.627 64.5646L446.152 64.7868L444.676 65.0103L443.201 65.2352L441.725 65.4613L440.25 65.6888L438.774 65.9176L437.299 66.1477L435.823 66.379L434.348 66.6115L432.872 66.8454L431.397 67.0804L429.921 67.3166L428.446 67.554L426.97 67.7926L425.494 68.0324L424.019 68.2733L422.543 68.5153L421.068 68.7584L419.592 69.0027L418.117 69.248L416.641 69.4944L415.166 69.7418L413.69 69.9903L412.215 70.2398L410.739 70.4903L409.264 70.7417L407.788 70.9942L406.313 71.2476L404.837 71.502L403.362 71.7572L401.886 72.0134L400.411 72.2704L398.935 72.5284L397.46 72.7872L395.984 73.0468L394.509 73.3072L393.033 73.5685L391.558 73.8306L390.082 74.0934L388.607 74.357L387.131 74.6213L385.656 74.8863L384.18 75.1521L382.705 75.4185L381.229 75.6856L379.753 75.9533L378.278 76.2217L376.802 76.4908L375.327 76.7604L373.851 77.0306L372.376 77.3014L370.9 77.5727L369.425 77.8445L367.949 78.1169L366.474 78.3898L364.998 78.6631L363.523 78.937L362.047 79.2112L360.572 79.4859L359.096 79.761L357.621 80.0365L356.145 80.3124L354.67 80.5886L353.194 80.8652L351.719 81.1421L350.243 81.4193L348.768 81.6968L347.292 81.9745L345.817 82.2525L344.341 82.5307L342.866 82.8092L341.39 83.0879L339.915 83.3667L338.439 83.6457L336.964 83.9248L335.488 84.2041L334.013 84.4835L332.537 84.7629L331.061 85.0425L329.586 85.3221L328.11 85.6017L326.635 85.8814L325.159 86.1611L323.684 86.4407L322.208 86.7203L320.733 86.9998L319.257 87.2793L317.782 87.5587L316.306 87.838L314.831 88.1172L313.355 88.3962L311.88 88.6751L310.404 88.9538L308.929 89.2323L307.453 89.5106L305.978 89.7886L304.502 90.0664L303.027 90.344L301.551 90.6212L300.076 90.8982L298.6 91.1748L297.125 91.4511L295.649 91.727L294.174 92.0026L292.698 92.2778L291.223 92.5526L289.747 92.8269L288.272 93.1008L286.796 93.3743L285.321 93.6472L283.845 93.9197L282.369 94.1917L280.894 94.4631L279.418 94.734L277.943 95.0043L276.467 95.274L274.992 95.5431L273.516 95.8117L272.041 96.0795L270.565 96.3468L269.09 96.6133L267.614 96.8792L266.139 97.1444L264.663 97.4089L263.188 97.6726L261.712 97.9356L260.237 98.1978L258.761 98.4592L257.286 98.7198L255.81 98.9796L254.335 99.2385L252.859 99.4966L251.384 99.7538L249.908 100.01L248.433 100.266L246.957 100.52L245.482 100.774L244.006 101.026L242.531 101.278L241.055 101.529L239.58 101.778L238.104 102.027L236.629 102.275L235.153 102.521L233.677 102.767L232.202 103.011L230.726 103.255L229.251 103.497L227.775 103.738L226.3 103.978L224.824 104.217L223.349 104.454L221.873 104.691L220.398 104.926L218.922 105.16L217.447 105.393L215.971 105.625L214.496 105.855L213.02 106.084L211.545 106.312L210.069 106.538L208.594 106.763L207.118 106.987L205.643 107.209L204.167 107.43L202.692 107.65L201.216 107.868L199.741 108.085L198.265 108.301L196.79 108.515L195.314 108.727L193.839 108.939L192.363 109.148L190.888 109.356L189.412 109.563L187.936 109.768L186.461 109.972L184.985 110.174L183.51 110.374L182.034 110.573L180.559 110.771L179.083 110.967L177.608 111.161L176.132 111.353L174.657 111.544L173.181 111.734L171.706 111.921L170.23 112.107L168.755 112.292L167.279 112.474L165.804 112.655L164.328 112.834L162.853 113.012L161.377 113.188L159.902 113.362L158.426 113.534L156.951 113.704L155.475 113.873L154 114.04L152.524 114.205L151.049 114.368L149.573 114.53L148.098 114.69L146.622 114.847L145.147 115.003L143.671 115.157L142.196 115.31L140.72 115.46L139.244 115.608L137.769 115.755L136.293 115.9L134.818 116.042L133.342 116.183L131.867 116.322L130.391 116.459L128.916 116.594L127.44 116.727L125.965 116.858L124.489 116.987L123.014 117.114L121.538 117.239L120.063 117.362L118.587 117.483L117.112 117.602L115.636 117.719L114.161 117.834L112.685 117.947L111.21 118.058L109.734 118.167L108.259 118.273L106.783 118.378L105.308 118.48L103.832 118.581L102.357 118.679L100.881 118.776L99.4056 118.87L97.9301 118.962L96.4545 119.052L94.979 119.14L93.5035 119.226L92.028 119.309L90.5525 119.391L89.077 119.47L87.6014 119.547L86.1259 119.622L84.6504 119.695L83.1749 119.766L81.6994 119.834L80.2239 119.901L78.7484 119.965L77.2728 120.027L75.7973 120.087L74.3218 120.144L72.8463 120.2L71.3708 120.253L69.8953 120.304L68.4197 120.353L66.9442 120.399L65.4687 120.444L63.9932 120.486L62.5177 120.526L61.0422 120.564L59.5667 120.6L58.0911 120.633L56.6156 120.664L55.1401 120.693L53.6646 120.72L52.1891 120.744L50.7136 120.766L49.238 120.786L47.7625 120.804L46.287 120.82L44.8115 120.833L43.336 120.844L41.8605 120.853L40.385 120.859L38.9094 120.864L37.4339 120.866L35.9584 120.866L34.4829 120.863L33.0074 120.859L31.5319 120.852L30.0563 120.843L28.5808 120.832L27.1053 120.818L25.6298 120.802L24.1543 120.784L22.6788 120.764L21.2033 120.742L19.7277 120.717L18.2522 120.69L16.7767 120.661L15.3012 120.629L13.8257 120.596L12.3502 120.56L10.8746 120.522L9.39913 120.482L7.92362 120.439L6.4481 120.395L4.97259 120.348L3.49707 120.299L2.02156 120.247L0.546042 120.194L-0.929474 120.138L-2.40499 120.08L-3.8805 120.02L-5.35602 119.958L-6.83154 119.894L-8.30705 119.827L-9.78257 119.758L-11.2581 119.687L-12.7336 119.614L-14.2091 119.539L-15.6846 119.462L-17.1601 119.382L-18.6357 119.3L-20.1112 119.217L-21.5867 119.131L-23.0622 119.042L-24.5377 118.952L-26.0132 118.86L-27.4888 118.766L-28.9643 118.669L-30.4398 118.57L-31.9153 118.47L-33.3908 118.367L-34.8663 118.262L-36.3418 118.155L-37.8174 118.046L-39.2929 117.935L-40.7684 117.822L-42.2439 117.707L-43.7194 117.589L-45.1949 117.47L-46.6704 117.349L-48.146 117.226L-49.6215 117.1L-51.097 116.973L-52.5725 116.844L-54.048 116.713L-55.5235 116.58L-56.9991 116.444L-58.4746 116.307L-59.9501 116.168L-61.4256 116.027L-62.9011 115.884L-64.3766 115.739L-65.8521 115.593L-67.3277 115.444L-68.8032 115.293L-70.2787 115.141L-71.7542 114.987L-73.2297 114.831L-74.7052 114.673L-76.1808 114.513L-77.6563 114.351L-79.1318 114.188L-80.6073 114.022L-82.0828 113.855L-83.5583 113.686L-85.0338 113.516L-86.5094 113.343L-87.9849 113.169L-89.4604 112.993L-90.9359 112.815L-92.4114 112.636L-93.8869 112.455L-95.3625 112.272L-96.838 112.088L-98.3135 111.901L-99.789 111.714L-101.265 111.524L-102.74 111.333L-104.216 111.14L-105.691 110.946L-107.167 110.75L-108.642 110.552L-110.118 110.353L-111.593 110.152L-113.069 109.95" stroke="#000E1E" stroke-width="22" stroke-miterlimit="10" stroke-linecap="round" stroke-linejoin="round"/>
<path d="M1535.08 98.5718L1533.61 98.8416L1532.13 99.1121L1530.66 99.3831L1529.18 99.6546L1527.7 99.9267L1526.23 100.199L1524.75 100.472L1523.28 100.746L1521.8 101.02L1520.33 101.294L1518.85 101.569L1517.38 101.844L1515.9 102.12L1514.42 102.396L1512.95 102.672L1511.47 102.949L1510 103.226L1508.52 103.503L1507.05 103.781L1505.57 104.059L1504.1 104.337L1502.62 104.615L1501.15 104.894L1499.67 105.173L1498.19 105.451L1496.72 105.731L1495.24 106.01L1493.77 106.289L1492.29 106.568L1490.82 106.848L1489.34 107.128L1487.87 107.407L1486.39 107.687L1484.91 107.966L1483.44 108.246L1481.96 108.526L1480.49 108.805L1479.01 109.085L1477.54 109.364L1476.06 109.644L1474.59 109.923L1473.11 110.202L1471.63 110.481L1470.16 110.76L1468.68 111.038L1467.21 111.317L1465.73 111.595L1464.26 111.873L1462.78 112.151L1461.31 112.428L1459.83 112.705L1458.36 112.982L1456.88 113.259L1455.4 113.535L1453.93 113.811L1452.45 114.086L1450.98 114.361L1449.5 114.636L1448.03 114.91L1446.55 115.183L1445.08 115.457L1443.6 115.729L1442.12 116.002L1440.65 116.274L1439.17 116.545L1437.7 116.815L1436.22 117.085L1434.75 117.355L1433.27 117.624L1431.8 117.892L1430.32 118.16L1428.84 118.427L1427.37 118.693L1425.89 118.959L1424.42 119.224L1422.94 119.488L1421.47 119.751L1419.99 120.014L1418.52 120.276L1417.04 120.537L1415.57 120.797L1414.09 121.057L1412.61 121.315L1411.14 121.573L1409.66 121.83L1408.19 122.086L1406.71 122.341L1405.24 122.595L1403.76 122.848L1402.29 123.1L1400.81 123.352L1399.33 123.602L1397.86 123.851L1396.38 124.1L1394.91 124.347L1393.43 124.593L1391.96 124.838L1390.48 125.082L1389.01 125.325L1387.53 125.567L1386.05 125.807L1384.58 126.047L1383.1 126.285L1381.63 126.522L1380.15 126.758L1378.68 126.993L1377.2 127.227L1375.73 127.459L1374.25 127.69L1372.78 127.92L1371.3 128.149L1369.82 128.376L1368.35 128.602L1366.87 128.826L1365.4 129.049L1363.92 129.271L1362.45 129.492L1360.97 129.711L1359.5 129.929L1358.02 130.145L1356.54 130.36L1355.07 130.573L1353.59 130.785L1352.12 130.996L1350.64 131.205L1349.17 131.413L1347.69 131.619L1346.22 131.823L1344.74 132.026L1343.27 132.228L1341.79 132.428L1340.31 132.626L1338.84 132.823L1337.36 133.018L1335.89 133.211L1334.41 133.403L1332.94 133.594L1331.46 133.782L1329.99 133.969L1328.51 134.155L1327.03 134.338L1325.56 134.52L1324.08 134.7L1322.61 134.879L1321.13 135.056L1319.66 135.231L1318.18 135.404L1316.71 135.576L1315.23 135.745L1313.75 135.913L1312.28 136.08L1310.8 136.244L1309.33 136.407L1307.85 136.567L1306.38 136.726L1304.9 136.883L1303.43 137.039L1301.95 137.192L1300.48 137.343L1299 137.493L1297.52 137.641L1296.05 137.786L1294.57 137.93L1293.1 138.072L1291.62 138.212L1290.15 138.35L1288.67 138.487L1287.2 138.621L1285.72 138.753L1284.24 138.883L1282.77 139.011L1281.29 139.138L1279.82 139.262L1278.34 139.384L1276.87 139.504L1275.39 139.623L1273.92 139.739L1272.44 139.853L1270.96 139.965L1269.49 140.075L1268.01 140.183L1266.54 140.289L1265.06 140.393L1263.59 140.494L1262.11 140.594L1260.64 140.692L1259.16 140.787L1257.69 140.881L1256.21 140.972L1254.73 141.061L1253.26 141.148L1251.78 141.233L1250.31 141.316L1248.83 141.396L1247.36 141.475L1245.88 141.551L1244.41 141.625L1242.93 141.697L1241.45 141.767L1239.98 141.835L1238.5 141.9L1237.03 141.963L1235.55 142.025L1234.08 142.084L1232.6 142.14L1231.13 142.195L1229.65 142.247L1228.17 142.297L1226.7 142.345L1225.22 142.391L1223.75 142.435L1222.27 142.476L1220.8 142.515L1219.32 142.552L1217.85 142.587L1216.37 142.619L1214.9 142.65L1213.42 142.678L1211.94 142.703L1210.47 142.727L1208.99 142.748L1207.52 142.767L1206.04 142.784L1204.57 142.799L1203.09 142.811L1201.62 142.821L1200.14 142.829L1198.66 142.835L1197.19 142.839L1195.71 142.84L1194.24 142.839L1192.76 142.836L1191.29 142.83L1189.81 142.822L1188.34 142.812L1186.86 142.8L1185.38 142.786L1183.91 142.769L1182.43 142.75L1180.96 142.729L1179.48 142.706L1178.01 142.68L1176.53 142.652L1175.06 142.622L1173.58 142.59L1172.11 142.556L1170.63 142.519L1169.15 142.48L1167.68 142.439L1166.2 142.395L1164.73 142.35L1163.25 142.302L1161.78 142.252L1160.3 142.2L1158.83 142.146L1157.35 142.089L1155.87 142.03L1154.4 141.969L1152.92 141.906L1151.45 141.841L1149.97 141.774L1148.5 141.704L1147.02 141.632L1145.55 141.558L1144.07 141.482L1142.59 141.404L1141.12 141.323L1139.64 141.241L1138.17 141.156L1136.69 141.069L1135.22 140.981L1133.74 140.89L1132.27 140.796L1130.79 140.701L1129.32 140.604L1127.84 140.504L1126.36 140.403L1124.89 140.299L1123.41 140.193L1121.94 140.086L1120.46 139.976L1118.99 139.864L1117.51 139.75L1116.04 139.634L1114.56 139.516L1113.08 139.396L1111.61 139.274L1110.13 139.15L1108.66 139.024L1107.18 138.896L1105.71 138.766L1104.23 138.634L1102.76 138.5L1101.28 138.364L1099.8 138.226L1098.33 138.086L1096.85 137.944L1095.38 137.801L1093.9 137.655L1092.43 137.507L1090.95 137.358L1089.48 137.207L1088 137.054L1086.53 136.899L1085.05 136.742L1083.57 136.583L1082.1 136.422L1080.62 136.26L1079.15 136.096L1077.67 135.93L1076.2 135.762L1074.72 135.592L1073.25 135.421L1071.77 135.248L1070.29 135.073L1068.82 134.896L1067.34 134.718L1065.87 134.538L1064.39 134.356L1062.92 134.173L1061.44 133.987L1059.97 133.801L1058.49 133.612L1057.02 133.422L1055.54 133.23L1054.06 133.037L1052.59 132.842L1051.11 132.645L1049.64 132.447L1048.16 132.247L1046.69 132.046L1045.21 131.843L1043.74 131.639L1042.26 131.433L1040.78 131.225L1039.31 131.016L1037.83 130.806L1036.36 130.594L1034.88 130.381L1033.41 130.166L1031.93 129.95L1030.46 129.732L1028.98 129.513L1027.5 129.293L1026.03 129.071L1024.55 128.848L1023.08 128.624L1021.6 128.398L1020.13 128.171L1018.65 127.942L1017.18 127.713L1015.7 127.482L1014.23 127.249L1012.75 127.016L1011.27 126.781L1009.8 126.545L1008.32 126.308L1006.85 126.07L1005.37 125.831L1003.9 125.59L1002.42 125.349L1000.95 125.106L999.47 124.862L997.994 124.617L996.519 124.371L995.043 124.124L993.568 123.875L992.092 123.626L990.617 123.376L989.141 123.125L987.666 122.873L986.19 122.62L984.715 122.366L983.239 122.111L981.764 121.855L980.288 121.598L978.813 121.34L977.337 121.082L975.862 120.822L974.386 120.562L972.911 120.301L971.435 120.039L969.96 119.777L968.484 119.513L967.009 119.249L965.533 118.984L964.058 118.719L962.582 118.453L961.107 118.186L959.631 117.918L958.155 117.65L956.68 117.381L955.204 117.112L953.729 116.842L952.253 116.571L950.778 116.3L949.302 116.028L947.827 115.756L946.351 115.483L944.876 115.21L943.4 114.936L941.925 114.662L940.449 114.388L938.974 114.113L937.498 113.837L936.023 113.562L934.547 113.285L933.072 113.009L931.596 112.732L930.121 112.455L928.645 112.178L927.17 111.9L925.694 111.622L924.219 111.344L922.743 111.065L921.268 110.787L919.792 110.508L918.317 110.229L916.841 109.95L915.366 109.671L913.89 109.391L912.414 109.112L910.939 108.832L909.463 108.553L907.988 108.273L906.512 107.994L905.037 107.714L903.561 107.434L902.086 107.155L900.61 106.875L899.135 106.596L897.659 106.316L896.184 106.037L894.708 105.758L893.233 105.479L891.757 105.2L890.282 104.921L888.806 104.642L887.331 104.364L885.855 104.086L884.38 103.808L882.904 103.53L881.429 103.253L879.953 102.976L878.478 102.699L877.002 102.423L875.527 102.147L874.051 101.871L872.576 101.596L871.1 101.321L869.625 101.046L868.149 100.772L866.674 100.499L865.198 100.226L863.722 99.9531L862.247 99.681L860.771 99.4094L859.296 99.1383L857.82 98.8679L856.345 98.5979L854.869 98.3286L853.394 98.0599L851.918 97.7918L850.443 97.5244L848.967 97.2576L847.492 96.9915L846.016 96.7262L844.541 96.4615L843.065 96.1975L841.59 95.9343L840.114 95.6719L838.639 95.4103L837.163 95.1494L835.688 94.8893L834.212 94.6301L832.737 94.3718L831.261 94.1143L829.786 93.8577L828.31 93.602L826.835 93.3472L825.359 93.0933L823.884 92.8404L822.408 92.5884L820.933 92.3374L819.457 92.0874L817.982 91.8385L816.506 91.5905L815.03 91.3436L813.555 91.0978L812.079 90.853L810.604 90.6093L809.128 90.3667L807.653 90.1252L806.177 89.8849L804.702 89.6457L803.226 89.4077L801.751 89.1709L800.275 88.9353L798.8 88.7009L797.324 88.4677L795.849 88.2357L794.373 88.0051L792.898 87.7756L791.422 87.5475L789.947 87.3207L788.471 87.0952L786.996 86.871L785.52 86.6482L784.045 86.4267L782.569 86.2066L781.094 85.9879L779.618 85.7706L778.143 85.5547L776.667 85.3402L775.192 85.1272L773.716 84.9156L772.241 84.7055L770.765 84.4969L769.289 84.2898L767.814 84.0842L766.338 83.8801L764.863 83.6775L763.387 83.4765L761.912 83.2771L760.436 83.0792L758.961 82.883L757.485 82.6883L756.01 82.4952L754.534 82.3038L753.059 82.114L751.583 81.9258L750.108 81.7393L748.632 81.5545L747.157 81.3714L745.681 81.19L744.206 81.0102L742.73 80.8322L741.255 80.6559L739.779 80.4814L738.304 80.3086L736.828 80.1376L735.353 79.9684L733.877 79.8009L732.402 79.6352L730.926 79.4714L729.451 79.3094L727.975 79.1492L726.5 78.9908L725.024 78.8343L723.549 78.6796L722.073 78.5268L720.597 78.3759L719.122 78.2269L717.646 78.0798L716.171 77.9345L714.695 77.7912L713.22 77.6499L711.744 77.5104L710.269 77.3729L708.793 77.2374L707.318 77.1038L705.842 76.9722L704.367 76.8426L702.891 76.7149L701.416 76.5893L699.94 76.4656L698.465 76.344L696.989 76.2244L695.514 76.1068L694.038 75.9912L692.563 75.8777L691.087 75.7662L689.612 75.6568L688.136 75.5495L686.661 75.4442L685.185 75.341L683.71 75.2399L682.234 75.1408L680.759 75.0439L679.283 74.9491L677.808 74.8563L676.332 74.7657L674.857 74.6772L673.381 74.5908L671.905 74.5066L670.43 74.4245L668.954 74.3445L667.479 74.2667L666.003 74.191L664.528 74.1175L663.052 74.0462L661.577 73.977L660.101 73.91L658.626 73.8451L657.15 73.7825L655.675 73.722L654.199 73.6637L652.724 73.6076L651.248 73.5537L649.773 73.502L648.297 73.4525L646.822 73.4052L645.346 73.36L643.871 73.3172L642.395 73.2765L640.92 73.238L639.444 73.2018L637.969 73.1677L636.493 73.1359L635.018 73.1064L633.542 73.079L632.067 73.0539L630.591 73.0309L629.116 73.0103L627.64 72.9918L626.164 72.9757L624.689 72.9617L623.213 72.9499L621.738 72.9404L620.262 72.9332L618.787 72.9281L617.311 72.9254L615.836 72.9248L614.36 72.9265L612.885 72.9304L611.409 72.9365L609.934 72.945L608.458 72.9556L606.983 72.9684L605.507 72.9835L604.032 73.0009L602.556 73.0204L601.081 73.0422L599.605 73.0663L598.13 73.0925L596.654 73.121L595.179 73.1517L593.703 73.1846L592.228 73.2198L590.752 73.2571L589.277 73.2967L587.801 73.3385L586.326 73.3825L584.85 73.4287L583.375 73.4772L581.899 73.5278L580.424 73.5806L578.948 73.6356L577.472 73.6928L575.997 73.7522L574.521 73.8138L573.046 73.8776L571.57 73.9435L570.095 74.0116L568.619 74.0819L567.144 74.1543L565.668 74.2289L564.193 74.3057L562.717 74.3846L561.242 74.4656L559.766 74.5488L558.291 74.6341L556.815 74.7216L555.34 74.8112L553.864 74.9028L552.389 74.9966L550.913 75.0925L549.438 75.1905L547.962 75.2906L546.487 75.3928L545.011 75.4971L543.536 75.6034L542.06 75.7118L540.585 75.8222L539.109 75.9347L537.634 76.0493L536.158 76.1659L534.683 76.2845L533.207 76.4051L531.732 76.5278L530.256 76.6524L528.78 76.7791L527.305 76.9077L525.829 77.0384L524.354 77.171L522.878 77.3055L521.403 77.4421L519.927 77.5806L518.452 77.7209L516.976 77.8633L515.501 78.0076L514.025 78.1537L512.55 78.3018L511.074 78.4518L509.599 78.6037L508.123 78.7574L506.648 78.913L505.172 79.0704L503.697 79.2297L502.221 79.3908L500.746 79.5538L499.27 79.7186L497.795 79.8852L496.319 80.0535L494.844 80.2236L493.368 80.3955L491.893 80.5692L490.417 80.7446L488.942 80.9218L487.466 81.1007L485.991 81.2813L484.515 81.4636L483.039 81.6475L481.564 81.8332L480.088 82.0205L478.613 82.2095L477.137 82.4002L475.662 82.5924L474.186 82.7863L472.711 82.9818L471.235 83.1788L469.76 83.3775L468.284 83.5777L466.809 83.7795L465.333 83.9829L463.858 84.1877L462.382 84.3941L460.907 84.602L459.431 84.8113L457.956 85.0222L456.48 85.2345L455.005 85.4482L453.529 85.6634L452.054 85.88L450.578 86.0981L449.103 86.3175L447.627 86.5383L446.152 86.7604L444.676 86.9839L443.201 87.2088L441.725 87.435L440.25 87.6624L438.774 87.8912L437.299 88.1213L435.823 88.3526L434.347 88.5852L432.872 88.819L431.396 89.054L429.921 89.2902L428.445 89.5277L426.97 89.7662L425.494 90.006L424.019 90.2469L422.543 90.4889L421.068 90.7321L419.592 90.9763L418.117 91.2216L416.641 91.468L415.166 91.7154L413.69 91.9639L412.215 92.2134L410.739 92.4639L409.264 92.7154L407.788 92.9678L406.313 93.2212L404.837 93.4756L403.362 93.7308L401.886 93.987L400.411 94.2441L398.935 94.502L397.46 94.7608L395.984 95.0204L394.509 95.2809L393.033 95.5421L391.558 95.8042L390.082 96.067L388.607 96.3306L387.131 96.5949L385.655 96.8599L384.18 97.1257L382.704 97.3921L381.229 97.6592L379.753 97.927L378.278 98.1954L376.802 98.4644L375.327 98.734L373.851 99.0042L372.376 99.275L370.9 99.5463L369.425 99.8182L367.949 100.091L366.474 100.363L364.998 100.637L363.523 100.911L362.047 101.185L360.572 101.46L359.096 101.735L357.621 102.01L356.145 102.286L354.67 102.562L353.194 102.839L351.719 103.116L350.243 103.393L348.768 103.67L347.292 103.948L345.817 104.226L344.341 104.504L342.866 104.783L341.39 105.061L339.914 105.34L338.439 105.619L336.963 105.898L335.488 106.178L334.012 106.457L332.537 106.737L331.061 107.016L329.586 107.296L328.11 107.575L326.635 107.855L325.159 108.135L323.684 108.414L322.208 108.694L320.733 108.973L319.257 109.253L317.782 109.532L316.306 109.812L314.831 110.091L313.355 110.37L311.88 110.649L310.404 110.927L308.929 111.206L307.453 111.484L305.978 111.762L304.502 112.04L303.027 112.318L301.551 112.595L300.076 112.872L298.6 113.148L297.125 113.425L295.649 113.701L294.174 113.976L292.698 114.251L291.222 114.526L289.747 114.801L288.271 115.074L286.796 115.348L285.32 115.621L283.845 115.893L282.369 116.165L280.894 116.437L279.418 116.708L277.943 116.978L276.467 117.248L274.992 117.517L273.516 117.785L272.041 118.053L270.565 118.32L269.09 118.587L267.614 118.853L266.139 119.118L264.663 119.382L263.188 119.646L261.712 119.909L260.237 120.171L258.761 120.433L257.286 120.693L255.81 120.953L254.335 121.212L252.859 121.47L251.384 121.727L249.908 121.984L248.433 122.239L246.957 122.494L245.481 122.747L244.006 123L242.53 123.252L241.055 123.502L239.579 123.752L238.104 124.001L236.628 124.248L235.153 124.495L233.677 124.741L232.202 124.985L230.726 125.228L229.251 125.471L227.775 125.712L226.3 125.952L224.824 126.19L223.349 126.428L221.873 126.665L220.398 126.9L218.922 127.134L217.447 127.367L215.971 127.598L214.496 127.829L213.02 128.058L211.545 128.285L210.069 128.512L208.594 128.737L207.118 128.961L205.643 129.183L204.167 129.404L202.692 129.624L201.216 129.842L199.741 130.059L198.265 130.274L196.789 130.488L195.314 130.701L193.838 130.912L192.363 131.122L190.887 131.33L189.412 131.537L187.936 131.742L186.461 131.945L184.985 132.148L183.51 132.348L182.034 132.547L180.559 132.744L179.083 132.94L177.608 133.134L176.132 133.327L174.657 133.518L173.181 133.707L171.706 133.895L170.23 134.081L168.755 134.265L167.279 134.448L165.804 134.629L164.328 134.808L162.853 134.985L161.377 135.161L159.902 135.335L158.426 135.508L156.951 135.678L155.475 135.847L154 136.014L152.524 136.179L151.049 136.342L149.573 136.503L148.097 136.663L146.622 136.821L145.146 136.977L143.671 137.131L142.195 137.283L140.72 137.434L139.244 137.582L137.769 137.729L136.293 137.873L134.818 138.016L133.342 138.157L131.867 138.296L130.391 138.432L128.916 138.567L127.44 138.7L125.965 138.831L124.489 138.96L123.014 139.088L121.538 139.213L120.063 139.336L118.587 139.457L117.112 139.576L115.636 139.693L114.161 139.808L112.685 139.921L111.21 140.031L109.734 140.14L108.259 140.247L106.783 140.352L105.308 140.454L103.832 140.555L102.356 140.653L100.881 140.749L99.4055 140.844L97.9299 140.936L96.4544 141.026L94.9789 141.113L93.5034 141.199L92.0279 141.283L90.5524 141.364L89.0769 141.444L87.6013 141.521L86.1258 141.596L84.6503 141.669L83.1748 141.739L81.6993 141.808L80.2238 141.874L78.7482 141.938L77.2727 142L75.7972 142.06L74.3217 142.118L72.8462 142.173L71.3707 142.227L69.8952 142.278L68.4196 142.326L66.9441 142.373L65.4686 142.418L63.9931 142.46L62.5176 142.5L61.0421 142.538L59.5665 142.573L58.091 142.607L56.6155 142.638L55.14 142.667L53.6645 142.693L52.189 142.718L50.7135 142.74L49.2379 142.76L47.7624 142.778L46.2869 142.793L44.8114 142.807L43.3359 142.818L41.8604 142.826L40.3848 142.833L38.9093 142.837L37.4338 142.84L35.9583 142.839L34.4828 142.837L33.0073 142.832L31.5318 142.826L30.0562 142.817L28.5807 142.805L27.1052 142.792L25.6297 142.776L24.1542 142.758L22.6787 142.738L21.2031 142.715L19.7276 142.691L18.2521 142.664L16.7766 142.634L15.3011 142.603L13.8256 142.569L12.3501 142.534L10.8745 142.496L9.39902 142.455L7.9235 142.413L6.44799 142.368L4.97247 142.321L3.49696 142.272L2.02144 142.221L0.545927 142.167L-0.929588 142.112L-2.4051 142.054L-3.88062 141.994L-5.35613 141.932L-6.83165 141.867L-8.30717 141.801L-9.78268 141.732L-11.2582 141.661L-12.7337 141.588L-14.2092 141.513L-15.6847 141.435L-17.1603 141.356L-18.6358 141.274L-20.1113 141.19L-21.5868 141.104L-23.0623 141.016L-24.5378 140.926L-26.0134 140.834L-27.4889 140.739L-28.9644 140.643L-30.4399 140.544L-31.9154 140.443L-33.3909 140.34L-34.8664 140.236L-36.342 140.129L-37.8175 140.02L-39.293 139.909L-40.7685 139.795L-42.244 139.68L-43.7195 139.563L-45.1951 139.444L-46.6706 139.323L-48.1461 139.199L-49.6216 139.074L-51.0971 138.947L-52.5726 138.818L-54.0481 138.686L-55.5237 138.553L-56.9992 138.418L-58.4747 138.281L-59.9502 138.142L-61.4257 138.001L-62.9012 137.858L-64.3768 137.713L-65.8523 137.566L-67.3278 137.418L-68.8033 137.267L-70.2788 137.115L-71.7543 136.96L-73.2298 136.804L-74.7054 136.646L-76.1809 136.486L-77.6564 136.325L-79.1319 136.161L-80.6074 135.996L-82.0829 135.829L-83.5585 135.66L-85.034 135.489L-86.5095 135.317L-87.985 135.143L-89.4605 134.967L-90.936 134.789L-92.4115 134.61L-93.8871 134.428L-95.3626 134.246L-96.8381 134.061L-98.3136 133.875L-99.7891 133.687L-101.265 133.498L-102.74 133.307L-104.216 133.114L-105.691 132.919L-107.167 132.723L-108.642 132.526L-110.118 132.327L-111.593 132.126L-113.069 131.924L-114.544 131.72" stroke="#000E1E" stroke-width="22" stroke-miterlimit="10" stroke-linecap="round" stroke-linejoin="round"/>
</svg>
