<svg width="1512" height="467" viewBox="0 0 1512 467" fill="none" xmlns="http://www.w3.org/2000/svg">
<g clip-path="url(#clip0_1487_3107)">
<rect x="-232.927" y="-18.0391" width="1838.13" height="318.612" fill="#000E1E" stroke="#000E1E"/>
<path d="M-262 349.953L-260.337 349.687L-258.674 349.42L-257.011 349.153L-255.349 348.885L-253.686 348.616L-252.023 348.347L-250.36 348.077L-248.697 347.807L-247.034 347.536L-245.371 347.264L-243.708 346.992L-242.046 346.72L-240.383 346.447L-238.72 346.173L-237.057 345.899L-235.394 345.625L-233.731 345.35L-232.068 345.075L-230.406 344.799L-228.743 344.523L-227.08 344.247L-225.417 343.97L-223.754 343.693L-222.091 343.415L-220.428 343.138L-218.765 342.86L-217.103 342.582L-215.44 342.304L-213.777 342.025L-212.114 341.746L-210.451 341.467L-208.788 341.188L-207.125 340.909L-205.462 340.63L-203.8 340.35L-202.137 340.071L-200.474 339.791L-198.811 339.512L-197.148 339.232L-195.485 338.952L-193.822 338.673L-192.16 338.393L-190.497 338.114L-188.834 337.834L-187.171 337.555L-185.508 337.275L-183.845 336.996L-182.182 336.717L-180.519 336.438L-178.857 336.159L-177.194 335.881L-175.531 335.602L-173.868 335.324L-172.205 335.046L-170.542 334.768L-168.879 334.491L-167.217 334.214L-165.554 333.937L-163.891 333.66L-162.228 333.384L-160.565 333.108L-158.902 332.833L-157.239 332.558L-155.576 332.283L-153.914 332.009L-152.251 331.735L-150.588 331.462L-148.925 331.189L-147.262 330.917L-145.599 330.645L-143.936 330.374L-142.273 330.104L-140.611 329.833L-138.948 329.564L-137.285 329.295L-135.622 329.027L-133.959 328.759L-132.296 328.492L-130.633 328.226L-128.971 327.96L-127.308 327.695L-125.645 327.431L-123.982 327.168L-122.319 326.905L-120.656 326.643L-118.993 326.382L-117.33 326.122L-115.668 325.862L-114.005 325.604L-112.342 325.346L-110.679 325.089L-109.016 324.833L-107.353 324.578L-105.69 324.324L-104.028 324.071L-102.365 323.818L-100.702 323.567L-99.0389 323.317L-97.376 323.068L-95.7132 322.819L-94.0503 322.572L-92.3874 322.326L-90.7246 322.081L-89.0617 321.837L-87.3988 321.594L-85.736 321.352L-84.0731 321.111L-82.4102 320.872L-80.7474 320.634L-79.0845 320.396L-77.4216 320.16L-75.7588 319.926L-74.0959 319.692L-72.433 319.46L-70.7702 319.229L-69.1073 318.999L-67.4444 318.77L-65.7815 318.543L-64.1187 318.317L-62.4558 318.093L-60.7929 317.869L-59.1301 317.648L-57.4672 317.427L-55.8043 317.208L-54.1415 316.99L-52.4786 316.774L-50.8157 316.559L-49.1529 316.346L-47.49 316.134L-45.8271 315.923L-44.1643 315.714L-42.5014 315.506L-40.8385 315.3L-39.1757 315.096L-37.5128 314.893L-35.8499 314.691L-34.1871 314.491L-32.5242 314.293L-30.8613 314.096L-29.1985 313.901L-27.5356 313.708L-25.8727 313.516L-24.2099 313.325L-22.547 313.137L-20.8841 312.95L-19.2212 312.764L-17.5584 312.581L-15.8955 312.399L-14.2326 312.219L-12.5698 312.04L-10.9069 311.863L-9.24404 311.688L-7.58116 311.515L-5.9183 311.343L-4.25542 311.173L-2.59254 311.005L-0.929696 310.839L0.733181 310.675L2.39606 310.512L4.0589 310.352L5.72178 310.193L7.38466 310.036L9.04753 309.88L10.7104 309.727L12.3733 309.576L14.0361 309.426L15.699 309.278L17.3619 309.132L19.0247 308.989L20.6876 308.847L22.3505 308.707L24.0133 308.569L25.6762 308.432L27.3391 308.298L29.0019 308.166L30.6648 308.036L32.3277 307.908L33.9905 307.781L35.6534 307.657L37.3163 307.535L38.9791 307.415L40.642 307.296L42.3049 307.18L43.9678 307.066L45.6306 306.954L47.2935 306.844L48.9564 306.736L50.6192 306.63L52.2821 306.526L53.945 306.424L55.6078 306.325L57.2707 306.227L58.9336 306.132L60.5964 306.038L62.2593 305.947L63.9222 305.858L65.585 305.771L67.2479 305.686L68.9108 305.603L70.5736 305.523L72.2365 305.444L73.8994 305.368L75.5622 305.294L77.2251 305.222L78.888 305.152L80.5508 305.084L82.2137 305.019L83.8766 304.956L85.5394 304.894L87.2023 304.835L88.8652 304.779L90.5281 304.724L92.1909 304.672L93.8538 304.622L95.5167 304.574L97.1795 304.528L98.8424 304.484L100.505 304.443L102.168 304.404L103.831 304.367L105.494 304.332L107.157 304.3L108.82 304.269L110.482 304.241L112.145 304.216L113.808 304.192L115.471 304.171L117.134 304.152L118.797 304.135L120.46 304.12L122.123 304.108L123.785 304.097L125.448 304.09L127.111 304.084L128.774 304.08L130.437 304.079L132.1 304.08L133.763 304.083L135.426 304.089L137.088 304.097L138.751 304.107L140.414 304.119L142.077 304.133L143.74 304.15L145.403 304.169L147.066 304.19L148.728 304.213L150.391 304.239L152.054 304.267L153.717 304.297L155.38 304.329L157.043 304.363L158.706 304.4L160.369 304.439L162.031 304.48L163.694 304.523L165.357 304.569L167.02 304.617L168.683 304.667L170.346 304.719L172.009 304.773L173.671 304.83L175.334 304.889L176.997 304.949L178.66 305.013L180.323 305.078L181.986 305.145L183.649 305.215L185.312 305.287L186.974 305.361L188.637 305.437L190.3 305.515L191.963 305.595L193.626 305.678L195.289 305.763L196.952 305.849L198.614 305.938L200.277 306.029L201.94 306.123L203.603 306.218L205.266 306.315L206.929 306.415L208.592 306.516L210.255 306.62L211.917 306.726L213.58 306.833L215.243 306.943L216.906 307.055L218.569 307.169L220.232 307.285L221.895 307.403L223.558 307.523L225.22 307.645L226.883 307.769L228.546 307.895L230.209 308.023L231.872 308.153L233.535 308.285L235.198 308.419L236.86 308.555L238.523 308.693L240.186 308.833L241.849 308.975L243.512 309.118L245.175 309.264L246.838 309.412L248.501 309.561L250.163 309.712L251.826 309.865L253.489 310.02L255.152 310.177L256.815 310.336L258.478 310.497L260.141 310.659L261.803 310.823L263.466 310.989L265.129 311.157L266.792 311.327L268.455 311.498L270.118 311.671L271.781 311.846L273.444 312.023L275.106 312.201L276.769 312.381L278.432 312.563L280.095 312.746L281.758 312.932L283.421 313.118L285.084 313.307L286.747 313.497L288.409 313.689L290.072 313.882L291.735 314.077L293.398 314.274L295.061 314.472L296.724 314.672L298.387 314.873L300.049 315.076L301.712 315.28L303.375 315.486L305.038 315.694L306.701 315.903L308.364 316.113L310.027 316.325L311.69 316.538L313.352 316.753L315.015 316.969L316.678 317.187L318.341 317.406L320.004 317.626L321.667 317.848L323.33 318.071L324.993 318.295L326.655 318.521L328.318 318.748L329.981 318.977L331.644 319.206L333.307 319.437L334.97 319.67L336.633 319.903L338.295 320.138L339.958 320.373L341.621 320.611L343.284 320.849L344.947 321.088L346.61 321.329L348.273 321.57L349.936 321.813L351.598 322.057L353.261 322.302L354.924 322.548L356.587 322.795L358.25 323.044L359.913 323.293L361.576 323.543L363.238 323.794L364.901 324.046L366.564 324.299L368.227 324.553L369.89 324.808L371.553 325.064L373.216 325.321L374.879 325.579L376.541 325.837L378.204 326.097L379.867 326.357L381.53 326.618L383.193 326.88L384.856 327.142L386.519 327.406L388.181 327.67L389.844 327.935L391.507 328.2L393.17 328.466L394.833 328.733L396.496 329.001L398.159 329.269L399.822 329.538L401.484 329.807L403.147 330.077L404.81 330.348L406.473 330.619L408.136 330.891L409.799 331.163L411.462 331.436L413.124 331.709L414.787 331.983L416.45 332.257L418.113 332.531L419.776 332.806L421.439 333.082L423.102 333.357L424.765 333.634L426.427 333.91L428.09 334.187L429.753 334.464L431.416 334.741L433.079 335.019L434.742 335.297L436.405 335.575L438.068 335.853L439.73 336.132L441.393 336.411L443.056 336.69L444.719 336.969L446.382 337.248L448.045 337.528L449.708 337.807L451.37 338.086L453.033 338.366L454.696 338.646L456.359 338.925L458.022 339.205L459.685 339.485L461.348 339.764L463.011 340.044L464.673 340.323L466.336 340.603L467.999 340.882L469.662 341.161L471.325 341.44L472.988 341.719L474.651 341.998L476.314 342.277L477.976 342.555L479.639 342.833L481.302 343.111L482.965 343.389L484.628 343.666L486.291 343.943L487.954 344.22L489.616 344.496L491.279 344.772L492.942 345.048L494.605 345.323L496.268 345.598L497.931 345.873L499.594 346.147L501.257 346.42L502.919 346.693L504.582 346.966L506.245 347.238L507.908 347.51L509.571 347.781L511.234 348.051L512.897 348.321L514.559 348.59L516.222 348.859L517.885 349.127L519.548 349.395L521.211 349.661L522.874 349.927L524.537 350.193L526.2 350.457L527.862 350.721L529.525 350.985L531.188 351.247L532.851 351.509L534.514 351.77L536.177 352.03L537.84 352.289L539.502 352.547L541.165 352.805L542.828 353.061L544.491 353.317L546.154 353.572L547.817 353.826L549.48 354.079L551.143 354.331L552.805 354.582L554.468 354.832L556.131 355.08L557.794 355.328L559.457 355.575L561.12 355.821L562.783 356.066L564.445 356.31L566.108 356.552L567.771 356.794L569.434 357.034L571.097 357.273L572.76 357.511L574.423 357.748L576.086 357.984L577.748 358.218L579.411 358.451L581.074 358.683L582.737 358.914L584.4 359.143L586.063 359.371L587.726 359.598L589.389 359.824L591.051 360.048L592.714 360.271L594.377 360.492L596.04 360.712L597.703 360.931L599.366 361.148L601.029 361.364L602.691 361.579L604.354 361.792L606.017 362.003L607.68 362.213L609.343 362.422L611.006 362.629L612.669 362.835L614.332 363.039L615.994 363.241L617.657 363.442L619.32 363.642L620.983 363.84L622.646 364.036L624.309 364.231L625.972 364.424L627.635 364.615L629.297 364.805L630.96 364.993L632.623 365.18L634.286 365.364L635.949 365.548L637.612 365.729L639.275 365.909L640.937 366.087L642.6 366.263L644.263 366.438L645.926 366.61L647.589 366.781L649.252 366.951L650.915 367.118L652.578 367.284L654.24 367.448L655.903 367.61L657.566 367.77L659.229 367.928L660.892 368.085L662.555 368.239L664.218 368.392L665.88 368.543L667.543 368.692L669.206 368.839L670.869 368.984L672.532 369.128L674.195 369.269L675.858 369.409L677.521 369.546L679.183 369.682L680.846 369.815L682.509 369.947L684.172 370.076L685.835 370.204L687.498 370.33L689.161 370.453L690.823 370.575L692.486 370.695L694.149 370.812L695.812 370.928L697.475 371.041L699.138 371.153L700.801 371.262L702.464 371.369L704.126 371.475L705.789 371.578L707.452 371.679L709.115 371.778L710.778 371.875L712.441 371.97L714.104 372.063L715.766 372.153L717.429 372.242L719.092 372.328L720.755 372.412L722.418 372.494L724.081 372.574L725.744 372.652L727.407 372.728L729.069 372.801L730.732 372.873L732.395 372.942L734.058 373.009L735.721 373.074L737.384 373.136L739.047 373.197L740.71 373.255L742.372 373.311L744.035 373.365L745.698 373.417L747.361 373.466L749.024 373.514L750.687 373.559L752.35 373.602L754.012 373.642L755.675 373.681L757.338 373.717L759.001 373.751L760.664 373.783L762.327 373.813L763.99 373.84L765.653 373.865L767.315 373.888L768.978 373.909L770.641 373.927L772.304 373.943L773.967 373.957L775.63 373.969L777.293 373.979L778.955 373.986L780.618 373.991L782.281 373.994L783.944 373.994L785.607 373.992L787.27 373.989L788.933 373.982L790.596 373.974L792.258 373.963L793.921 373.951L795.584 373.935L797.247 373.918L798.91 373.899L800.573 373.877L802.236 373.853L803.898 373.826L805.561 373.798L807.224 373.767L808.887 373.734L810.55 373.699L812.213 373.662L813.876 373.622L815.539 373.58L817.202 373.536L818.864 373.49L820.527 373.442L822.19 373.391L823.853 373.338L825.516 373.283L827.179 373.226L828.842 373.167L830.504 373.105L832.167 373.041L833.83 372.975L835.493 372.907L837.156 372.837L838.819 372.765L840.482 372.69L842.145 372.613L843.807 372.534L845.47 372.453L847.133 372.37L848.796 372.285L850.459 372.197L852.122 372.108L853.785 372.016L855.447 371.922L857.11 371.826L858.773 371.728L860.436 371.628L862.099 371.526L863.762 371.422L865.425 371.316L867.088 371.207L868.75 371.097L870.413 370.984L872.076 370.87L873.739 370.753L875.402 370.634L877.065 370.514L878.728 370.391L880.39 370.267L882.053 370.14L883.716 370.011L885.379 369.881L887.042 369.748L888.705 369.613L890.368 369.477L892.031 369.338L893.693 369.198L895.356 369.056L897.019 368.911L898.682 368.765L900.345 368.617L902.008 368.467L903.671 368.315L905.333 368.162L906.996 368.006L908.659 367.849L910.322 367.689L911.985 367.528L913.648 367.365L915.311 367.2L916.974 367.034L918.636 366.865L920.299 366.695L921.962 366.523L923.625 366.35L925.288 366.174L926.951 365.997L928.614 365.818L930.277 365.638L931.939 365.455L933.602 365.271L935.265 365.086L936.928 364.898L938.591 364.709L940.254 364.519L941.917 364.327L943.579 364.133L945.242 363.937L946.905 363.74L948.568 363.541L950.231 363.341L951.894 363.139L953.557 362.936L955.22 362.731L956.882 362.525L958.545 362.317L960.208 362.108L961.871 361.897L963.534 361.684L965.197 361.471L966.86 361.256L968.522 361.039L970.185 360.821L971.848 360.601L973.511 360.381L975.174 360.159L976.837 359.935L978.5 359.71L980.163 359.484L981.825 359.257L983.488 359.028L985.151 358.798L986.814 358.566L988.477 358.334L990.14 358.1L991.803 357.865L993.465 357.629L995.128 357.391L996.791 357.153L998.454 356.913L1000.12 356.672L1001.78 356.43L1003.44 356.187L1005.11 355.943L1006.77 355.697L1008.43 355.451L1010.09 355.204L1011.76 354.955L1013.42 354.706L1015.08 354.455L1016.75 354.204L1018.41 353.951L1020.07 353.698L1021.73 353.443L1023.4 353.188L1025.06 352.932L1026.72 352.675L1028.39 352.417L1030.05 352.158L1031.71 351.899L1033.37 351.638L1035.04 351.377L1036.7 351.115L1038.36 350.852L1040.03 350.588L1041.69 350.324L1043.35 350.059L1045.01 349.793L1046.68 349.527L1048.34 349.26L1050 348.992L1051.67 348.724L1053.33 348.455L1054.99 348.185L1056.65 347.915L1058.32 347.644L1059.98 347.373L1061.64 347.101L1063.31 346.828L1064.97 346.556L1066.63 346.282L1068.29 346.008L1069.96 345.734L1071.62 345.459L1073.28 345.184L1074.95 344.909L1076.61 344.633L1078.27 344.357L1079.93 344.08L1081.6 343.803L1083.26 343.526L1084.92 343.249L1086.59 342.971L1088.25 342.693L1089.91 342.415L1091.57 342.136L1093.24 341.857L1094.9 341.579L1096.56 341.3L1098.23 341.021L1099.89 340.741L1101.55 340.462L1103.21 340.182L1104.88 339.903L1106.54 339.623L1108.2 339.344L1109.87 339.064L1111.53 338.784L1113.19 338.505L1114.85 338.225L1116.52 337.945L1118.18 337.666L1119.84 337.387L1121.51 337.107L1123.17 336.828L1124.83 336.549L1126.49 336.27L1128.16 335.992L1129.82 335.713L1131.48 335.435L1133.15 335.157L1134.81 334.879L1136.47 334.601L1138.14 334.324L1139.8 334.047L1141.46 333.771L1143.12 333.494L1144.79 333.218L1146.45 332.943L1148.11 332.668L1149.78 332.393L1151.44 332.118L1153.1 331.844L1154.76 331.571L1156.43 331.298L1158.09 331.026L1159.75 330.754L1161.42 330.482L1163.08 330.211L1164.74 329.941L1166.4 329.671L1168.07 329.402L1169.73 329.134L1171.39 328.866L1173.06 328.599L1174.72 328.332L1176.38 328.066L1178.04 327.801L1179.71 327.536L1181.37 327.273L1183.03 327.01L1184.7 326.748L1186.36 326.486L1188.02 326.226L1189.68 325.966L1191.35 325.707L1193.01 325.449L1194.67 325.191L1196.34 324.935L1198 324.68L1199.66 324.425L1201.32 324.172L1202.99 323.919L1204.65 323.667L1206.31 323.417L1207.98 323.167L1209.64 322.918L1211.3 322.671L1212.96 322.424L1214.63 322.178L1216.29 321.934L1217.95 321.691L1219.62 321.448L1221.28 321.207L1222.94 320.967L1224.6 320.728L1226.27 320.491L1227.93 320.254L1229.59 320.019L1231.26 319.785L1232.92 319.552L1234.58 319.321L1236.24 319.09L1237.91 318.861L1239.57 318.634L1241.23 318.407L1242.9 318.182L1244.56 317.958L1246.22 317.736L1247.88 317.515L1249.55 317.295L1251.21 317.077L1252.87 316.86L1254.54 316.644L1256.2 316.43L1257.86 316.218L1259.52 316.007L1261.19 315.797L1262.85 315.589L1264.51 315.382L1266.18 315.177L1267.84 314.973L1269.5 314.771L1271.16 314.571L1272.83 314.372L1274.49 314.175L1276.15 313.979L1277.82 313.785L1279.48 313.592L1281.14 313.401L1282.8 313.212L1284.47 313.024L1286.13 312.838L1287.79 312.654L1289.46 312.471L1291.12 312.29L1292.78 312.111L1294.44 311.933L1296.11 311.758L1297.77 311.584L1299.43 311.411L1301.1 311.241L1302.76 311.072L1304.42 310.905L1306.08 310.74L1307.75 310.577L1309.41 310.415L1311.07 310.256L1312.74 310.098L1314.4 309.942L1316.06 309.788L1317.72 309.636L1319.39 309.485L1321.05 309.337L1322.71 309.19L1324.38 309.046L1326.04 308.903L1327.7 308.762L1329.36 308.623L1331.03 308.486L1332.69 308.352L1334.35 308.219L1336.02 308.088L1337.68 307.958L1339.34 307.831L1341 307.706L1342.67 307.583L1344.33 307.462L1345.99 307.343L1347.66 307.226L1349.32 307.111L1350.98 306.998L1352.65 306.888L1354.31 306.779L1355.97 306.672L1357.63 306.567L1359.3 306.465L1360.96 306.364L1362.62 306.266L1364.29 306.17L1365.95 306.075L1367.61 305.983L1369.27 305.893L1370.94 305.806L1372.6 305.72L1374.26 305.636L1375.93 305.555L1377.59 305.475L1379.25 305.398L1380.91 305.323L1382.58 305.25L1384.24 305.18L1385.9 305.111L1387.57 305.045L1389.23 304.981L1390.89 304.919L1392.55 304.859L1394.22 304.801L1395.88 304.746L1397.54 304.692L1399.21 304.641L1400.87 304.593L1402.53 304.546L1404.19 304.501L1405.86 304.459L1407.52 304.419L1409.18 304.381L1410.85 304.346L1412.51 304.312L1414.17 304.281L1415.83 304.252L1417.5 304.226L1419.16 304.201L1420.82 304.179L1422.49 304.159L1424.15 304.141L1425.81 304.126L1427.47 304.112L1429.14 304.101L1430.8 304.093L1432.46 304.086L1434.13 304.082L1435.79 304.079L1437.45 304.08L1439.11 304.082L1440.78 304.087L1442.44 304.093L1444.1 304.102L1445.77 304.114L1447.43 304.127L1449.09 304.143L1450.75 304.161L1452.42 304.181L1454.08 304.204L1455.74 304.228L1457.41 304.255L1459.07 304.285L1460.73 304.316L1462.39 304.349L1464.06 304.385L1465.72 304.423L1467.38 304.464L1469.05 304.506L1470.71 304.551L1472.37 304.598L1474.03 304.647L1475.7 304.698L1477.36 304.751L1479.02 304.807L1480.69 304.865L1482.35 304.925L1484.01 304.987L1485.67 305.052L1487.34 305.118L1489 305.187L1490.66 305.258L1492.33 305.331L1493.99 305.406L1495.65 305.484L1497.31 305.563L1498.98 305.645L1500.64 305.729L1502.3 305.815L1503.97 305.903L1505.63 305.993L1507.29 306.085L1508.95 306.18L1510.62 306.276L1512.28 306.375L1513.94 306.476L1515.61 306.578L1517.27 306.683L1518.93 306.79L1520.59 306.899L1522.26 307.01L1523.92 307.124L1525.58 307.239L1527.25 307.356L1528.91 307.475L1530.57 307.596L1532.23 307.72L1533.9 307.845L1535.56 307.972L1537.22 308.101L1538.89 308.233L1540.55 308.366L1542.21 308.501L1543.87 308.638L1545.54 308.777L1547.2 308.918L1548.86 309.061L1550.53 309.206L1552.19 309.353L1553.85 309.501L1555.51 309.652L1557.18 309.804L1558.84 309.959L1560.5 310.115L1562.17 310.273L1563.83 310.433L1565.49 310.594L1567.16 310.758L1568.82 310.923L1570.48 311.09L1572.14 311.259L1573.81 311.43L1575.47 311.602L1577.13 311.776L1578.8 311.952L1580.46 312.13L1582.12 312.309L1583.78 312.49L1585.45 312.673L1587.11 312.858L1588.77 313.044L1590.44 313.232L1592.1 313.421L1593.76 313.612L1595.42 313.805L1597.09 314L1598.75 314.195L1600.41 314.393" stroke="#7E57C2" stroke-width="22" stroke-miterlimit="10" stroke-linecap="round" stroke-linejoin="round"/>
<path d="M-248.392 341.953L-246.729 341.687L-245.067 341.42L-243.404 341.153L-241.741 340.885L-240.078 340.616L-238.415 340.347L-236.752 340.077L-235.089 339.807L-233.427 339.536L-231.764 339.264L-230.101 338.992L-228.438 338.72L-226.775 338.447L-225.112 338.173L-223.449 337.899L-221.786 337.625L-220.124 337.35L-218.461 337.075L-216.798 336.799L-215.135 336.523L-213.472 336.247L-211.809 335.97L-210.146 335.693L-208.484 335.415L-206.821 335.138L-205.158 334.86L-203.495 334.582L-201.832 334.304L-200.169 334.025L-198.506 333.746L-196.843 333.467L-195.181 333.188L-193.518 332.909L-191.855 332.63L-190.192 332.35L-188.529 332.071L-186.866 331.791L-185.203 331.512L-183.54 331.232L-181.878 330.952L-180.215 330.673L-178.552 330.393L-176.889 330.114L-175.226 329.834L-173.563 329.555L-171.9 329.275L-170.238 328.996L-168.575 328.717L-166.912 328.438L-165.249 328.159L-163.586 327.881L-161.923 327.602L-160.26 327.324L-158.597 327.046L-156.935 326.768L-155.272 326.491L-153.609 326.214L-151.946 325.937L-150.283 325.66L-148.62 325.384L-146.957 325.108L-145.295 324.833L-143.632 324.558L-141.969 324.283L-140.306 324.009L-138.643 323.735L-136.98 323.462L-135.317 323.189L-133.654 322.917L-131.992 322.645L-130.329 322.374L-128.666 322.104L-127.003 321.833L-125.34 321.564L-123.677 321.295L-122.014 321.027L-120.351 320.759L-118.689 320.492L-117.026 320.226L-115.363 319.96L-113.7 319.695L-112.037 319.431L-110.374 319.168L-108.711 318.905L-107.049 318.643L-105.386 318.382L-103.723 318.122L-102.06 317.862L-100.397 317.604L-98.7342 317.346L-97.0713 317.089L-95.4085 316.833L-93.7456 316.578L-92.0827 316.324L-90.4199 316.071L-88.757 315.818L-87.0941 315.567L-85.4313 315.317L-83.7684 315.068L-82.1055 314.819L-80.4427 314.572L-78.7798 314.326L-77.1169 314.081L-75.454 313.837L-73.7912 313.594L-72.1283 313.352L-70.4654 313.111L-68.8026 312.872L-67.1397 312.634L-65.4768 312.396L-63.814 312.16L-62.1511 311.926L-60.4882 311.692L-58.8254 311.46L-57.1625 311.229L-55.4996 310.999L-53.8368 310.77L-52.1739 310.543L-50.511 310.317L-48.8481 310.093L-47.1853 309.869L-45.5224 309.648L-43.8595 309.427L-42.1967 309.208L-40.5338 308.99L-38.8709 308.774L-37.2081 308.559L-35.5452 308.346L-33.8823 308.134L-32.2195 307.923L-30.5566 307.714L-28.8937 307.506L-27.2309 307.3L-25.568 307.096L-23.9051 306.893L-22.2423 306.691L-20.5794 306.491L-18.9165 306.293L-17.2536 306.096L-15.5908 305.901L-13.9279 305.708L-12.265 305.516L-10.6022 305.325L-8.93931 305.137L-7.27645 304.95L-5.61357 304.764L-3.95071 304.581L-2.28783 304.399L-0.62497 304.219L1.03789 304.04L2.70077 303.863L4.36363 303.688L6.02651 303.515L7.68937 303.343L9.35225 303.173L11.0151 303.005L12.678 302.839L14.3408 302.675L16.0037 302.512L17.6666 302.352L19.3294 302.193L20.9923 302.036L22.6552 301.88L24.318 301.727L25.9809 301.576L27.6438 301.426L29.3066 301.278L30.9695 301.132L32.6324 300.989L34.2953 300.847L35.9581 300.707L37.621 300.569L39.2839 300.432L40.9467 300.298L42.6096 300.166L44.2725 300.036L45.9354 299.908L47.5982 299.781L49.2611 299.657L50.924 299.535L52.5868 299.415L54.2497 299.296L55.9126 299.18L57.5754 299.066L59.2383 298.954L60.9012 298.844L62.564 298.736L64.2269 298.63L65.8898 298.526L67.5526 298.424L69.2155 298.325L70.8784 298.227L72.5412 298.132L74.2041 298.038L75.867 297.947L77.5298 297.858L79.1927 297.771L80.8556 297.686L82.5184 297.603L84.1813 297.523L85.8442 297.444L87.507 297.368L89.1699 297.294L90.8328 297.222L92.4957 297.152L94.1585 297.084L95.8214 297.019L97.4843 296.956L99.1471 296.894L100.81 296.835L102.473 296.779L104.136 296.724L105.799 296.672L107.461 296.622L109.124 296.574L110.787 296.528L112.45 296.484L114.113 296.443L115.776 296.404L117.439 296.367L119.102 296.332L120.764 296.3L122.427 296.269L124.09 296.241L125.753 296.216L127.416 296.192L129.079 296.171L130.742 296.152L132.404 296.135L134.067 296.12L135.73 296.108L137.393 296.097L139.056 296.09L140.719 296.084L142.382 296.08L144.045 296.079L145.707 296.08L147.37 296.083L149.033 296.089L150.696 296.097L152.359 296.107L154.022 296.119L155.685 296.133L157.347 296.15L159.01 296.169L160.673 296.19L162.336 296.213L163.999 296.239L165.662 296.267L167.325 296.297L168.988 296.329L170.65 296.363L172.313 296.4L173.976 296.439L175.639 296.48L177.302 296.523L178.965 296.569L180.628 296.617L182.291 296.667L183.953 296.719L185.616 296.773L187.279 296.83L188.942 296.889L190.605 296.949L192.268 297.013L193.931 297.078L195.593 297.145L197.256 297.215L198.919 297.287L200.582 297.361L202.245 297.437L203.908 297.515L205.571 297.595L207.234 297.678L208.896 297.763L210.559 297.849L212.222 297.938L213.885 298.029L215.548 298.123L217.211 298.218L218.874 298.315L220.537 298.415L222.199 298.516L223.862 298.62L225.525 298.726L227.188 298.833L228.851 298.943L230.514 299.055L232.177 299.169L233.839 299.285L235.502 299.403L237.165 299.523L238.828 299.645L240.491 299.769L242.154 299.895L243.817 300.023L245.48 300.153L247.142 300.285L248.805 300.419L250.468 300.555L252.131 300.693L253.794 300.833L255.457 300.975L257.12 301.118L258.782 301.264L260.445 301.412L262.108 301.561L263.771 301.712L265.434 301.865L267.097 302.02L268.76 302.177L270.423 302.336L272.085 302.497L273.748 302.659L275.411 302.823L277.074 302.989L278.737 303.157L280.4 303.327L282.063 303.498L283.725 303.671L285.388 303.846L287.051 304.023L288.714 304.201L290.377 304.381L292.04 304.563L293.703 304.746L295.366 304.932L297.028 305.118L298.691 305.307L300.354 305.497L302.017 305.689L303.68 305.882L305.343 306.077L307.006 306.274L308.669 306.472L310.331 306.672L311.994 306.873L313.657 307.076L315.32 307.28L316.983 307.486L318.646 307.694L320.309 307.903L321.971 308.113L323.634 308.325L325.297 308.538L326.96 308.753L328.623 308.969L330.286 309.187L331.949 309.406L333.612 309.626L335.274 309.848L336.937 310.071L338.6 310.295L340.263 310.521L341.926 310.748L343.589 310.977L345.252 311.206L346.914 311.437L348.577 311.67L350.24 311.903L351.903 312.138L353.566 312.373L355.229 312.611L356.892 312.849L358.555 313.088L360.217 313.329L361.88 313.57L363.543 313.813L365.206 314.057L366.869 314.302L368.532 314.548L370.195 314.795L371.858 315.044L373.52 315.293L375.183 315.543L376.846 315.794L378.509 316.046L380.172 316.299L381.835 316.553L383.498 316.808L385.16 317.064L386.823 317.321L388.486 317.579L390.149 317.837L391.812 318.097L393.475 318.357L395.138 318.618L396.801 318.88L398.463 319.142L400.126 319.406L401.789 319.67L403.452 319.935L405.115 320.2L406.778 320.466L408.441 320.733L410.104 321.001L411.766 321.269L413.429 321.538L415.092 321.807L416.755 322.077L418.418 322.348L420.081 322.619L421.744 322.891L423.406 323.163L425.069 323.436L426.732 323.709L428.395 323.983L430.058 324.257L431.721 324.531L433.384 324.806L435.046 325.082L436.709 325.357L438.372 325.634L440.035 325.91L441.698 326.187L443.361 326.464L445.024 326.741L446.687 327.019L448.349 327.297L450.012 327.575L451.675 327.853L453.338 328.132L455.001 328.411L456.664 328.69L458.327 328.969L459.99 329.248L461.652 329.528L463.315 329.807L464.978 330.086L466.641 330.366L468.304 330.646L469.967 330.925L471.63 331.205L473.292 331.485L474.955 331.764L476.618 332.044L478.281 332.323L479.944 332.603L481.607 332.882L483.27 333.161L484.933 333.44L486.595 333.719L488.258 333.998L489.921 334.277L491.584 334.555L493.247 334.833L494.91 335.111L496.573 335.389L498.235 335.666L499.898 335.943L501.561 336.22L503.224 336.496L504.887 336.772L506.55 337.048L508.213 337.323L509.876 337.598L511.538 337.873L513.201 338.147L514.864 338.42L516.527 338.693L518.19 338.966L519.853 339.238L521.516 339.51L523.179 339.781L524.841 340.051L526.504 340.321L528.167 340.59L529.83 340.859L531.493 341.127L533.156 341.395L534.819 341.661L536.481 341.927L538.144 342.193L539.807 342.457L541.47 342.721L543.133 342.985L544.796 343.247L546.459 343.509L548.122 343.77L549.784 344.03L551.447 344.289L553.11 344.547L554.773 344.805L556.436 345.061L558.099 345.317L559.762 345.572L561.425 345.826L563.087 346.079L564.75 346.331L566.413 346.582L568.076 346.832L569.739 347.08L571.402 347.328L573.065 347.575L574.727 347.821L576.39 348.066L578.053 348.31L579.716 348.552L581.379 348.794L583.042 349.034L584.705 349.273L586.367 349.511L588.03 349.748L589.693 349.984L591.356 350.218L593.019 350.451L594.682 350.683L596.345 350.914L598.008 351.143L599.67 351.371L601.333 351.598L602.996 351.824L604.659 352.048L606.322 352.271L607.985 352.492L609.648 352.712L611.311 352.931L612.973 353.148L614.636 353.364L616.299 353.579L617.962 353.792L619.625 354.003L621.288 354.213L622.951 354.422L624.613 354.629L626.276 354.835L627.939 355.039L629.602 355.241L631.265 355.442L632.928 355.642L634.591 355.84L636.254 356.036L637.916 356.231L639.579 356.424L641.242 356.615L642.905 356.805L644.568 356.993L646.231 357.18L647.894 357.364L649.557 357.548L651.219 357.729L652.882 357.909L654.545 358.087L656.208 358.263L657.871 358.438L659.534 358.61L661.197 358.781L662.859 358.951L664.522 359.118L666.185 359.284L667.848 359.448L669.511 359.61L671.174 359.77L672.837 359.928L674.5 360.085L676.162 360.239L677.825 360.392L679.488 360.543L681.151 360.692L682.814 360.839L684.477 360.984L686.14 361.128L687.802 361.269L689.465 361.409L691.128 361.546L692.791 361.682L694.454 361.815L696.117 361.947L697.78 362.076L699.443 362.204L701.105 362.33L702.768 362.453L704.431 362.575L706.094 362.695L707.757 362.812L709.42 362.928L711.083 363.041L712.746 363.153L714.408 363.262L716.071 363.369L717.734 363.475L719.397 363.578L721.06 363.679L722.723 363.778L724.386 363.875L726.048 363.97L727.711 364.063L729.374 364.153L731.037 364.242L732.7 364.328L734.363 364.412L736.026 364.494L737.688 364.574L739.351 364.652L741.014 364.728L742.677 364.801L744.34 364.873L746.003 364.942L747.666 365.009L749.329 365.074L750.991 365.136L752.654 365.197L754.317 365.255L755.98 365.311L757.643 365.365L759.306 365.417L760.969 365.466L762.632 365.514L764.294 365.559L765.957 365.602L767.62 365.642L769.283 365.681L770.946 365.717L772.609 365.751L774.272 365.783L775.934 365.813L777.597 365.84L779.26 365.865L780.923 365.888L782.586 365.909L784.249 365.927L785.912 365.943L787.575 365.957L789.237 365.969L790.9 365.979L792.563 365.986L794.226 365.991L795.889 365.994L797.552 365.994L799.215 365.992L800.878 365.989L802.54 365.982L804.203 365.974L805.866 365.963L807.529 365.951L809.192 365.935L810.855 365.918L812.518 365.899L814.18 365.877L815.843 365.853L817.506 365.826L819.169 365.798L820.832 365.767L822.495 365.734L824.158 365.699L825.821 365.662L827.483 365.622L829.146 365.58L830.809 365.536L832.472 365.49L834.135 365.442L835.798 365.391L837.461 365.338L839.123 365.283L840.786 365.226L842.449 365.167L844.112 365.105L845.775 365.041L847.438 364.975L849.101 364.907L850.764 364.837L852.426 364.765L854.089 364.69L855.752 364.613L857.415 364.534L859.078 364.453L860.741 364.37L862.404 364.285L864.066 364.197L865.729 364.108L867.392 364.016L869.055 363.922L870.718 363.826L872.381 363.728L874.044 363.628L875.707 363.526L877.369 363.422L879.032 363.316L880.695 363.207L882.358 363.097L884.021 362.984L885.684 362.87L887.347 362.753L889.009 362.634L890.672 362.514L892.335 362.391L893.998 362.267L895.661 362.14L897.324 362.011L898.987 361.881L900.65 361.748L902.313 361.613L903.975 361.477L905.638 361.338L907.301 361.198L908.964 361.056L910.627 360.911L912.29 360.765L913.953 360.617L915.615 360.467L917.278 360.315L918.941 360.162L920.604 360.006L922.267 359.849L923.93 359.689L925.593 359.528L927.256 359.365L928.918 359.2L930.581 359.034L932.244 358.865L933.907 358.695L935.57 358.523L937.233 358.35L938.896 358.174L940.558 357.997L942.221 357.818L943.884 357.638L945.547 357.455L947.21 357.271L948.873 357.086L950.536 356.898L952.199 356.709L953.861 356.519L955.524 356.327L957.187 356.133L958.85 355.937L960.513 355.74L962.176 355.541L963.839 355.341L965.501 355.139L967.164 354.936L968.827 354.731L970.49 354.525L972.153 354.317L973.816 354.108L975.479 353.897L977.141 353.684L978.804 353.471L980.467 353.256L982.13 353.039L983.793 352.821L985.456 352.601L987.119 352.381L988.782 352.159L990.445 351.935L992.107 351.71L993.77 351.484L995.433 351.257L997.096 351.028L998.759 350.798L1000.42 350.566L1002.08 350.334L1003.75 350.1L1005.41 349.865L1007.07 349.629L1008.74 349.391L1010.4 349.153L1012.06 348.913L1013.72 348.672L1015.39 348.43L1017.05 348.187L1018.71 347.943L1020.38 347.697L1022.04 347.451L1023.7 347.204L1025.36 346.955L1027.03 346.706L1028.69 346.455L1030.35 346.204L1032.02 345.951L1033.68 345.698L1035.34 345.443L1037 345.188L1038.67 344.932L1040.33 344.675L1041.99 344.417L1043.66 344.158L1045.32 343.899L1046.98 343.638L1048.64 343.377L1050.31 343.115L1051.97 342.852L1053.63 342.588L1055.3 342.324L1056.96 342.059L1058.62 341.793L1060.28 341.527L1061.95 341.26L1063.61 340.992L1065.27 340.724L1066.94 340.455L1068.6 340.185L1070.26 339.915L1071.92 339.644L1073.59 339.373L1075.25 339.101L1076.91 338.828L1078.58 338.556L1080.24 338.282L1081.9 338.008L1083.57 337.734L1085.23 337.459L1086.89 337.184L1088.55 336.909L1090.22 336.633L1091.88 336.357L1093.54 336.08L1095.21 335.803L1096.87 335.526L1098.53 335.249L1100.19 334.971L1101.86 334.693L1103.52 334.415L1105.18 334.136L1106.85 333.857L1108.51 333.579L1110.17 333.3L1111.83 333.021L1113.5 332.741L1115.16 332.462L1116.82 332.182L1118.49 331.903L1120.15 331.623L1121.81 331.344L1123.47 331.064L1125.14 330.784L1126.8 330.505L1128.46 330.225L1130.13 329.945L1131.79 329.666L1133.45 329.387L1135.11 329.107L1136.78 328.828L1138.44 328.549L1140.1 328.27L1141.77 327.992L1143.43 327.713L1145.09 327.435L1146.75 327.157L1148.42 326.879L1150.08 326.601L1151.74 326.324L1153.41 326.047L1155.07 325.771L1156.73 325.494L1158.39 325.218L1160.06 324.943L1161.72 324.668L1163.38 324.393L1165.05 324.118L1166.71 323.844L1168.37 323.571L1170.03 323.298L1171.7 323.026L1173.36 322.754L1175.02 322.482L1176.69 322.211L1178.35 321.941L1180.01 321.671L1181.67 321.402L1183.34 321.134L1185 320.866L1186.66 320.599L1188.33 320.332L1189.99 320.066L1191.65 319.801L1193.31 319.536L1194.98 319.273L1196.64 319.01L1198.3 318.748L1199.97 318.486L1201.63 318.226L1203.29 317.966L1204.95 317.707L1206.62 317.449L1208.28 317.191L1209.94 316.935L1211.61 316.68L1213.27 316.425L1214.93 316.172L1216.59 315.919L1218.26 315.667L1219.92 315.417L1221.58 315.167L1223.25 314.918L1224.91 314.671L1226.57 314.424L1228.23 314.178L1229.9 313.934L1231.56 313.691L1233.22 313.448L1234.89 313.207L1236.55 312.967L1238.21 312.728L1239.87 312.491L1241.54 312.254L1243.2 312.019L1244.86 311.785L1246.53 311.552L1248.19 311.321L1249.85 311.09L1251.51 310.861L1253.18 310.634L1254.84 310.407L1256.5 310.182L1258.17 309.958L1259.83 309.736L1261.49 309.515L1263.15 309.295L1264.82 309.077L1266.48 308.86L1268.14 308.644L1269.81 308.43L1271.47 308.218L1273.13 308.007L1274.79 307.797L1276.46 307.589L1278.12 307.382L1279.78 307.177L1281.45 306.973L1283.11 306.771L1284.77 306.571L1286.44 306.372L1288.1 306.175L1289.76 305.979L1291.42 305.785L1293.09 305.592L1294.75 305.401L1296.41 305.212L1298.08 305.024L1299.74 304.838L1301.4 304.654L1303.06 304.471L1304.73 304.29L1306.39 304.111L1308.05 303.933L1309.72 303.758L1311.38 303.584L1313.04 303.411L1314.7 303.241L1316.37 303.072L1318.03 302.905L1319.69 302.74L1321.36 302.577L1323.02 302.415L1324.68 302.256L1326.34 302.098L1328.01 301.942L1329.67 301.788L1331.33 301.636L1333 301.485L1334.66 301.337L1336.32 301.19L1337.98 301.046L1339.65 300.903L1341.31 300.762L1342.97 300.623L1344.64 300.486L1346.3 300.352L1347.96 300.219L1349.62 300.088L1351.29 299.958L1352.95 299.831L1354.61 299.706L1356.28 299.583L1357.94 299.462L1359.6 299.343L1361.26 299.226L1362.93 299.111L1364.59 298.998L1366.25 298.888L1367.92 298.779L1369.58 298.672L1371.24 298.567L1372.9 298.465L1374.57 298.364L1376.23 298.266L1377.89 298.17L1379.56 298.075L1381.22 297.983L1382.88 297.893L1384.54 297.806L1386.21 297.72L1387.87 297.636L1389.53 297.555L1391.2 297.475L1392.86 297.398L1394.52 297.323L1396.18 297.25L1397.85 297.18L1399.51 297.111L1401.17 297.045L1402.84 296.981L1404.5 296.919L1406.16 296.859L1407.82 296.801L1409.49 296.746L1411.15 296.692L1412.81 296.641L1414.48 296.593L1416.14 296.546L1417.8 296.501L1419.46 296.459L1421.13 296.419L1422.79 296.381L1424.45 296.346L1426.12 296.312L1427.78 296.281L1429.44 296.252L1431.1 296.226L1432.77 296.201L1434.43 296.179L1436.09 296.159L1437.76 296.141L1439.42 296.126L1441.08 296.112L1442.74 296.101L1444.41 296.093L1446.07 296.086L1447.73 296.082L1449.4 296.079L1451.06 296.08L1452.72 296.082L1454.38 296.087L1456.05 296.093L1457.71 296.102L1459.37 296.114L1461.04 296.127L1462.7 296.143L1464.36 296.161L1466.02 296.181L1467.69 296.204L1469.35 296.228L1471.01 296.255L1472.68 296.285L1474.34 296.316L1476 296.349L1477.66 296.385L1479.33 296.423L1480.99 296.464L1482.65 296.506L1484.32 296.551L1485.98 296.598L1487.64 296.647L1489.31 296.698L1490.97 296.751L1492.63 296.807L1494.29 296.865L1495.96 296.925L1497.62 296.987L1499.28 297.052L1500.95 297.118L1502.61 297.187L1504.27 297.258L1505.93 297.331L1507.6 297.406L1509.26 297.484L1510.92 297.563L1512.59 297.645L1514.25 297.729L1515.91 297.815L1517.57 297.903L1519.24 297.993L1520.9 298.085L1522.56 298.18L1524.23 298.276L1525.89 298.375L1527.55 298.476L1529.21 298.578L1530.88 298.683L1532.54 298.79L1534.2 298.899L1535.87 299.01L1537.53 299.124L1539.19 299.239L1540.85 299.356L1542.52 299.475L1544.18 299.596L1545.84 299.72L1547.51 299.845L1549.17 299.972L1550.83 300.101L1552.49 300.233L1554.16 300.366L1555.82 300.501L1557.48 300.638L1559.15 300.777L1560.81 300.918L1562.47 301.061L1564.13 301.206L1565.8 301.353L1567.46 301.501L1569.12 301.652L1570.79 301.804L1572.45 301.959L1574.11 302.115L1575.77 302.273L1577.44 302.433L1579.1 302.594L1580.76 302.758L1582.43 302.923L1584.09 303.09L1585.75 303.259L1587.41 303.43L1589.08 303.602L1590.74 303.776L1592.4 303.952L1594.07 304.13L1595.73 304.309L1597.39 304.49L1599.05 304.673L1600.72 304.858L1602.38 305.044L1604.04 305.232L1605.71 305.421L1607.37 305.612L1609.03 305.805L1610.69 306L1612.36 306.195L1614.02 306.393" stroke="#000E1E" stroke-width="22" stroke-miterlimit="10" stroke-linecap="round" stroke-linejoin="round"/>
<path d="M-258.37 321.56L-256.707 321.299L-255.044 321.036L-253.381 320.773L-251.718 320.509L-250.055 320.245L-248.392 319.98L-246.729 319.714L-245.067 319.447L-243.404 319.179L-241.741 318.911L-240.078 318.643L-238.415 318.374L-236.752 318.104L-235.089 317.833L-233.426 317.562L-231.764 317.291L-230.101 317.019L-228.438 316.746L-226.775 316.473L-225.112 316.199L-223.449 315.925L-221.786 315.651L-220.124 315.376L-218.461 315.101L-216.798 314.825L-215.135 314.549L-213.472 314.273L-211.809 313.996L-210.146 313.719L-208.483 313.442L-206.821 313.164L-205.158 312.886L-203.495 312.608L-201.832 312.33L-200.169 312.051L-198.506 311.773L-196.843 311.494L-195.181 311.215L-193.518 310.936L-191.855 310.656L-190.192 310.377L-188.529 310.097L-186.866 309.818L-185.203 309.538L-183.54 309.259L-181.878 308.979L-180.215 308.699L-178.552 308.42L-176.889 308.14L-175.226 307.86L-173.563 307.581L-171.9 307.302L-170.237 307.022L-168.575 306.743L-166.912 306.464L-165.249 306.186L-163.586 305.907L-161.923 305.628L-160.26 305.35L-158.597 305.072L-156.935 304.795L-155.272 304.517L-153.609 304.24L-151.946 303.963L-150.283 303.687L-148.62 303.411L-146.957 303.135L-145.294 302.859L-143.632 302.584L-141.969 302.31L-140.306 302.036L-138.643 301.762L-136.98 301.489L-135.317 301.216L-133.654 300.944L-131.992 300.672L-130.329 300.401L-128.666 300.13L-127.003 299.86L-125.34 299.59L-123.677 299.321L-122.014 299.053L-120.351 298.786L-118.689 298.519L-117.026 298.252L-115.363 297.987L-113.7 297.722L-112.037 297.458L-110.374 297.194L-108.711 296.932L-107.048 296.67L-105.386 296.409L-103.723 296.148L-102.06 295.889L-100.397 295.63L-98.7341 295.372L-97.0713 295.116L-95.4084 294.86L-93.7455 294.605L-92.0827 294.35L-90.4198 294.097L-88.7569 293.845L-87.0941 293.594L-85.4312 293.343L-83.7683 293.094L-82.1055 292.846L-80.4426 292.599L-78.7797 292.352L-77.1169 292.107L-75.454 291.863L-73.7911 291.62L-72.1282 291.379L-70.4654 291.138L-68.8025 290.898L-67.1396 290.66L-65.4768 290.423L-63.8139 290.187L-62.151 289.952L-60.4882 289.719L-58.8253 289.486L-57.1624 289.255L-55.4996 289.025L-53.8367 288.797L-52.1738 288.57L-50.511 288.344L-48.8481 288.119L-47.1852 287.896L-45.5224 287.674L-43.8595 287.453L-42.1966 287.234L-40.5338 287.017L-38.8709 286.8L-37.208 286.585L-35.5451 286.372L-33.8823 286.16L-32.2194 285.949L-30.5565 285.74L-28.8937 285.533L-27.2308 285.327L-25.5679 285.122L-23.9051 284.919L-22.2422 284.718L-20.5793 284.518L-18.9165 284.319L-17.2536 284.123L-15.5907 283.927L-13.9279 283.734L-12.265 283.542L-10.6021 283.352L-8.93925 283.163L-7.27638 282.976L-5.61351 282.791L-3.95065 282.607L-2.28778 282.425L-0.624909 282.245L1.03796 282.066L2.70083 281.89L4.3637 281.715L6.02657 281.541L7.68943 281.37L9.3523 281.2L11.0152 281.032L12.678 280.866L14.3409 280.701L16.0038 280.539L17.6666 280.378L19.3295 280.219L20.9924 280.062L22.6552 279.907L24.3181 279.753L25.981 279.602L27.6439 279.452L29.3067 279.305L30.9696 279.159L32.6325 279.015L34.2953 278.873L35.9582 278.733L37.6211 278.595L39.2839 278.459L40.9468 278.325L42.6097 278.192L44.2725 278.062L45.9354 277.934L47.5983 277.808L49.2611 277.683L50.924 277.561L52.5869 277.441L54.2497 277.323L55.9126 277.207L57.5755 277.092L59.2384 276.98L60.9012 276.87L62.5641 276.762L64.227 276.656L65.8898 276.553L67.5527 276.451L69.2156 276.351L70.8784 276.254L72.5413 276.158L74.2042 276.065L75.867 275.974L77.5299 275.884L79.1928 275.797L80.8556 275.712L82.5185 275.63L84.1814 275.549L85.8442 275.471L87.5071 275.394L89.17 275.32L90.8329 275.248L92.4957 275.178L94.1586 275.111L95.8215 275.045L97.4843 274.982L99.1472 274.921L100.81 274.862L102.473 274.805L104.136 274.75L105.799 274.698L107.462 274.648L109.124 274.6L110.787 274.554L112.45 274.511L114.113 274.469L115.776 274.43L117.439 274.393L119.102 274.359L120.764 274.326L122.427 274.296L124.09 274.268L125.753 274.242L127.416 274.218L129.079 274.197L130.742 274.178L132.405 274.161L134.067 274.146L135.73 274.134L137.393 274.124L139.056 274.116L140.719 274.11L142.382 274.107L144.045 274.106L145.708 274.107L147.37 274.11L149.033 274.115L150.696 274.123L152.359 274.133L154.022 274.145L155.685 274.16L157.348 274.176L159.01 274.195L160.673 274.216L162.336 274.24L163.999 274.265L165.662 274.293L167.325 274.323L168.988 274.355L170.651 274.39L172.313 274.426L173.976 274.465L175.639 274.507L177.302 274.55L178.965 274.595L180.628 274.643L182.291 274.693L183.953 274.745L185.616 274.8L187.279 274.856L188.942 274.915L190.605 274.976L192.268 275.039L193.931 275.104L195.594 275.172L197.256 275.241L198.919 275.313L200.582 275.387L202.245 275.463L203.908 275.541L205.571 275.622L207.234 275.704L208.897 275.789L210.559 275.876L212.222 275.965L213.885 276.056L215.548 276.149L217.211 276.244L218.874 276.342L220.537 276.441L222.199 276.543L223.862 276.646L225.525 276.752L227.188 276.86L228.851 276.97L230.514 277.081L232.177 277.195L233.84 277.311L235.502 277.429L237.165 277.549L238.828 277.671L240.491 277.796L242.154 277.922L243.817 278.05L245.48 278.18L247.142 278.312L248.805 278.446L250.468 278.582L252.131 278.719L253.794 278.859L255.457 279.001L257.12 279.145L258.783 279.29L260.445 279.438L262.108 279.587L263.771 279.739L265.434 279.892L267.097 280.047L268.76 280.204L270.423 280.362L272.086 280.523L273.748 280.685L275.411 280.85L277.074 281.016L278.737 281.183L280.4 281.353L282.063 281.524L283.726 281.698L285.388 281.872L287.051 282.049L288.714 282.227L290.377 282.408L292.04 282.589L293.703 282.773L295.366 282.958L297.029 283.145L298.691 283.333L300.354 283.523L302.017 283.715L303.68 283.909L305.343 284.104L307.006 284.3L308.669 284.498L310.331 284.698L311.994 284.899L313.657 285.102L315.32 285.307L316.983 285.513L318.646 285.72L320.309 285.929L321.972 286.139L323.634 286.351L325.297 286.565L326.96 286.779L328.623 286.996L330.286 287.213L331.949 287.432L333.612 287.653L335.275 287.874L336.937 288.097L338.6 288.322L340.263 288.548L341.926 288.775L343.589 289.003L345.252 289.233L346.915 289.464L348.577 289.696L350.24 289.929L351.903 290.164L353.566 290.4L355.229 290.637L356.892 290.875L358.555 291.115L360.218 291.355L361.88 291.597L363.543 291.84L365.206 292.084L366.869 292.329L368.532 292.575L370.195 292.822L371.858 293.07L373.52 293.319L375.183 293.569L376.846 293.82L378.509 294.073L380.172 294.326L381.835 294.58L383.498 294.835L385.161 295.091L386.823 295.347L388.486 295.605L390.149 295.864L391.812 296.123L393.475 296.383L395.138 296.644L396.801 296.906L398.464 297.169L400.126 297.432L401.789 297.696L403.452 297.961L405.115 298.226L406.778 298.493L408.441 298.76L410.104 299.027L411.766 299.295L413.429 299.564L415.092 299.834L416.755 300.104L418.418 300.374L420.081 300.645L421.744 300.917L423.407 301.189L425.069 301.462L426.732 301.735L428.395 302.009L430.058 302.283L431.721 302.558L433.384 302.833L435.047 303.108L436.709 303.384L438.372 303.66L440.035 303.936L441.698 304.213L443.361 304.49L445.024 304.768L446.687 305.045L448.35 305.323L450.012 305.601L451.675 305.88L453.338 306.158L455.001 306.437L456.664 306.716L458.327 306.995L459.99 307.275L461.652 307.554L463.315 307.833L464.978 308.113L466.641 308.392L468.304 308.672L469.967 308.952L471.63 309.231L473.293 309.511L474.955 309.791L476.618 310.07L478.281 310.35L479.944 310.629L481.607 310.908L483.27 311.188L484.933 311.467L486.596 311.746L488.258 312.024L489.921 312.303L491.584 312.581L493.247 312.859L494.91 313.137L496.573 313.415L498.236 313.692L499.898 313.969L501.561 314.246L503.224 314.522L504.887 314.799L506.55 315.074L508.213 315.35L509.876 315.624L511.539 315.899L513.201 316.173L514.864 316.447L516.527 316.72L518.19 316.992L519.853 317.264L521.516 317.536L523.179 317.807L524.841 318.077L526.504 318.347L528.167 318.617L529.83 318.885L531.493 319.153L533.156 319.421L534.819 319.688L536.482 319.954L538.144 320.219L539.807 320.484L541.47 320.748L543.133 321.011L544.796 321.273L546.459 321.535L548.122 321.796L549.785 322.056L551.447 322.315L553.11 322.574L554.773 322.831L556.436 323.088L558.099 323.343L559.762 323.598L561.425 323.852L563.087 324.105L564.75 324.357L566.413 324.608L568.076 324.858L569.739 325.107L571.402 325.355L573.065 325.602L574.728 325.848L576.39 326.092L578.053 326.336L579.716 326.579L581.379 326.82L583.042 327.06L584.705 327.3L586.368 327.538L588.03 327.774L589.693 328.01L591.356 328.244L593.019 328.478L594.682 328.71L596.345 328.94L598.008 329.17L599.671 329.398L601.333 329.625L602.996 329.85L604.659 330.074L606.322 330.297L607.985 330.519L609.648 330.739L611.311 330.957L612.974 331.175L614.636 331.391L616.299 331.605L617.962 331.818L619.625 332.03L621.288 332.24L622.951 332.448L624.614 332.656L626.276 332.861L627.939 333.065L629.602 333.268L631.265 333.469L632.928 333.668L634.591 333.866L636.254 334.062L637.917 334.257L639.579 334.45L641.242 334.642L642.905 334.831L644.568 335.02L646.231 335.206L647.894 335.391L649.557 335.574L651.219 335.755L652.882 335.935L654.545 336.113L656.208 336.289L657.871 336.464L659.534 336.637L661.197 336.808L662.86 336.977L664.522 337.144L666.185 337.31L667.848 337.474L669.511 337.636L671.174 337.796L672.837 337.955L674.5 338.111L676.163 338.266L677.825 338.419L679.488 338.569L681.151 338.718L682.814 338.866L684.477 339.011L686.14 339.154L687.803 339.295L689.465 339.435L691.128 339.572L692.791 339.708L694.454 339.842L696.117 339.973L697.78 340.103L699.443 340.23L701.106 340.356L702.768 340.48L704.431 340.601L706.094 340.721L707.757 340.839L709.42 340.954L711.083 341.068L712.746 341.179L714.408 341.289L716.071 341.396L717.734 341.501L719.397 341.604L721.06 341.705L722.723 341.805L724.386 341.901L726.049 341.996L727.711 342.089L729.374 342.18L731.037 342.268L732.7 342.355L734.363 342.439L736.026 342.521L737.689 342.601L739.352 342.679L741.014 342.754L742.677 342.828L744.34 342.899L746.003 342.968L747.666 343.035L749.329 343.1L750.992 343.163L752.654 343.223L754.317 343.282L755.98 343.338L757.643 343.392L759.306 343.443L760.969 343.493L762.632 343.54L764.295 343.585L765.957 343.628L767.62 343.669L769.283 343.707L770.946 343.744L772.609 343.778L774.272 343.809L775.935 343.839L777.597 343.866L779.26 343.891L780.923 343.914L782.586 343.935L784.249 343.953L785.912 343.97L787.575 343.984L789.238 343.995L790.9 344.005L792.563 344.012L794.226 344.017L795.889 344.02L797.552 344.021L799.215 344.019L800.878 344.015L802.541 344.009L804.203 344L805.866 343.99L807.529 343.977L809.192 343.962L810.855 343.944L812.518 343.925L814.181 343.903L815.843 343.879L817.506 343.853L819.169 343.824L820.832 343.794L822.495 343.761L824.158 343.726L825.821 343.688L827.484 343.649L829.146 343.607L830.809 343.563L832.472 343.517L834.135 343.468L835.798 343.418L837.461 343.365L839.124 343.31L840.786 343.253L842.449 343.193L844.112 343.132L845.775 343.068L847.438 343.002L849.101 342.934L850.764 342.863L852.427 342.791L854.089 342.716L855.752 342.64L857.415 342.561L859.078 342.48L860.741 342.397L862.404 342.311L864.067 342.224L865.73 342.134L867.392 342.042L869.055 341.949L870.718 341.853L872.381 341.755L874.044 341.655L875.707 341.553L877.37 341.448L879.032 341.342L880.695 341.234L882.358 341.123L884.021 341.011L885.684 340.896L887.347 340.779L889.01 340.661L890.673 340.54L892.335 340.418L893.998 340.293L895.661 340.166L897.324 340.038L898.987 339.907L900.65 339.774L902.313 339.64L903.975 339.503L905.638 339.365L907.301 339.224L908.964 339.082L910.627 338.938L912.29 338.792L913.953 338.643L915.616 338.494L917.278 338.342L918.941 338.188L920.604 338.032L922.267 337.875L923.93 337.716L925.593 337.554L927.256 337.392L928.919 337.227L930.581 337.06L932.244 336.892L933.907 336.722L935.57 336.55L937.233 336.376L938.896 336.201L940.559 336.024L942.221 335.845L943.884 335.664L945.547 335.482L947.21 335.298L948.873 335.112L950.536 334.925L952.199 334.736L953.862 334.545L955.524 334.353L957.187 334.159L958.85 333.964L960.513 333.766L962.176 333.568L963.839 333.368L965.502 333.166L967.164 332.962L968.827 332.758L970.49 332.551L972.153 332.343L973.816 332.134L975.479 331.923L977.142 331.711L978.805 331.497L980.467 331.282L982.13 331.065L983.793 330.847L985.456 330.628L987.119 330.407L988.782 330.185L990.445 329.961L992.108 329.737L993.77 329.51L995.433 329.283L997.096 329.054L998.759 328.824L1000.42 328.593L1002.08 328.36L1003.75 328.126L1005.41 327.891L1007.07 327.655L1008.74 327.418L1010.4 327.179L1012.06 326.939L1013.72 326.698L1015.39 326.456L1017.05 326.213L1018.71 325.969L1020.38 325.724L1022.04 325.477L1023.7 325.23L1025.36 324.981L1027.03 324.732L1028.69 324.481L1030.35 324.23L1032.02 323.978L1033.68 323.724L1035.34 323.47L1037 323.214L1038.67 322.958L1040.33 322.701L1041.99 322.443L1043.66 322.185L1045.32 321.925L1046.98 321.664L1048.65 321.403L1050.31 321.141L1051.97 320.878L1053.63 320.615L1055.3 320.35L1056.96 320.085L1058.62 319.82L1060.29 319.553L1061.95 319.286L1063.61 319.018L1065.27 318.75L1066.94 318.481L1068.6 318.211L1070.26 317.941L1071.93 317.67L1073.59 317.399L1075.25 317.127L1076.91 316.855L1078.58 316.582L1080.24 316.309L1081.9 316.035L1083.57 315.76L1085.23 315.486L1086.89 315.211L1088.55 314.935L1090.22 314.659L1091.88 314.383L1093.54 314.107L1095.21 313.83L1096.87 313.552L1098.53 313.275L1100.19 312.997L1101.86 312.719L1103.52 312.441L1105.18 312.162L1106.85 311.884L1108.51 311.605L1110.17 311.326L1111.83 311.047L1113.5 310.768L1115.16 310.488L1116.82 310.209L1118.49 309.929L1120.15 309.65L1121.81 309.37L1123.47 309.09L1125.14 308.811L1126.8 308.531L1128.46 308.251L1130.13 307.972L1131.79 307.692L1133.45 307.413L1135.11 307.134L1136.78 306.854L1138.44 306.575L1140.1 306.297L1141.77 306.018L1143.43 305.739L1145.09 305.461L1146.75 305.183L1148.42 304.905L1150.08 304.628L1151.74 304.35L1153.41 304.074L1155.07 303.797L1156.73 303.521L1158.39 303.245L1160.06 302.969L1161.72 302.694L1163.38 302.419L1165.05 302.145L1166.71 301.871L1168.37 301.597L1170.03 301.324L1171.7 301.052L1173.36 300.78L1175.02 300.509L1176.69 300.238L1178.35 299.967L1180.01 299.698L1181.67 299.429L1183.34 299.16L1185 298.892L1186.66 298.625L1188.33 298.358L1189.99 298.092L1191.65 297.827L1193.31 297.563L1194.98 297.299L1196.64 297.036L1198.3 296.774L1199.97 296.513L1201.63 296.252L1203.29 295.992L1204.95 295.733L1206.62 295.475L1208.28 295.218L1209.94 294.962L1211.61 294.706L1213.27 294.452L1214.93 294.198L1216.59 293.945L1218.26 293.694L1219.92 293.443L1221.58 293.193L1223.25 292.945L1224.91 292.697L1226.57 292.45L1228.23 292.205L1229.9 291.96L1231.56 291.717L1233.22 291.475L1234.89 291.234L1236.55 290.994L1238.21 290.755L1239.87 290.517L1241.54 290.281L1243.2 290.045L1244.86 289.811L1246.53 289.579L1248.19 289.347L1249.85 289.117L1251.51 288.888L1253.18 288.66L1254.84 288.434L1256.5 288.208L1258.17 287.985L1259.83 287.762L1261.49 287.541L1263.16 287.322L1264.82 287.103L1266.48 286.886L1268.14 286.671L1269.81 286.457L1271.47 286.244L1273.13 286.033L1274.8 285.823L1276.46 285.615L1278.12 285.409L1279.78 285.203L1281.45 285L1283.11 284.798L1284.77 284.597L1286.44 284.398L1288.1 284.201L1289.76 284.005L1291.42 283.811L1293.09 283.618L1294.75 283.427L1296.41 283.238L1298.08 283.05L1299.74 282.864L1301.4 282.68L1303.06 282.497L1304.73 282.317L1306.39 282.137L1308.05 281.96L1309.72 281.784L1311.38 281.61L1313.04 281.438L1314.7 281.267L1316.37 281.099L1318.03 280.932L1319.69 280.767L1321.36 280.603L1323.02 280.442L1324.68 280.282L1326.34 280.124L1328.01 279.968L1329.67 279.814L1331.33 279.662L1333 279.512L1334.66 279.363L1336.32 279.217L1337.98 279.072L1339.65 278.929L1341.31 278.789L1342.97 278.65L1344.64 278.513L1346.3 278.378L1347.96 278.245L1349.62 278.114L1351.29 277.985L1352.95 277.858L1354.61 277.733L1356.28 277.61L1357.94 277.489L1359.6 277.37L1361.26 277.253L1362.93 277.138L1364.59 277.025L1366.25 276.914L1367.92 276.805L1369.58 276.698L1371.24 276.594L1372.9 276.491L1374.57 276.391L1376.23 276.292L1377.89 276.196L1379.56 276.102L1381.22 276.01L1382.88 275.92L1384.54 275.832L1386.21 275.746L1387.87 275.663L1389.53 275.581L1391.2 275.502L1392.86 275.425L1394.52 275.35L1396.18 275.277L1397.85 275.206L1399.51 275.137L1401.17 275.071L1402.84 275.007L1404.5 274.945L1406.16 274.885L1407.82 274.827L1409.49 274.772L1411.15 274.719L1412.81 274.668L1414.48 274.619L1416.14 274.572L1417.8 274.528L1419.46 274.486L1421.13 274.446L1422.79 274.408L1424.45 274.372L1426.12 274.339L1427.78 274.308L1429.44 274.279L1431.1 274.252L1432.77 274.228L1434.43 274.205L1436.09 274.185L1437.76 274.168L1439.42 274.152L1441.08 274.139L1442.74 274.128L1444.41 274.119L1446.07 274.112L1447.73 274.108L1449.4 274.106L1451.06 274.106L1452.72 274.108L1454.38 274.113L1456.05 274.12L1457.71 274.129L1459.37 274.14L1461.04 274.154L1462.7 274.169L1464.36 274.187L1466.03 274.208L1467.69 274.23L1469.35 274.255L1471.01 274.282L1472.68 274.311L1474.34 274.342L1476 274.376L1477.67 274.412L1479.33 274.45L1480.99 274.49L1482.65 274.532L1484.32 274.577L1485.98 274.624L1487.64 274.673L1489.31 274.724L1490.97 274.778L1492.63 274.834L1494.29 274.891L1495.96 274.951L1497.62 275.014L1499.28 275.078L1500.95 275.145L1502.61 275.213L1504.27 275.284L1505.93 275.357L1507.6 275.433L1509.26 275.51L1510.92 275.59L1512.59 275.671L1514.25 275.755L1515.91 275.841L1517.57 275.929L1519.24 276.019L1520.9 276.112L1522.56 276.206L1524.23 276.303L1525.89 276.401L1527.55 276.502L1529.21 276.605L1530.88 276.71L1532.54 276.817L1534.2 276.926L1535.87 277.037L1537.53 277.15L1539.19 277.265L1540.85 277.382L1542.52 277.501L1544.18 277.623L1545.84 277.746L1547.51 277.871L1549.17 277.999L1550.83 278.128L1552.49 278.259L1554.16 278.392L1555.82 278.527L1557.48 278.664L1559.15 278.804L1560.81 278.945L1562.47 279.087L1564.13 279.232L1565.8 279.379L1567.46 279.528L1569.12 279.678L1570.79 279.831L1572.45 279.985L1574.11 280.141L1575.77 280.299L1577.44 280.459L1579.1 280.621L1580.76 280.784L1582.43 280.949L1584.09 281.117L1585.75 281.285L1587.41 281.456L1589.08 281.629L1590.74 281.803L1592.4 281.979L1594.07 282.156L1595.73 282.336L1597.39 282.517L1599.05 282.7L1600.72 282.884L1602.38 283.07L1604.04 283.258L1605.71 283.448L1607.37 283.639L1609.03 283.832L1610.69 284.026L1612.36 284.222L1614.02 284.419L1615.68 284.619" stroke="#000E1E" stroke-width="22" stroke-miterlimit="10" stroke-linecap="round" stroke-linejoin="round"/>
<path d="M-236.752 305.12L-235.089 304.85L-233.427 304.579L-231.764 304.307L-230.101 304.035L-228.438 303.763L-226.775 303.49L-225.112 303.216L-223.449 302.942L-221.787 302.668L-220.124 302.393L-218.461 302.118L-216.798 301.842L-215.135 301.566L-213.472 301.29L-211.809 301.013L-210.146 300.736L-208.484 300.458L-206.821 300.181L-205.158 299.903L-203.495 299.625L-201.832 299.347L-200.169 299.068L-198.506 298.789L-196.843 298.51L-195.181 298.231L-193.518 297.952L-191.855 297.673L-190.192 297.393L-188.529 297.114L-186.866 296.834L-185.203 296.555L-183.541 296.275L-181.878 295.995L-180.215 295.716L-178.552 295.436L-176.889 295.157L-175.226 294.877L-173.563 294.598L-171.9 294.318L-170.238 294.039L-168.575 293.76L-166.912 293.481L-165.249 293.202L-163.586 292.923L-161.923 292.645L-160.26 292.367L-158.598 292.089L-156.935 291.811L-155.272 291.534L-153.609 291.257L-151.946 290.98L-150.283 290.703L-148.62 290.427L-146.957 290.151L-145.295 289.876L-143.632 289.601L-141.969 289.326L-140.306 289.052L-138.643 288.778L-136.98 288.505L-135.317 288.232L-133.654 287.96L-131.992 287.688L-130.329 287.417L-128.666 287.147L-127.003 286.876L-125.34 286.607L-123.677 286.338L-122.014 286.07L-120.352 285.802L-118.689 285.535L-117.026 285.269L-115.363 285.003L-113.7 284.738L-112.037 284.474L-110.374 284.211L-108.711 283.948L-107.049 283.686L-105.386 283.425L-103.723 283.165L-102.06 282.905L-100.397 282.647L-98.7343 282.389L-97.0714 282.132L-95.4085 281.876L-93.7457 281.621L-92.0828 281.367L-90.4199 281.114L-88.7571 280.861L-87.0942 280.61L-85.4313 280.36L-83.7685 280.111L-82.1056 279.862L-80.4427 279.615L-78.7798 279.369L-77.117 279.124L-75.4541 278.88L-73.7912 278.637L-72.1284 278.395L-70.4655 278.154L-68.8026 277.915L-67.1398 277.677L-65.4769 277.439L-63.814 277.203L-62.1512 276.969L-60.4883 276.735L-58.8254 276.503L-57.1626 276.272L-55.4997 276.042L-53.8368 275.813L-52.174 275.586L-50.5111 275.36L-48.8482 275.136L-47.1854 274.912L-45.5225 274.691L-43.8596 274.47L-42.1967 274.251L-40.5339 274.033L-38.871 273.817L-37.2081 273.602L-35.5453 273.388L-33.8824 273.177L-32.2195 272.966L-30.5567 272.757L-28.8938 272.549L-27.2309 272.343L-25.5681 272.139L-23.9052 271.936L-22.2423 271.734L-20.5795 271.534L-18.9166 271.336L-17.2537 271.139L-15.5909 270.944L-13.928 270.75L-12.2651 270.559L-10.6023 270.368L-8.93938 270.18L-7.27652 269.993L-5.61365 269.807L-3.95078 269.624L-2.28791 269.442L-0.625044 269.261L1.03782 269.083L2.70069 268.906L4.36356 268.731L6.02643 268.558L7.6893 268.386L9.35217 268.216L11.015 268.048L12.6779 267.882L14.3408 267.718L16.0036 267.555L17.6665 267.395L19.3294 267.236L20.9922 267.079L22.6551 266.923L24.318 266.77L25.9808 266.618L27.6437 266.469L29.3066 266.321L30.9695 266.175L32.6323 266.032L34.2952 265.89L35.9581 265.75L37.6209 265.611L39.2838 265.475L40.9467 265.341L42.6095 265.209L44.2724 265.079L45.9353 264.951L47.5981 264.824L49.261 264.7L50.9239 264.578L52.5867 264.458L54.2496 264.339L55.9125 264.223L57.5753 264.109L59.2382 263.997L60.9011 263.887L62.5639 263.779L64.2268 263.673L65.8897 263.569L67.5526 263.467L69.2154 263.368L70.8783 263.27L72.5412 263.175L74.204 263.081L75.8669 262.99L77.5298 262.901L79.1926 262.814L80.8555 262.729L82.5184 262.646L84.1812 262.566L85.8441 262.487L87.507 262.411L89.1698 262.337L90.8327 262.265L92.4956 262.195L94.1584 262.127L95.8213 262.062L97.4842 261.998L99.147 261.937L100.81 261.878L102.473 261.822L104.136 261.767L105.799 261.715L107.461 261.665L109.124 261.617L110.787 261.571L112.45 261.527L114.113 261.486L115.776 261.447L117.439 261.41L119.101 261.375L120.764 261.343L122.427 261.312L124.09 261.284L125.753 261.259L127.416 261.235L129.079 261.214L130.742 261.195L132.404 261.178L134.067 261.163L135.73 261.151L137.393 261.14L139.056 261.132L140.719 261.127L142.382 261.123L144.044 261.122L145.707 261.123L147.37 261.126L149.033 261.132L150.696 261.14L152.359 261.15L154.022 261.162L155.685 261.176L157.347 261.193L159.01 261.212L160.673 261.233L162.336 261.256L163.999 261.282L165.662 261.31L167.325 261.34L168.988 261.372L170.65 261.406L172.313 261.443L173.976 261.482L175.639 261.523L177.302 261.566L178.965 261.612L180.628 261.66L182.29 261.71L183.953 261.762L185.616 261.816L187.279 261.873L188.942 261.932L190.605 261.992L192.268 262.056L193.931 262.121L195.593 262.188L197.256 262.258L198.919 262.33L200.582 262.404L202.245 262.48L203.908 262.558L205.571 262.638L207.233 262.721L208.896 262.806L210.559 262.892L212.222 262.981L213.885 263.072L215.548 263.166L217.211 263.261L218.874 263.358L220.536 263.458L222.199 263.559L223.862 263.663L225.525 263.769L227.188 263.876L228.851 263.986L230.514 264.098L232.176 264.212L233.839 264.328L235.502 264.446L237.165 264.566L238.828 264.688L240.491 264.812L242.154 264.938L243.817 265.066L245.479 265.196L247.142 265.328L248.805 265.462L250.468 265.598L252.131 265.736L253.794 265.876L255.457 266.018L257.12 266.161L258.782 266.307L260.445 266.454L262.108 266.604L263.771 266.755L265.434 266.908L267.097 267.063L268.76 267.22L270.422 267.379L272.085 267.54L273.748 267.702L275.411 267.866L277.074 268.032L278.737 268.2L280.4 268.37L282.063 268.541L283.725 268.714L285.388 268.889L287.051 269.066L288.714 269.244L290.377 269.424L292.04 269.606L293.703 269.789L295.365 269.975L297.028 270.161L298.691 270.35L300.354 270.54L302.017 270.732L303.68 270.925L305.343 271.12L307.006 271.317L308.668 271.515L310.331 271.715L311.994 271.916L313.657 272.119L315.32 272.323L316.983 272.529L318.646 272.737L320.309 272.946L321.971 273.156L323.634 273.368L325.297 273.581L326.96 273.796L328.623 274.012L330.286 274.23L331.949 274.449L333.611 274.669L335.274 274.891L336.937 275.114L338.6 275.338L340.263 275.564L341.926 275.791L343.589 276.02L345.252 276.249L346.914 276.48L348.577 276.712L350.24 276.946L351.903 277.181L353.566 277.416L355.229 277.654L356.892 277.892L358.554 278.131L360.217 278.372L361.88 278.613L363.543 278.856L365.206 279.1L366.869 279.345L368.532 279.591L370.195 279.838L371.857 280.086L373.52 280.336L375.183 280.586L376.846 280.837L378.509 281.089L380.172 281.342L381.835 281.596L383.497 281.851L385.16 282.107L386.823 282.364L388.486 282.622L390.149 282.88L391.812 283.14L393.475 283.4L395.138 283.661L396.8 283.923L398.463 284.185L400.126 284.449L401.789 284.713L403.452 284.978L405.115 285.243L406.778 285.509L408.441 285.776L410.103 286.044L411.766 286.312L413.429 286.581L415.092 286.85L416.755 287.12L418.418 287.391L420.081 287.662L421.743 287.934L423.406 288.206L425.069 288.479L426.732 288.752L428.395 289.026L430.058 289.3L431.721 289.574L433.384 289.849L435.046 290.125L436.709 290.4L438.372 290.677L440.035 290.953L441.698 291.23L443.361 291.507L445.024 291.784L446.686 292.062L448.349 292.34L450.012 292.618L451.675 292.896L453.338 293.175L455.001 293.454L456.664 293.733L458.327 294.012L459.989 294.291L461.652 294.57L463.315 294.85L464.978 295.129L466.641 295.409L468.304 295.689L469.967 295.968L471.63 296.248L473.292 296.528L474.955 296.807L476.618 297.087L478.281 297.366L479.944 297.646L481.607 297.925L483.27 298.204L484.932 298.483L486.595 298.762L488.258 299.041L489.921 299.32L491.584 299.598L493.247 299.876L494.91 300.154L496.573 300.432L498.235 300.709L499.898 300.986L501.561 301.263L503.224 301.539L504.887 301.815L506.55 302.091L508.213 302.366L509.875 302.641L511.538 302.915L513.201 303.19L514.864 303.463L516.527 303.736L518.19 304.009L519.853 304.281L521.516 304.553L523.178 304.824L524.841 305.094L526.504 305.364L528.167 305.633L529.83 305.902L531.493 306.17L533.156 306.438L534.818 306.704L536.481 306.97L538.144 307.236L539.807 307.5L541.47 307.764L543.133 308.028L544.796 308.29L546.459 308.552L548.121 308.813L549.784 309.073L551.447 309.332L553.11 309.59L554.773 309.848L556.436 310.104L558.099 310.36L559.762 310.615L561.424 310.869L563.087 311.122L564.75 311.374L566.413 311.624L568.076 311.874L569.739 312.123L571.402 312.371L573.064 312.618L574.727 312.864L576.39 313.109L578.053 313.353L579.716 313.595L581.379 313.837L583.042 314.077L584.705 314.316L586.367 314.554L588.03 314.791L589.693 315.027L591.356 315.261L593.019 315.494L594.682 315.726L596.345 315.957L598.007 316.186L599.67 316.414L601.333 316.641L602.996 316.867L604.659 317.091L606.322 317.314L607.985 317.535L609.648 317.755L611.31 317.974L612.973 318.191L614.636 318.407L616.299 318.622L617.962 318.835L619.625 319.046L621.288 319.256L622.951 319.465L624.613 319.672L626.276 319.878L627.939 320.082L629.602 320.284L631.265 320.485L632.928 320.685L634.591 320.883L636.253 321.079L637.916 321.274L639.579 321.467L641.242 321.658L642.905 321.848L644.568 322.036L646.231 322.223L647.894 322.407L649.556 322.591L651.219 322.772L652.882 322.952L654.545 323.13L656.208 323.306L657.871 323.481L659.534 323.653L661.196 323.824L662.859 323.994L664.522 324.161L666.185 324.327L667.848 324.491L669.511 324.653L671.174 324.813L672.837 324.971L674.499 325.128L676.162 325.282L677.825 325.435L679.488 325.586L681.151 325.735L682.814 325.882L684.477 326.027L686.139 326.171L687.802 326.312L689.465 326.451L691.128 326.589L692.791 326.725L694.454 326.858L696.117 326.99L697.78 327.119L699.442 327.247L701.105 327.373L702.768 327.496L704.431 327.618L706.094 327.738L707.757 327.855L709.42 327.971L711.083 328.084L712.745 328.196L714.408 328.305L716.071 328.412L717.734 328.518L719.397 328.621L721.06 328.722L722.723 328.821L724.385 328.918L726.048 329.013L727.711 329.106L729.374 329.196L731.037 329.285L732.7 329.371L734.363 329.455L736.026 329.537L737.688 329.617L739.351 329.695L741.014 329.771L742.677 329.844L744.34 329.916L746.003 329.985L747.666 330.052L749.328 330.117L750.991 330.179L752.654 330.24L754.317 330.298L755.98 330.354L757.643 330.408L759.306 330.46L760.969 330.509L762.631 330.557L764.294 330.602L765.957 330.645L767.62 330.685L769.283 330.724L770.946 330.76L772.609 330.794L774.272 330.826L775.934 330.856L777.597 330.883L779.26 330.908L780.923 330.931L782.586 330.952L784.249 330.97L785.912 330.986L787.574 331L789.237 331.012L790.9 331.022L792.563 331.029L794.226 331.034L795.889 331.037L797.552 331.037L799.215 331.035L800.877 331.032L802.54 331.025L804.203 331.017L805.866 331.006L807.529 330.993L809.192 330.978L810.855 330.961L812.517 330.941L814.18 330.92L815.843 330.896L817.506 330.869L819.169 330.841L820.832 330.81L822.495 330.777L824.158 330.742L825.82 330.705L827.483 330.665L829.146 330.623L830.809 330.579L832.472 330.533L834.135 330.485L835.798 330.434L837.46 330.381L839.123 330.326L840.786 330.269L842.449 330.21L844.112 330.148L845.775 330.084L847.438 330.018L849.101 329.95L850.763 329.88L852.426 329.808L854.089 329.733L855.752 329.656L857.415 329.577L859.078 329.496L860.741 329.413L862.404 329.328L864.066 329.24L865.729 329.151L867.392 329.059L869.055 328.965L870.718 328.869L872.381 328.771L874.044 328.671L875.706 328.569L877.369 328.465L879.032 328.359L880.695 328.25L882.358 328.14L884.021 328.027L885.684 327.913L887.347 327.796L889.009 327.677L890.672 327.557L892.335 327.434L893.998 327.31L895.661 327.183L897.324 327.054L898.987 326.924L900.649 326.791L902.312 326.656L903.975 326.52L905.638 326.381L907.301 326.241L908.964 326.099L910.627 325.954L912.29 325.808L913.952 325.66L915.615 325.51L917.278 325.358L918.941 325.205L920.604 325.049L922.267 324.891L923.93 324.732L925.593 324.571L927.255 324.408L928.918 324.243L930.581 324.077L932.244 323.908L933.907 323.738L935.57 323.566L937.233 323.393L938.895 323.217L940.558 323.04L942.221 322.861L943.884 322.681L945.547 322.498L947.21 322.314L948.873 322.129L950.536 321.941L952.198 321.752L953.861 321.562L955.524 321.37L957.187 321.176L958.85 320.98L960.513 320.783L962.176 320.584L963.838 320.384L965.501 320.182L967.164 319.979L968.827 319.774L970.49 319.568L972.153 319.36L973.816 319.151L975.479 318.94L977.141 318.727L978.804 318.514L980.467 318.298L982.13 318.082L983.793 317.864L985.456 317.644L987.119 317.424L988.781 317.201L990.444 316.978L992.107 316.753L993.77 316.527L995.433 316.299L997.096 316.071L998.759 315.841L1000.42 315.609L1002.08 315.377L1003.75 315.143L1005.41 314.908L1007.07 314.672L1008.74 314.434L1010.4 314.196L1012.06 313.956L1013.72 313.715L1015.39 313.473L1017.05 313.23L1018.71 312.986L1020.38 312.74L1022.04 312.494L1023.7 312.246L1025.36 311.998L1027.03 311.749L1028.69 311.498L1030.35 311.247L1032.02 310.994L1033.68 310.741L1035.34 310.486L1037 310.231L1038.67 309.975L1040.33 309.718L1041.99 309.46L1043.66 309.201L1045.32 308.941L1046.98 308.681L1048.64 308.42L1050.31 308.158L1051.97 307.895L1053.63 307.631L1055.3 307.367L1056.96 307.102L1058.62 306.836L1060.28 306.57L1061.95 306.303L1063.61 306.035L1065.27 305.767L1066.94 305.498L1068.6 305.228L1070.26 304.958L1071.92 304.687L1073.59 304.416L1075.25 304.144L1076.91 303.871L1078.58 303.599L1080.24 303.325L1081.9 303.051L1083.56 302.777L1085.23 302.502L1086.89 302.227L1088.55 301.952L1090.22 301.676L1091.88 301.4L1093.54 301.123L1095.21 300.846L1096.87 300.569L1098.53 300.292L1100.19 300.014L1101.86 299.736L1103.52 299.458L1105.18 299.179L1106.85 298.9L1108.51 298.622L1110.17 298.343L1111.83 298.063L1113.5 297.784L1115.16 297.505L1116.82 297.225L1118.49 296.946L1120.15 296.666L1121.81 296.387L1123.47 296.107L1125.14 295.827L1126.8 295.548L1128.46 295.268L1130.13 294.988L1131.79 294.709L1133.45 294.43L1135.11 294.15L1136.78 293.871L1138.44 293.592L1140.1 293.313L1141.77 293.035L1143.43 292.756L1145.09 292.478L1146.75 292.2L1148.42 291.922L1150.08 291.644L1151.74 291.367L1153.41 291.09L1155.07 290.813L1156.73 290.537L1158.39 290.261L1160.06 289.986L1161.72 289.711L1163.38 289.436L1165.05 289.161L1166.71 288.887L1168.37 288.614L1170.03 288.341L1171.7 288.069L1173.36 287.797L1175.02 287.525L1176.69 287.254L1178.35 286.984L1180.01 286.714L1181.67 286.445L1183.34 286.177L1185 285.909L1186.66 285.642L1188.33 285.375L1189.99 285.109L1191.65 284.844L1193.31 284.579L1194.98 284.316L1196.64 284.053L1198.3 283.791L1199.97 283.529L1201.63 283.269L1203.29 283.009L1204.95 282.75L1206.62 282.492L1208.28 282.234L1209.94 281.978L1211.61 281.723L1213.27 281.468L1214.93 281.215L1216.59 280.962L1218.26 280.71L1219.92 280.46L1221.58 280.21L1223.25 279.961L1224.91 279.714L1226.57 279.467L1228.23 279.221L1229.9 278.977L1231.56 278.734L1233.22 278.491L1234.89 278.25L1236.55 278.01L1238.21 277.771L1239.87 277.534L1241.54 277.297L1243.2 277.062L1244.86 276.828L1246.53 276.595L1248.19 276.364L1249.85 276.133L1251.51 275.904L1253.18 275.677L1254.84 275.45L1256.5 275.225L1258.17 275.001L1259.83 274.779L1261.49 274.558L1263.15 274.338L1264.82 274.12L1266.48 273.903L1268.14 273.687L1269.81 273.473L1271.47 273.261L1273.13 273.05L1274.79 272.84L1276.46 272.632L1278.12 272.425L1279.78 272.22L1281.45 272.016L1283.11 271.814L1284.77 271.614L1286.43 271.415L1288.1 271.217L1289.76 271.022L1291.42 270.827L1293.09 270.635L1294.75 270.444L1296.41 270.255L1298.07 270.067L1299.74 269.881L1301.4 269.697L1303.06 269.514L1304.73 269.333L1306.39 269.154L1308.05 268.976L1309.72 268.801L1311.38 268.627L1313.04 268.454L1314.7 268.284L1316.37 268.115L1318.03 267.948L1319.69 267.783L1321.36 267.62L1323.02 267.458L1324.68 267.299L1326.34 267.141L1328.01 266.985L1329.67 266.831L1331.33 266.679L1333 266.528L1334.66 266.38L1336.32 266.233L1337.98 266.089L1339.65 265.946L1341.31 265.805L1342.97 265.666L1344.64 265.529L1346.3 265.394L1347.96 265.261L1349.62 265.13L1351.29 265.001L1352.95 264.874L1354.61 264.749L1356.28 264.626L1357.94 264.505L1359.6 264.386L1361.26 264.269L1362.93 264.154L1364.59 264.041L1366.25 263.931L1367.92 263.822L1369.58 263.715L1371.24 263.61L1372.9 263.508L1374.57 263.407L1376.23 263.309L1377.89 263.213L1379.56 263.118L1381.22 263.026L1382.88 262.936L1384.54 262.848L1386.21 262.763L1387.87 262.679L1389.53 262.598L1391.2 262.518L1392.86 262.441L1394.52 262.366L1396.18 262.293L1397.85 262.223L1399.51 262.154L1401.17 262.088L1402.84 262.024L1404.5 261.962L1406.16 261.902L1407.82 261.844L1409.49 261.789L1411.15 261.735L1412.81 261.684L1414.48 261.635L1416.14 261.589L1417.8 261.544L1419.46 261.502L1421.13 261.462L1422.79 261.424L1424.45 261.389L1426.12 261.355L1427.78 261.324L1429.44 261.295L1431.1 261.269L1432.77 261.244L1434.43 261.222L1436.09 261.202L1437.76 261.184L1439.42 261.169L1441.08 261.155L1442.74 261.144L1444.41 261.136L1446.07 261.129L1447.73 261.125L1449.4 261.122L1451.06 261.123L1452.72 261.125L1454.38 261.13L1456.05 261.136L1457.71 261.145L1459.37 261.157L1461.04 261.17L1462.7 261.186L1464.36 261.204L1466.02 261.224L1467.69 261.247L1469.35 261.271L1471.01 261.298L1472.68 261.328L1474.34 261.359L1476 261.392L1477.66 261.428L1479.33 261.466L1480.99 261.507L1482.65 261.549L1484.32 261.594L1485.98 261.641L1487.64 261.69L1489.3 261.741L1490.97 261.794L1492.63 261.85L1494.29 261.908L1495.96 261.968L1497.62 262.03L1499.28 262.095L1500.94 262.161L1502.61 262.23L1504.27 262.301L1505.93 262.374L1507.6 262.449L1509.26 262.527L1510.92 262.606L1512.58 262.688L1514.25 262.772L1515.91 262.858L1517.57 262.946L1519.24 263.036L1520.9 263.128L1522.56 263.223L1524.23 263.319L1525.89 263.418L1527.55 263.519L1529.21 263.621L1530.88 263.726L1532.54 263.833L1534.2 263.942L1535.87 264.053L1537.53 264.166L1539.19 264.282L1540.85 264.399L1542.52 264.518L1544.18 264.639L1545.84 264.763L1547.51 264.888L1549.17 265.015L1550.83 265.144L1552.49 265.276L1554.16 265.409L1555.82 265.544L1557.48 265.681L1559.15 265.82L1560.81 265.961L1562.47 266.104L1564.13 266.249L1565.8 266.396L1567.46 266.544L1569.12 266.695L1570.79 266.847L1572.45 267.002L1574.11 267.158L1575.77 267.316L1577.44 267.476L1579.1 267.637L1580.76 267.801L1582.43 267.966L1584.09 268.133L1585.75 268.302L1587.41 268.473L1589.08 268.645L1590.74 268.819L1592.4 268.995L1594.07 269.173L1595.73 269.352L1597.39 269.533L1599.05 269.716L1600.72 269.901L1602.38 270.087L1604.04 270.275L1605.71 270.464L1607.37 270.655L1609.03 270.848L1610.69 271.042L1612.36 271.238L1614.02 271.436L1615.68 271.635L1617.35 271.836L1619.01 272.038" stroke="#000E1E" stroke-width="22" stroke-miterlimit="10" stroke-linecap="round" stroke-linejoin="round"/>
<path d="M-238.415 283.416L-236.752 283.146L-235.089 282.875L-233.427 282.604L-231.764 282.333L-230.101 282.061L-228.438 281.788L-226.775 281.515L-225.112 281.241L-223.449 280.967L-221.786 280.693L-220.124 280.418L-218.461 280.143L-216.798 279.867L-215.135 279.591L-213.472 279.315L-211.809 279.038L-210.146 278.761L-208.484 278.484L-206.821 278.206L-205.158 277.928L-203.495 277.65L-201.832 277.372L-200.169 277.093L-198.506 276.815L-196.843 276.536L-195.181 276.257L-193.518 275.978L-191.855 275.698L-190.192 275.419L-188.529 275.139L-186.866 274.86L-185.203 274.58L-183.541 274.3L-181.878 274.021L-180.215 273.741L-178.552 273.462L-176.889 273.182L-175.226 272.902L-173.563 272.623L-171.9 272.344L-170.238 272.064L-168.575 271.785L-166.912 271.506L-165.249 271.228L-163.586 270.949L-161.923 270.67L-160.26 270.392L-158.597 270.114L-156.935 269.837L-155.272 269.559L-153.609 269.282L-151.946 269.005L-150.283 268.729L-148.62 268.453L-146.957 268.177L-145.295 267.901L-143.632 267.626L-141.969 267.352L-140.306 267.078L-138.643 266.804L-136.98 266.531L-135.317 266.258L-133.654 265.986L-131.992 265.714L-130.329 265.443L-128.666 265.172L-127.003 264.902L-125.34 264.632L-123.677 264.363L-122.014 264.095L-120.352 263.828L-118.689 263.561L-117.026 263.294L-115.363 263.029L-113.7 262.764L-112.037 262.5L-110.374 262.236L-108.711 261.974L-107.049 261.712L-105.386 261.451L-103.723 261.19L-102.06 260.931L-100.397 260.672L-98.7342 260.414L-97.0714 260.158L-95.4085 259.902L-93.7456 259.646L-92.0828 259.392L-90.4199 259.139L-88.757 258.887L-87.0942 258.636L-85.4313 258.385L-83.7684 258.136L-82.1055 257.888L-80.4427 257.641L-78.7798 257.394L-77.1169 257.149L-75.4541 256.905L-73.7912 256.662L-72.1283 256.421L-70.4655 256.18L-68.8026 255.94L-67.1397 255.702L-65.4769 255.465L-63.814 255.229L-62.1511 254.994L-60.4883 254.76L-58.8254 254.528L-57.1625 254.297L-55.4997 254.067L-53.8368 253.839L-52.1739 253.612L-50.511 253.386L-48.8482 253.161L-47.1853 252.938L-45.5224 252.716L-43.8596 252.495L-42.1967 252.276L-40.5338 252.059L-38.871 251.842L-37.2081 251.627L-35.5452 251.414L-33.8824 251.202L-32.2195 250.991L-30.5566 250.782L-28.8938 250.575L-27.2309 250.369L-25.568 250.164L-23.9052 249.961L-22.2423 249.76L-20.5794 249.56L-18.9166 249.361L-17.2537 249.165L-15.5908 248.969L-13.9279 248.776L-12.2651 248.584L-10.6022 248.394L-8.93934 248.205L-7.27647 248.018L-5.61361 247.833L-3.95074 247.649L-2.28787 247.467L-0.625 247.287L1.03787 247.108L2.70074 246.932L4.3636 246.756L6.02647 246.583L7.68934 246.412L9.35221 246.242L11.0151 246.074L12.6779 245.908L14.3408 245.743L16.0037 245.581L17.6666 245.42L19.3294 245.261L20.9923 245.104L22.6552 244.949L24.318 244.795L25.9809 244.644L27.6438 244.494L29.3066 244.347L30.9695 244.201L32.6324 244.057L34.2952 243.915L35.9581 243.775L37.621 243.637L39.2838 243.501L40.9467 243.367L42.6096 243.234L44.2724 243.104L45.9353 242.976L47.5982 242.85L49.261 242.725L50.9239 242.603L52.5868 242.483L54.2497 242.365L55.9125 242.249L57.5754 242.134L59.2383 242.022L60.9011 241.912L62.564 241.804L64.2269 241.698L65.8897 241.595L67.5526 241.493L69.2155 241.393L70.8783 241.296L72.5412 241.2L74.2041 241.107L75.8669 241.016L77.5298 240.926L79.1927 240.839L80.8555 240.754L82.5184 240.672L84.1813 240.591L85.8441 240.513L87.507 240.436L89.1699 240.362L90.8328 240.29L92.4956 240.22L94.1585 240.153L95.8214 240.087L97.4842 240.024L99.1471 239.963L100.81 239.904L102.473 239.847L104.136 239.792L105.799 239.74L107.461 239.69L109.124 239.642L110.787 239.596L112.45 239.553L114.113 239.511L115.776 239.472L117.439 239.435L119.102 239.401L120.764 239.368L122.427 239.338L124.09 239.31L125.753 239.284L127.416 239.26L129.079 239.239L130.742 239.22L132.404 239.203L134.067 239.188L135.73 239.176L137.393 239.166L139.056 239.158L140.719 239.152L142.382 239.149L144.045 239.147L145.707 239.148L147.37 239.152L149.033 239.157L150.696 239.165L152.359 239.175L154.022 239.187L155.685 239.202L157.347 239.218L159.01 239.237L160.673 239.258L162.336 239.282L163.999 239.307L165.662 239.335L167.325 239.365L168.988 239.397L170.65 239.432L172.313 239.468L173.976 239.507L175.639 239.548L177.302 239.592L178.965 239.637L180.628 239.685L182.291 239.735L183.953 239.787L185.616 239.842L187.279 239.898L188.942 239.957L190.605 240.018L192.268 240.081L193.931 240.146L195.593 240.214L197.256 240.283L198.919 240.355L200.582 240.429L202.245 240.505L203.908 240.583L205.571 240.664L207.234 240.746L208.896 240.831L210.559 240.918L212.222 241.007L213.885 241.098L215.548 241.191L217.211 241.286L218.874 241.384L220.536 241.483L222.199 241.585L223.862 241.688L225.525 241.794L227.188 241.902L228.851 242.012L230.514 242.123L232.177 242.237L233.839 242.353L235.502 242.471L237.165 242.591L238.828 242.713L240.491 242.838L242.154 242.964L243.817 243.092L245.48 243.222L247.142 243.354L248.805 243.488L250.468 243.624L252.131 243.761L253.794 243.901L255.457 244.043L257.12 244.187L258.782 244.332L260.445 244.48L262.108 244.629L263.771 244.781L265.434 244.934L267.097 245.089L268.76 245.246L270.423 245.404L272.085 245.565L273.748 245.727L275.411 245.892L277.074 246.058L278.737 246.225L280.4 246.395L282.063 246.566L283.725 246.74L285.388 246.914L287.051 247.091L288.714 247.269L290.377 247.45L292.04 247.631L293.703 247.815L295.366 248L297.028 248.187L298.691 248.375L300.354 248.565L302.017 248.757L303.68 248.951L305.343 249.146L307.006 249.342L308.668 249.54L310.331 249.74L311.994 249.941L313.657 250.144L315.32 250.349L316.983 250.555L318.646 250.762L320.309 250.971L321.971 251.181L323.634 251.393L325.297 251.607L326.96 251.821L328.623 252.038L330.286 252.255L331.949 252.474L333.612 252.694L335.274 252.916L336.937 253.139L338.6 253.364L340.263 253.59L341.926 253.817L343.589 254.045L345.252 254.275L346.914 254.506L348.577 254.738L350.24 254.971L351.903 255.206L353.566 255.442L355.229 255.679L356.892 255.917L358.555 256.157L360.217 256.397L361.88 256.639L363.543 256.882L365.206 257.126L366.869 257.371L368.532 257.617L370.195 257.864L371.857 258.112L373.52 258.361L375.183 258.611L376.846 258.862L378.509 259.115L380.172 259.368L381.835 259.622L383.498 259.877L385.16 260.133L386.823 260.389L388.486 260.647L390.149 260.906L391.812 261.165L393.475 261.425L395.138 261.686L396.801 261.948L398.463 262.211L400.126 262.474L401.789 262.738L403.452 263.003L405.115 263.268L406.778 263.535L408.441 263.802L410.103 264.069L411.766 264.337L413.429 264.606L415.092 264.876L416.755 265.146L418.418 265.416L420.081 265.687L421.744 265.959L423.406 266.231L425.069 266.504L426.732 266.777L428.395 267.051L430.058 267.325L431.721 267.6L433.384 267.875L435.046 268.15L436.709 268.426L438.372 268.702L440.035 268.978L441.698 269.255L443.361 269.532L445.024 269.81L446.687 270.087L448.349 270.365L450.012 270.643L451.675 270.922L453.338 271.2L455.001 271.479L456.664 271.758L458.327 272.037L459.99 272.317L461.652 272.596L463.315 272.875L464.978 273.155L466.641 273.434L468.304 273.714L469.967 273.994L471.63 274.273L473.292 274.553L474.955 274.833L476.618 275.112L478.281 275.392L479.944 275.671L481.607 275.95L483.27 276.23L484.933 276.509L486.595 276.788L488.258 277.066L489.921 277.345L491.584 277.623L493.247 277.901L494.91 278.179L496.573 278.457L498.235 278.734L499.898 279.011L501.561 279.288L503.224 279.564L504.887 279.841L506.55 280.116L508.213 280.392L509.876 280.666L511.538 280.941L513.201 281.215L514.864 281.489L516.527 281.762L518.19 282.034L519.853 282.306L521.516 282.578L523.178 282.849L524.841 283.119L526.504 283.389L528.167 283.659L529.83 283.927L531.493 284.195L533.156 284.463L534.819 284.73L536.481 284.996L538.144 285.261L539.807 285.526L541.47 285.79L543.133 286.053L544.796 286.315L546.459 286.577L548.122 286.838L549.784 287.098L551.447 287.357L553.11 287.616L554.773 287.873L556.436 288.13L558.099 288.385L559.762 288.64L561.424 288.894L563.087 289.147L564.75 289.399L566.413 289.65L568.076 289.9L569.739 290.149L571.402 290.397L573.065 290.644L574.727 290.89L576.39 291.134L578.053 291.378L579.716 291.621L581.379 291.862L583.042 292.102L584.705 292.342L586.367 292.58L588.03 292.816L589.693 293.052L591.356 293.286L593.019 293.52L594.682 293.752L596.345 293.982L598.008 294.212L599.67 294.44L601.333 294.667L602.996 294.892L604.659 295.116L606.322 295.339L607.985 295.561L609.648 295.781L611.311 295.999L612.973 296.217L614.636 296.433L616.299 296.647L617.962 296.86L619.625 297.072L621.288 297.282L622.951 297.49L624.613 297.698L626.276 297.903L627.939 298.107L629.602 298.31L631.265 298.511L632.928 298.71L634.591 298.908L636.254 299.104L637.916 299.299L639.579 299.492L641.242 299.684L642.905 299.873L644.568 300.061L646.231 300.248L647.894 300.433L649.556 300.616L651.219 300.797L652.882 300.977L654.545 301.155L656.208 301.331L657.871 301.506L659.534 301.679L661.197 301.85L662.859 302.019L664.522 302.186L666.185 302.352L667.848 302.516L669.511 302.678L671.174 302.838L672.837 302.997L674.5 303.153L676.162 303.308L677.825 303.461L679.488 303.611L681.151 303.76L682.814 303.908L684.477 304.053L686.14 304.196L687.802 304.337L689.465 304.477L691.128 304.614L692.791 304.75L694.454 304.883L696.117 305.015L697.78 305.145L699.443 305.272L701.105 305.398L702.768 305.522L704.431 305.643L706.094 305.763L707.757 305.881L709.42 305.996L711.083 306.11L712.745 306.221L714.408 306.33L716.071 306.438L717.734 306.543L719.397 306.646L721.06 306.747L722.723 306.847L724.386 306.943L726.048 307.038L727.711 307.131L729.374 307.222L731.037 307.31L732.7 307.396L734.363 307.481L736.026 307.563L737.689 307.643L739.351 307.721L741.014 307.796L742.677 307.87L744.34 307.941L746.003 308.01L747.666 308.077L749.329 308.142L750.991 308.205L752.654 308.265L754.317 308.324L755.98 308.38L757.643 308.434L759.306 308.485L760.969 308.535L762.632 308.582L764.294 308.627L765.957 308.67L767.62 308.711L769.283 308.749L770.946 308.786L772.609 308.82L774.272 308.851L775.934 308.881L777.597 308.908L779.26 308.933L780.923 308.956L782.586 308.977L784.249 308.995L785.912 309.012L787.575 309.026L789.237 309.037L790.9 309.047L792.563 309.054L794.226 309.059L795.889 309.062L797.552 309.063L799.215 309.061L800.877 309.057L802.54 309.051L804.203 309.042L805.866 309.032L807.529 309.019L809.192 309.004L810.855 308.986L812.518 308.967L814.18 308.945L815.843 308.921L817.506 308.895L819.169 308.866L820.832 308.836L822.495 308.803L824.158 308.768L825.821 308.73L827.483 308.691L829.146 308.649L830.809 308.605L832.472 308.559L834.135 308.51L835.798 308.46L837.461 308.407L839.123 308.352L840.786 308.294L842.449 308.235L844.112 308.174L845.775 308.11L847.438 308.044L849.101 307.976L850.764 307.905L852.426 307.833L854.089 307.758L855.752 307.682L857.415 307.603L859.078 307.522L860.741 307.439L862.404 307.353L864.066 307.266L865.729 307.176L867.392 307.084L869.055 306.991L870.718 306.895L872.381 306.797L874.044 306.697L875.707 306.595L877.369 306.49L879.032 306.384L880.695 306.276L882.358 306.165L884.021 306.053L885.684 305.938L887.347 305.821L889.01 305.703L890.672 305.582L892.335 305.46L893.998 305.335L895.661 305.208L897.324 305.08L898.987 304.949L900.65 304.816L902.312 304.682L903.975 304.545L905.638 304.407L907.301 304.266L908.964 304.124L910.627 303.98L912.29 303.834L913.953 303.685L915.615 303.536L917.278 303.384L918.941 303.23L920.604 303.074L922.267 302.917L923.93 302.758L925.593 302.596L927.255 302.434L928.918 302.269L930.581 302.102L932.244 301.934L933.907 301.764L935.57 301.592L937.233 301.418L938.896 301.243L940.558 301.066L942.221 300.887L943.884 300.706L945.547 300.524L947.21 300.34L948.873 300.154L950.536 299.967L952.199 299.778L953.861 299.587L955.524 299.395L957.187 299.201L958.85 299.006L960.513 298.808L962.176 298.61L963.839 298.41L965.501 298.208L967.164 298.004L968.827 297.8L970.49 297.593L972.153 297.385L973.816 297.176L975.479 296.965L977.142 296.753L978.804 296.539L980.467 296.324L982.13 296.107L983.793 295.889L985.456 295.67L987.119 295.449L988.782 295.227L990.444 295.003L992.107 294.779L993.77 294.552L995.433 294.325L997.096 294.096L998.759 293.866L1000.42 293.635L1002.08 293.402L1003.75 293.168L1005.41 292.933L1007.07 292.697L1008.74 292.46L1010.4 292.221L1012.06 291.981L1013.72 291.74L1015.39 291.498L1017.05 291.255L1018.71 291.011L1020.38 290.766L1022.04 290.519L1023.7 290.272L1025.36 290.023L1027.03 289.774L1028.69 289.523L1030.35 289.272L1032.02 289.019L1033.68 288.766L1035.34 288.512L1037 288.256L1038.67 288L1040.33 287.743L1041.99 287.485L1043.66 287.227L1045.32 286.967L1046.98 286.706L1048.64 286.445L1050.31 286.183L1051.97 285.92L1053.63 285.657L1055.3 285.392L1056.96 285.127L1058.62 284.862L1060.28 284.595L1061.95 284.328L1063.61 284.06L1065.27 283.792L1066.94 283.523L1068.6 283.253L1070.26 282.983L1071.93 282.712L1073.59 282.441L1075.25 282.169L1076.91 281.897L1078.58 281.624L1080.24 281.351L1081.9 281.077L1083.57 280.802L1085.23 280.528L1086.89 280.253L1088.55 279.977L1090.22 279.701L1091.88 279.425L1093.54 279.149L1095.21 278.872L1096.87 278.594L1098.53 278.317L1100.19 278.039L1101.86 277.761L1103.52 277.483L1105.18 277.204L1106.85 276.926L1108.51 276.647L1110.17 276.368L1111.83 276.089L1113.5 275.81L1115.16 275.53L1116.82 275.251L1118.49 274.971L1120.15 274.692L1121.81 274.412L1123.47 274.132L1125.14 273.853L1126.8 273.573L1128.46 273.293L1130.13 273.014L1131.79 272.734L1133.45 272.455L1135.11 272.176L1136.78 271.896L1138.44 271.617L1140.1 271.339L1141.77 271.06L1143.43 270.781L1145.09 270.503L1146.75 270.225L1148.42 269.947L1150.08 269.67L1151.74 269.392L1153.41 269.116L1155.07 268.839L1156.73 268.563L1158.39 268.287L1160.06 268.011L1161.72 267.736L1163.38 267.461L1165.05 267.187L1166.71 266.913L1168.37 266.639L1170.03 266.366L1171.7 266.094L1173.36 265.822L1175.02 265.551L1176.69 265.28L1178.35 265.009L1180.01 264.74L1181.67 264.471L1183.34 264.202L1185 263.934L1186.66 263.667L1188.33 263.4L1189.99 263.134L1191.65 262.869L1193.31 262.605L1194.98 262.341L1196.64 262.078L1198.3 261.816L1199.97 261.555L1201.63 261.294L1203.29 261.034L1204.95 260.775L1206.62 260.517L1208.28 260.26L1209.94 260.004L1211.61 259.748L1213.27 259.494L1214.93 259.24L1216.59 258.987L1218.26 258.736L1219.92 258.485L1221.58 258.235L1223.25 257.987L1224.91 257.739L1226.57 257.492L1228.23 257.247L1229.9 257.002L1231.56 256.759L1233.22 256.517L1234.89 256.276L1236.55 256.036L1238.21 255.797L1239.87 255.559L1241.54 255.323L1243.2 255.087L1244.86 254.853L1246.53 254.621L1248.19 254.389L1249.85 254.159L1251.51 253.93L1253.18 253.702L1254.84 253.476L1256.5 253.25L1258.17 253.027L1259.83 252.804L1261.49 252.583L1263.15 252.364L1264.82 252.145L1266.48 251.928L1268.14 251.713L1269.81 251.499L1271.47 251.286L1273.13 251.075L1274.79 250.865L1276.46 250.657L1278.12 250.451L1279.78 250.245L1281.45 250.042L1283.11 249.84L1284.77 249.639L1286.44 249.44L1288.1 249.243L1289.76 249.047L1291.42 248.853L1293.09 248.66L1294.75 248.469L1296.41 248.28L1298.08 248.092L1299.74 247.906L1301.4 247.722L1303.06 247.539L1304.73 247.359L1306.39 247.179L1308.05 247.002L1309.72 246.826L1311.38 246.652L1313.04 246.48L1314.7 246.309L1316.37 246.141L1318.03 245.974L1319.69 245.809L1321.36 245.645L1323.02 245.484L1324.68 245.324L1326.34 245.166L1328.01 245.01L1329.67 244.856L1331.33 244.704L1333 244.554L1334.66 244.405L1336.32 244.259L1337.98 244.114L1339.65 243.971L1341.31 243.831L1342.97 243.692L1344.64 243.555L1346.3 243.42L1347.96 243.287L1349.62 243.156L1351.29 243.027L1352.95 242.9L1354.61 242.775L1356.28 242.652L1357.94 242.531L1359.6 242.412L1361.26 242.295L1362.93 242.18L1364.59 242.067L1366.25 241.956L1367.92 241.847L1369.58 241.74L1371.24 241.636L1372.9 241.533L1374.57 241.433L1376.23 241.334L1377.89 241.238L1379.56 241.144L1381.22 241.052L1382.88 240.962L1384.54 240.874L1386.21 240.788L1387.87 240.705L1389.53 240.623L1391.2 240.544L1392.86 240.467L1394.52 240.392L1396.18 240.319L1397.85 240.248L1399.51 240.179L1401.17 240.113L1402.84 240.049L1404.5 239.987L1406.16 239.927L1407.82 239.869L1409.49 239.814L1411.15 239.761L1412.81 239.71L1414.48 239.661L1416.14 239.614L1417.8 239.57L1419.46 239.528L1421.13 239.488L1422.79 239.45L1424.45 239.414L1426.12 239.381L1427.78 239.35L1429.44 239.321L1431.1 239.294L1432.77 239.27L1434.43 239.247L1436.09 239.227L1437.76 239.21L1439.42 239.194L1441.08 239.181L1442.74 239.17L1444.41 239.161L1446.07 239.154L1447.73 239.15L1449.4 239.148L1451.06 239.148L1452.72 239.15L1454.38 239.155L1456.05 239.162L1457.71 239.171L1459.37 239.182L1461.04 239.196L1462.7 239.211L1464.36 239.229L1466.02 239.25L1467.69 239.272L1469.35 239.297L1471.01 239.324L1472.68 239.353L1474.34 239.384L1476 239.418L1477.66 239.454L1479.33 239.492L1480.99 239.532L1482.65 239.574L1484.32 239.619L1485.98 239.666L1487.64 239.715L1489.3 239.766L1490.97 239.82L1492.63 239.876L1494.29 239.933L1495.96 239.993L1497.62 240.056L1499.28 240.12L1500.95 240.187L1502.61 240.255L1504.27 240.326L1505.93 240.399L1507.6 240.475L1509.26 240.552L1510.92 240.632L1512.59 240.713L1514.25 240.797L1515.91 240.883L1517.57 240.971L1519.24 241.061L1520.9 241.154L1522.56 241.248L1524.23 241.345L1525.89 241.443L1527.55 241.544L1529.21 241.647L1530.88 241.752L1532.54 241.859L1534.2 241.968L1535.87 242.079L1537.53 242.192L1539.19 242.307L1540.85 242.424L1542.52 242.543L1544.18 242.665L1545.84 242.788L1547.51 242.913L1549.17 243.04L1550.83 243.17L1552.49 243.301L1554.16 243.434L1555.82 243.569L1557.48 243.706L1559.15 243.845L1560.81 243.986L1562.47 244.129L1564.13 244.274L1565.8 244.421L1567.46 244.57L1569.12 244.72L1570.79 244.873L1572.45 245.027L1574.11 245.183L1575.77 245.341L1577.44 245.501L1579.1 245.663L1580.76 245.826L1582.43 245.991L1584.09 246.159L1585.75 246.327L1587.41 246.498L1589.08 246.671L1590.74 246.845L1592.4 247.021L1594.07 247.198L1595.73 247.378L1597.39 247.559L1599.05 247.742L1600.72 247.926L1602.38 248.112L1604.04 248.3L1605.71 248.49L1607.37 248.681L1609.03 248.874L1610.69 249.068L1612.36 249.264L1614.02 249.461L1615.68 249.661L1617.35 249.861L1619.01 250.063L1620.67 250.267" stroke="#000E1E" stroke-width="22" stroke-miterlimit="10" stroke-linecap="round" stroke-linejoin="round"/>
<rect x="69.3165" y="-339.648" width="1530.6" height="579.295" fill="#000E1E" stroke="#000E1E"/>
</g>
<defs>
<clipPath id="clip0_1487_3107">
<rect width="1512" height="467" fill="white"/>
</clipPath>
</defs>
</svg>
